<svg id="pattern" xmlns="http://www.w3.org/2000/svg" viewBox="0 0 400 400"><defs><style>.cls-1{fill:#fff;}</style></defs><path class="cls-1" d="M400,237.06a18.74,18.74,0,0,0-.66,6.21,22.14,22.14,0,0,0,.66,4.8"/><path class="cls-1" d="M160,273a4.67,4.67,0,0,0-.86.86c.3-.27.61-.54.9-.82Z"/><path class="cls-1" d="M8.1,186.49,8,186.6c.14.5.29,1,.42,1.48.36,1.33.68,2.66,1,4,.4-.77.84-1.52,1.3-2.26C9.81,188.76,9,187.61,8.1,186.49Z"/><path class="cls-1" d="M15.24,166.37c.33-.86.64-1.72.92-2.59l-3.38.2A20.57,20.57,0,0,1,15.24,166.37Z"/><path class="cls-1" d="M0,67v1A6.41,6.41,0,0,0,0,67Z"/><path class="cls-1" d="M6.8,166.32c.36-.69.74-1.38,1.13-2l-3.1.14A19.74,19.74,0,0,1,6.8,166.32Z"/><path class="cls-1" d="M252.19,399.51c-.11.16-.23.32-.34.49h1.47c0-.18,0-.36,0-.54C253,399.46,252.58,399.49,252.19,399.51Z"/><path class="cls-1" d="M247.61,400h.79l.11-.15Z"/><path class="cls-1" d="M376.83,54.27c1-1.84,1.89-3.75,2.8-5.65-1.5,1.35-3,2.67-4.46,4.06A10,10,0,0,0,376.83,54.27Z"/><path class="cls-1" d="M117.75,154.43a1.12,1.12,0,0,0,.59.12l.53.08s0,.07,0,.11c1.85,6.53.68,13.37,2.32,19.94,1.33,5.32,2.72,10.65,3.68,16,0,0,0,0,0,.05a1.37,1.37,0,0,0,1,1.67,42.3,42.3,0,0,0,20.13,0,1.38,1.38,0,0,0,.85-.6,1.18,1.18,0,0,0,1.38-.76c5-11.5,4.28-24.47,6.73-36.59a1.38,1.38,0,0,0,1.23-.73,1,1,0,0,0,.86-.87,86.94,86.94,0,0,0,.72-12.9,1.79,1.79,0,0,0-.07-.48,1.38,1.38,0,0,0-1.83-1.3c-6.07,2-13.18-.8-19.49-.69-5.6.1-11.18.58-16.78.64a1.34,1.34,0,0,0-1.18.62,1.51,1.51,0,0,0-3,.21c-.06,4.59-1.52,10.56,1.4,14.56A1.22,1.22,0,0,0,117.75,154.43Zm28,35.08a1.55,1.55,0,0,0-.47,0,39.38,39.38,0,0,1-17.52.23c-1-5.35-2.33-10.63-3.65-15.9-1.54-6.18-.59-12.59-2-18.78,9.94,1.2,19.9-.17,29.9-.53C149.8,166.13,150.47,178.61,145.74,189.51Zm-27.32-49a1.37,1.37,0,0,0,1.25.69c6-.06,12.06-.55,18.09-.66,5.67-.1,11.46,2.12,17.07,1.08a70.94,70.94,0,0,1-.55,10.09c-11.7.21-23.42,2.25-35,0C117.18,149,118.11,144.06,118.42,140.48Z"/><path class="cls-1" d="M129.81,169.18a3.19,3.19,0,0,0,.32,3,2.41,2.41,0,0,0,2.61.71,2.14,2.14,0,0,0,.66-.6,1.29,1.29,0,0,0,.9-.43c.77-.8,1.54-3.2,2.59-3.51,1.37-.42,3,.09,4.43-.18,3.33-.61,2.05-5,.23-6.48a7.12,7.12,0,0,0-8.34-.23c-2.42,1.62-3.26,4.79-3.37,7.64Z"/><path class="cls-1" d="M142.41,170.64a1.63,1.63,0,0,0-.8-.09,8.06,8.06,0,0,0-2.06.6h-.1a2.74,2.74,0,0,0-1.51.14h0a3,3,0,0,0-2.06,1.65,22.42,22.42,0,0,0-1.55,2.17,5.18,5.18,0,0,1-2.18.93c-1.76.3-1.21,2.77.38,2.91a5.7,5.7,0,0,0,4.9.61,7.2,7.2,0,0,0,2.83-1c2.22-1.26,3.57-3.81,4.23-6.18A1.51,1.51,0,0,0,142.41,170.64Z"/><path class="cls-1" d="M245.06,187.42c.76-2.77-2.92-4.36-4.8-5.22a1.82,1.82,0,0,0-.57-.14c-3.65-14-13.35-26.66-26.91-30.94a1.55,1.55,0,0,0,0-1.38c-2.22-4.76-2.53-10.82-9-11.26a7.1,7.1,0,0,0-6.76,3.26c-1.3,2.27-.75,5.14-1.81,7.5a1.55,1.55,0,0,0,.1,1.5c-6.36,2.14-11.23,7-15.47,12.7s-9.43,13.64-9,21.13l0,.07c-4.25-.2-7,3.57-1.78,6.28,3.48,1.8,8,1.64,11.82,1.63,6.4,0,12.76-1,19.16-1.05,12.3-.16,24.71.82,37-.07C239.44,191.25,244.25,190.35,245.06,187.42ZM203,141.5c4.75-.51,5.5,5.23,6.83,8.84a33.86,33.86,0,0,0-7.41-.78,23.28,23.28,0,0,0-4.34.45C199.22,146.53,198.37,142,203,141.5ZM182.43,165c5.76-8,12.69-12.73,22.83-12.34,15.94.61,27.27,15.11,31.31,29.41-10.45.15-20.85,1.17-31.28,1.79-5.53.33-11.06.71-16.6.87-4.42.12-10.35.76-14.89-.26C173.25,177.64,178.74,170.1,182.43,165Zm53,23.59c-2.92.2-5.87-.09-8.81.05-6.95.32-13.94.07-20.9,0-6.58-.11-13.07.3-19.63.76a85.93,85.93,0,0,1-8.64.2,28.87,28.87,0,0,1-5.4-.65c-1.4-.32-4.59-2.55.08-.91a1.24,1.24,0,0,0,1.54-.51c3.67.66,7.8.2,11.4.26,5.49.1,11-.34,16.45-.7,12.15-.81,24.33-1.93,36.5-2a1.69,1.69,0,0,0,.33,0,2,2,0,0,0,.6-.09,20.4,20.4,0,0,1,2,1C243.76,187.37,235.15,188.51,235.41,188.54Z"/><path class="cls-1" d="M166.27,112.15c2.65,11.7,14.32,13.43,24.47,12.77,3.69-.24,7.67.15,10.1-3.23,3.39-4.71,4.68-11.47,4.16-17.19-.44-4.83-3.76-7.86-8.13-9.39a10.41,10.41,0,0,0-6.86,0c-2.67,1-4.39,3.86-7.08,4.7-.16-4.57,1-9.08,4.83-12,1.53-1.15,0-3.76-1.51-2.6a15.1,15.1,0,0,0-4.79,6c-1.22-1.74-1.72-4-2.71-5.84A7.16,7.16,0,0,0,173,81.5a1.5,1.5,0,0,0-1.5,1.5c.07,4.81,2.48,14.26,8.74,12.21a22.32,22.32,0,0,0-.28,5.13C172.93,99.46,164.4,103.87,166.27,112.15Zm8.42-27c2.1,1.44,2.88,4.86,4.18,7.32C176.29,92.79,175.1,88.26,174.69,85.16Zm7.06,18.64a1.69,1.69,0,0,0,2.28-1.25,12.15,12.15,0,0,0,3.25-1.93c4.16-3.21,8.07-4.22,12.48-.6,5.7,4.68,1.8,21.27-5.78,21.8-6.55.45-13.28,1.12-19.21-2.27-4.14-2.38-7-8-4.76-12.47C172.07,103,177.93,102.16,181.75,103.8Z"/><path class="cls-1" d="M220.11,99.45a2,2,0,0,0,.49,0c.05,2.24.1,4.47.2,6.71.2,4.62-.08,10.14,2.11,14.37,1.37,2.63,4.64,3.22,7.28,3.45,6,.52,12.35,0,18.31-.47,5.73-.47,11.56-1,17.24-1.84a7.22,7.22,0,0,0,5.77-4c1.74-4.21,1-9.35.56-13.73-.24-2.32-.56-4.63-.87-6.94,4.57-.38,9.83-3.25,10-8.3.2-6.45-7-6.82-11.72-6.22-.37-2.79-.73-5.54-4.33-5.52a44.36,44.36,0,0,0-6.67,1c-4.64.77-9.91-.11-14.62-.12-5.88,0-12.42.26-18.1,2-3.65,1.1-5,3.25-5.26,6.3-4,.41-8,3.33-8.28,7.54S217,99,220.11,99.45Zm58.05-10.23c-.44,3.07-4.63,4.59-7.36,4.76-.37-2.86-.67-5.73-.76-8.63C273.17,84.92,278.81,84.68,278.16,89.22ZM225.05,83.3c1.85-1.2,4.63-1.47,6.75-1.74a109.21,109.21,0,0,1,14-.78c4.45,0,9,.63,13.47,0,2-.27,3.89-.71,5.87-.88,1.26-.11,1.67,5.11,1.92,6v0c.34,8.41,2.28,16.65,2.43,25.08.07,3.84-.42,6.84-4.55,7.77-4.72,1-9.92,1-14.74,1.54-4.54.49-9.08.63-13.65.68-3.92,0-10.07,1.18-11.69-3.46-1.55-4.43-1.05-10.4-1.21-15-.17-4.83-.15-9.66-.16-14.48a1.6,1.6,0,0,0-.08-.51C223.28,85.81,223.29,84.44,225.05,83.3Zm-4.54,5.76q0,3.72,0,7.44c-1.79-.24-4.7-.56-5.3-2.43C214.41,91.48,218.27,89.42,220.51,89.06Z"/><path class="cls-1" d="M114.64,226.79a1.45,1.45,0,0,0,.64.34c1.77.46,3.55,5.14,4.33,6.59,1.11,2.06,2.11,4.19,3.27,6.22,2,3.55,5.37,7.11,8,10.24.93,1.1,2.56,3.47,4.28,3.4,4.69-.16,4.38-9.68,4.53-12.83.19-4.14-.19-8.28.1-12.42.26-3.62.81-7.14.12-10.68a1.43,1.43,0,0,0,1.12-1.06,10.59,10.59,0,0,0,3.18-2.35,1.5,1.5,0,0,0,.23-1.81c-3.38-4.52-9.18-3.74-14.11-2.66-6.54,1.42-14.06,3.52-18.18,9.15C110,221.94,110.1,227.26,114.64,226.79Zm7.66,5.56-.22-.39a1.21,1.21,0,0,0,.54-.88,5.94,5.94,0,0,1,3.48-4.47,3,3,0,0,1,4.05,2.31c.26,2.45-4.4,5.27-6.41,3.7A1.61,1.61,0,0,0,122.3,232.35Zm14.34,9.59c-1.63-.59-2.94-1.56-2.06-3.54a9.72,9.72,0,0,1,2.15-3c0,.68,0,1.35,0,2C136.77,239,136.74,240.47,136.64,241.94Zm.32-15.12c-.15,1.58-.21,3.15-.23,4.72-2.34,1.83-4.74,4.16-5.38,7.16-.72,3.43,2.12,5.4,5,6.3-.15,1.1-.34,2.19-.6,3.29-.35,1.47.27,2.92-1.26,1.41a42.19,42.19,0,0,1-4.15-5.27c-2.17-3-4.12-5.67-5.95-8.59,4.15.54,9.21-2.83,8.75-7.23a6.11,6.11,0,0,0-6.63-5.19,8.55,8.55,0,0,0-6.23,5.09,14.18,14.18,0,0,0-2-2.9c2.06-1,3.91-2.51,5.9-3.73,3.39-2.09,8.47-3.44,12.8-4C137.58,220.86,137.25,223.83,137,226.82Zm-10-13c3.65-1.2,10.63-3.63,14.14-.75a11.33,11.33,0,0,1-3.28,1.64l-.25.11a50.24,50.24,0,0,0-12.25,3.29,21.91,21.91,0,0,0-4.56,2.36c-.48.33-7.46,4.77-7.1,2.33C114.47,217.1,122.51,215.3,126.92,213.85Z"/><path class="cls-1" d="M168.18,278A58.51,58.51,0,0,0,177,265.72c5.11-9.47,5.11-19.34-1.6-27.86-3.11-4-7.39-6.66-10.84-10.25-3.2-3.33-5.83-6.52-10.66-7-4-.4-7.72,5.12-5.79,7.46-.21,6.47-2.49,11.7-4.5,17.74-1,3-3.21,13.82-7.13,14.1s-9.19-6.84-11.53-9.35c-3.38-3.62-9.09-7.38-10.37-12.28a1.34,1.34,0,0,0-1.24-1.06h0c-4.26-6.7-10.26,1-12.36,5.69-3.74,8.3-3.36,17.78-.1,26.15,7.34,18.9,34.29,27.75,52.42,19.77a44,44,0,0,0,11.41-7.49A6.68,6.68,0,0,0,168.18,278Zm-16.84-53.27a4.4,4.4,0,0,1,5.53-.25,14.69,14.69,0,0,1,3.77,3.27c2.19,2.27,4.41,4.32,6.8,6.38,5.79,5,10.93,10.94,10.4,19-.46,7.12-4.12,14.37-9.35,20.43a6.62,6.62,0,0,0-.26-.64,7.49,7.49,0,0,0-2.11-2.63,32.29,32.29,0,0,0,5.29-13.59c1.73-13-7.77-25.29-19.34-30.08a1.35,1.35,0,0,0-1.13-.54C151.07,225.64,151.21,225.17,151.34,224.71Zm12.22,53.84a2.5,2.5,0,0,1-.38.15,3.68,3.68,0,0,1-3.7-1,35.34,35.34,0,0,0,4.87-5,4.8,4.8,0,0,1,.81.87,3,3,0,0,1,.23,3.27C164.79,277.44,164.18,278,163.56,278.55Zm-1.68-9.95a13.05,13.05,0,0,1,1-3.53c.94-2.13,2.54-4.43,4.92-4.82A25.75,25.75,0,0,1,163.6,269,8.49,8.49,0,0,0,161.88,268.6ZM160,273l0,0c-.29.28-.6.55-.9.82A4.67,4.67,0,0,1,160,273Zm5.84-29.76a6.58,6.58,0,0,1-5.88-2.66c-1.37-2-1.69-4.53-1.75-6.88A28.37,28.37,0,0,1,165.82,243.25Zm-19.14,3.33.25-.1c3.11-1.59,6.43,3.55,3.93,5.91-1.56,1.48-4.89,1.28-5.18-1.21a1.61,1.61,0,0,0-.36-.84C145.77,249.08,146.22,247.83,146.68,246.58Zm-28.15,1.92c1.52,1.42,3,2.79,4.34,4.18.87.94,1.8,2,2.79,3-1.92,2.56-4.93,3.19-7.48.94C115.41,254.23,117,251.13,118.53,248.5Zm-6-7.25a20,20,0,0,0,3.78,5.1c-1.21,2-2.57,4.09-2.68,6.41a7.8,7.8,0,0,0,3.21,6.7c3.75,2.81,8.12,1.71,10.9-1.59,2.57,2.47,5.47,4.61,8.76,5,3.66.49,6-4.66,7.46-8.65,2.23,2.65,6.71,2.75,9.41-.16,3.88-4.17-.57-10.88-5.53-10.82a53.66,53.66,0,0,0,3.23-13.8,27.9,27.9,0,0,1,4.71,2.5,1.32,1.32,0,0,0-.62,1.2c0,3.34.56,6.93,2.69,9.63,2.26,2.87,5.68,3.71,9.2,3.38a26.48,26.48,0,0,1,1.48,7.69,21.41,21.41,0,0,1-.14,3.31c-4.56.05-7.37,4.22-8.79,8.13a14.54,14.54,0,0,0-.79,3.66l-.22.07a1.64,1.64,0,0,0-.94,2,6,6,0,0,0-2.06,5.57,35.12,35.12,0,0,1-10,4.83,30.51,30.51,0,0,1-15.68.12c4.08-3.95,2.14-9.52-2.48-12.08a7.78,7.78,0,0,0-6.88-.56c-2.31,1.06-3.32,3.32-3.72,5.68-.53-.5-1-1-1.53-1.58C108.14,264.88,105.39,250.08,112.55,241.25Zm14.61,39.53a29.68,29.68,0,0,1-7.93-4.15,1.5,1.5,0,0,0,.45-.95c.38-3.84,3.14-5.3,6.5-3.44,3,1.66,4.13,4.91,1.44,7.38A1.31,1.31,0,0,0,127.16,280.78Zm19.18,7c-14.7,3.24-33.13-3.08-40.89-16.18A31.42,31.42,0,0,1,101.89,250c.48-2.54,5.36-16,8.85-11.27-8.42,9.41-5.81,24.11.62,34,7.09,11,21.5,14,33.67,11.9a30.39,30.39,0,0,0,12-5.1,6.77,6.77,0,0,0,2.87,1.86A37.89,37.89,0,0,1,146.34,287.81Z"/><path class="cls-1" d="M231.63,217.15c-13.43-7.9-20,9.55-21.75,21.54-2.34-4.49-6.25-8.54-9.22-3.08-1.58,2.9-.8,7.36-.33,10.42.93,6,4.1,11.44,8,16l0,0c-1.84,2.64-2.55,5.42-.26,8.06,3,3.41,9,2.13,12.84,2.1,2.6,0,10.4,1,12-2.15,1.26-2.47-.85-4.87-1.92-7.09a1.56,1.56,0,0,0,.17-.25C236.38,250.51,247.11,226.24,231.63,217.15Zm-2,51.54a21.73,21.73,0,0,1-5.87.49c-4,.1-18.3,1.83-12.57-6a2,2,0,0,0,.14-.23c5.64.13,11.24.8,16.88.94.49,1.09,1,2.15,1.62,3.2C230.27,268,230.76,268.33,229.61,268.69Zm-.92-7.77c-6.08-.12-12.13-.89-18.21-1l0-.07a31.09,31.09,0,0,1-7.56-17.44,17.91,17.91,0,0,1,.26-4.85c.73-3.79,4.25,2,4.39,2.3a12.48,12.48,0,0,1,1.35,4.55,1.59,1.59,0,0,0,1.69,1.44,1.34,1.34,0,0,0,1.61-.68c.17-.33.33-.67.5-1a1.49,1.49,0,0,0-.22-1.7c.67-10.31,5.58-29.86,18.58-22.22,6.89,4,5.7,14.23,4.39,20.75C234,247.89,231.43,254.5,228.69,260.92Z"/><path class="cls-1" d="M187.37,339.16a6.15,6.15,0,0,0-1.31,2.94,1.53,1.53,0,0,0,1.44,1.9c6.7.37,13.32-.9,20-1a1.53,1.53,0,0,0,1.45-1.9,6.7,6.7,0,0,0-1.31-3.15c3.44-.57,6.54-3.32,8.86-5.73,4.65-4.82,5-13,5-19.22a1.42,1.42,0,0,0-1.63-1.44,1.43,1.43,0,0,0-1.37-1.06,31.79,31.79,0,0,0-8.83,1.07,61.27,61.27,0,0,1-12,1.34c-7.54.26-15.12.09-22.67.09a1.75,1.75,0,0,0-.4.05,1.48,1.48,0,0,0-1.6,1.45c-.16,5.81-1.56,11.29,2.21,16.26C178.27,334.79,182.7,337.38,187.37,339.16ZM175.93,316c7.24,0,14.5.08,21.74-.09,7-.16,14-2.73,20.83-2.41-.06,4.67-.42,9.27-2.28,13.63-1.37,3.21-6.4,8.61-10.32,7.92a1.5,1.5,0,0,0-1.31.38c-1.26-.14-2.15,1.89-.84,2.86a4.5,4.5,0,0,1,1.81,1.78c-5.3.23-10.57,1-15.88,1a4.39,4.39,0,0,1,.88-1,1,1,0,0,0,.17-.21,1.57,1.57,0,0,0-.33-2.8,28.47,28.47,0,0,1-12-7.05C174.58,326,175.59,321,175.93,316Z"/><path class="cls-1" d="M199.06,285.06c1.45-1.29-.68-3.4-2.12-2.12-2.68,2.38-4.57,5.37-4.64,9-.1,5,6.35,7.25,1.64,12a1.5,1.5,0,0,0,2.12,2.12c2.16-2.17,3.59-4.39,2.52-7.46a29.92,29.92,0,0,0-2.46-4.38C194.16,290.72,196.46,287.37,199.06,285.06Z"/><path class="cls-1" d="M188.26,288.79c1.54-1.13.05-3.74-1.51-2.58-2.77,2-3.62,4.61-3,8,.45,2.27,4.05,7.63.83,8.88-1.79.7-1,3.6.79,2.9C194.39,302.45,182.25,293.24,188.26,288.79Z"/><path class="cls-1" d="M206.44,286.94c-2.32,2.35-4.18,4.6-3.94,8.06.26,3.65,4.33,5.64.94,8.94-1.38,1.35.74,3.47,2.12,2.12,1.77-1.72,2.92-3.47,2.31-6a16.51,16.51,0,0,0-1.7-3.45c-1.63-3.14.24-5.4,2.39-7.57A1.5,1.5,0,0,0,206.44,286.94Z"/><path class="cls-1" d="M191.75,329.79c3.64,1.67,9.61.76,12.39-2.16a4.22,4.22,0,0,0,1-4.4c-.78-1.88-2.78-2.38-4.65-2.23a1.53,1.53,0,0,0-1-.5,14,14,0,0,0-9.06,2.62C187.41,325.4,188.68,328.39,191.75,329.79Zm.06-3.92a6.47,6.47,0,0,1,2.32-1.4,11.78,11.78,0,0,1,5.2-1,1.2,1.2,0,0,0,1.17.51c3.49-.29,1.11,2.21-.7,2.86-2.43.88-5.5,1.08-7.76-.3C191.5,326.24,191.46,326.27,191.81,325.87Z"/><path class="cls-1" d="M153.06,332.44A1.45,1.45,0,0,0,152,332c-3.69-11.29-12.85-18.64-25-19-12-.41-24.41,8.62-24.93,21a1.47,1.47,0,0,0,.1.62,1.58,1.58,0,0,0,.17,1.22c-1.14,2.94-2.37,6.72.25,9.2a3.77,3.77,0,0,0-.2,3.52,1.27,1.27,0,0,0-.26,1.34c1.08,3.31,1.12,7.51,4.85,9.05,6.17,2.56,13.26.85,19.75,1.34s13.79.72,20.12-1.52c4-1.41,5.64-5,6.67-8.87a1.42,1.42,0,0,0-1-1.79,7.9,7.9,0,0,0,1.08-3.61,3.7,3.7,0,0,0,4.16-2.54C159.42,337.86,155.65,334.82,153.06,332.44ZM126.93,316c10.58-.15,18.63,6.91,22,16.37-6.8,3-14.55,2.7-21.83,2.66a80.47,80.47,0,0,1-9.93-.62c-4-.49-8.2.19-12.13-.59C105.61,322.75,116.71,316.13,126.93,316Zm16.88,40.57c-4.91,1.34-10.27,1.11-15.3.86-4.59-.23-9-.2-13.59-.08-2.64.06-6.71,0-8.39-2.58a10.47,10.47,0,0,1-1.13-3.68c5.15,2.28,14.58,2.34,17.81,2.4,6,.11,20.33,1.84,26.9-2.88A8.12,8.12,0,0,1,143.81,356.55Zm-17.27-6c-3.38-.12-6.75,0-10.11-.19-2.61-.14-14.14-.77-10.4-5.28,1.64-.79,3.39-2,5.09-.92,2.73,1.69,4.81,3.44,8.08,1.57,2.28-1.3,3-4.33,6.12-1a8.22,8.22,0,0,0,4.56,2.47,4.52,4.52,0,0,0,3.51-.9c2.67-1.72,4.12-2.07,7.11-.82a6.4,6.4,0,0,0,4.87.39c1.4-.63,3.39-3.2,5.14-2.84C151.12,352.87,132.58,350.79,126.54,350.58Zm24.61-10.81c-1.67-.48-3.83-.25-4.82,1.41-2.9,4.91-6.45-.84-9.91.19-4,1.17-5.87,4.58-9.73.49-1.17-1.24-3.42-2.49-5.2-1.82-3.12,1.16-4.24,5.21-7.93,2.27-1.47-1.17-3.34-2.21-5.3-1.61a16.16,16.16,0,0,0-3,1.16c-2.24,1.2-.89-3-.13-5,3.4.5,6.89.06,10.34.35,4.45.37,8.76.8,13.23.82,7.22,0,14.61-.08,21.34-2.9a1.54,1.54,0,0,0,1.73.14c1.52,1.31,2.93,2.47,3.21,4.75C155.28,342.71,151.41,339.84,151.15,339.77Z"/><path class="cls-1" d="M110,325c-1,0-1,3,0,3A1.5,1.5,0,0,0,110,325Z"/><path class="cls-1" d="M119,322a1.5,1.5,0,0,0,0-3A1.5,1.5,0,0,0,119,322Z"/><path class="cls-1" d="M117,328.5a1.5,1.5,0,0,0,0-3C116,325.5,116,328.5,117,328.5Z"/><path class="cls-1" d="M124,332.5a1.5,1.5,0,0,0,0-3C123,329.5,123,332.5,124,332.5Z"/><path class="cls-1" d="M125,325a1.5,1.5,0,0,0,0-3C124,322,124,325,125,325Z"/><path class="cls-1" d="M130,320.5a1.5,1.5,0,0,0,0-3C129,317.5,129,320.5,130,320.5Z"/><path class="cls-1" d="M132,328a1.5,1.5,0,0,0,0-3A1.5,1.5,0,0,0,132,328Z"/><path class="cls-1" d="M137,333a1.5,1.5,0,0,0,0-3A1.5,1.5,0,0,0,137,333Z"/><path class="cls-1" d="M140,326.5a1.5,1.5,0,0,0,0-3C139,323.5,139,326.5,140,326.5Z"/><path class="cls-1" d="M14.5,103a1.53,1.53,0,0,0,1.5-1.5c.14-1.17.37-2.33.5-3.5,0,0,0-.08,0-.13,6.37-.86,10.55-6.08,10.23-12.74C26.44,79,21.52,75,16,77.84c-.24-2.87-1.28-4.58-4.74-4.47-3.7.12-7.46.22-11.21.46v3.22l3.49-.18c2.17-.12,4.33-.32,6.51-.37S13,76.35,13,79a2.4,2.4,0,0,0,.06.4A1.43,1.43,0,0,0,14.5,81a1.46,1.46,0,0,0,.78-.21,1.32,1.32,0,0,0,1.48,0c4.19-2.51,6.8.58,7,4.83A8.66,8.66,0,0,1,15,95a1.54,1.54,0,0,0-1.25,2.32,1.58,1.58,0,0,0-.25.68c-.07.69-.18,1.38-.29,2.06-4.42.24-8.78,1-13.21,1.18v3.28C4.88,104.44,10.05,103.11,14.5,103Z"/><path class="cls-1" d="M15.9,92.45c2.69-.5,5.71-2.65,5.4-5.73a3.51,3.51,0,0,0-2.2-3,5.58,5.58,0,0,0-4.35.48,1.2,1.2,0,0,0-.7.66A1.4,1.4,0,0,0,13.5,86c0,2-.37,3.93.71,5.76A1.55,1.55,0,0,0,15.9,92.45Zm.56-5.73a2.57,2.57,0,0,1,1.7-.15s0,0,.07.11.09.15.09.48a2.23,2.23,0,0,1-.68,1.25,3.19,3.19,0,0,1-1.21.78A10.23,10.23,0,0,1,16.46,86.72Z"/><path class="cls-1" d="M3,68a14.12,14.12,0,0,0-1.35-6.66,12.26,12.26,0,0,1-1.25-5,34.25,34.25,0,0,1,1-5.45A1.59,1.59,0,0,0,0,49V67a6.41,6.41,0,0,1,0,1C-.13,69.93,2.87,69.92,3,68Z"/><path class="cls-1" d="M8.8,55.26C9.57,53.5,7,52,6.21,53.74a10.28,10.28,0,0,0-.65,6.8c.6,2.68,2.44,5.09.65,7.7-1.1,1.6,1.5,3.1,2.59,1.52C12.16,64.86,6.6,60.25,8.8,55.26Z"/><path class="cls-1" d="M155.8,374.74a1.38,1.38,0,0,0-2.05-.47,1.35,1.35,0,0,0-2-.56c-7.85,5-17,7.75-25.52,11.31-4,1.66-7.88,3.53-11.73,5.48s-8,5.56-12.5,6a1.62,1.62,0,0,0-1,2.7c0,.27.06.54.09.8h3.06c-.05-.29-.11-.58-.14-.87a18.67,18.67,0,0,0,3.68-1.42l0,.05a19.55,19.55,0,0,0,1.45,2.24h4a15.89,15.89,0,0,1-2.84-3.73l.53-.3c1.74-1,3.51-2,5.31-2.92a1.66,1.66,0,0,0,.06.21c.32.65.6,1.68,1,2.5a1.5,1.5,0,0,0,2.59-1.52c-.32-.65-.6-1.68-1-2.5l0,0q2.66-1.31,5.36-2.54c4.55-2.07,9.3-3.8,14-5.64a12.11,12.11,0,0,0,1.07,2.72,1.5,1.5,0,0,0,2,.53,1.53,1.53,0,0,0,.54-2.05,5.69,5.69,0,0,1-.8-2.24s0-.07,0-.11c.92-.37,1.83-.76,2.74-1.16a1.42,1.42,0,0,0,.21.33c.16.16.29.33.43.5l.1.13.32.42a15,15,0,0,0,1.15,1.45,1.5,1.5,0,0,0,2.12-2.12c-.15-.16-.28-.33-.42-.5l-.1-.13-.32-.42c-.23-.31-.46-.62-.71-.92.89-.43,1.78-.86,2.64-1.31,3.36,8.52-1.66,16.56-9.24,21.34H145c6.74-5.58,10.54-13.74,7-22.4a1.9,1.9,0,0,0-.22-.37c.51-.3,1-.6,1.51-.92,4.3,7.9,2.59,16.69-2.14,23.69h3.66C159.13,392.25,160.2,382.78,155.8,374.74Z"/><path class="cls-1" d="M127,393c0-1.93-3-1.94-3,0a6.48,6.48,0,0,0,1.94,4.56c1.36,1.39,3.48-.73,2.12-2.12A3.29,3.29,0,0,1,127,393Z"/><path class="cls-1" d="M134,389c-.06-1.93-3.06-1.94-3,0a9.19,9.19,0,0,0,1.21,3.76,1.5,1.5,0,0,0,2,.53,1.53,1.53,0,0,0,.54-2.05A5.69,5.69,0,0,1,134,389Z"/><path class="cls-1" d="M140.64,391.17l0,0a4.65,4.65,0,0,0-.56-.7,1.51,1.51,0,0,0-2.12,0,1.53,1.53,0,0,0,0,2.12c.16.17.36.52.61.83A2,2,0,0,0,140,394a1.5,1.5,0,0,0,1.5-1.5A1.44,1.44,0,0,0,140.64,391.17Z"/><path class="cls-1" d="M316.11,173.38c.77,6.13,6.78,15.52,13.66,15.87,9,.46,14.4-10.85,14.37-18.43a10.68,10.68,0,0,0-1.63-6.06c2-.93,4.16-2,5.42-3.69,1.72-2.3-.24-3.37-2.28-3.81a5.86,5.86,0,0,0-.2-4.16,1.56,1.56,0,0,0-1.84-1c-1.56.29-6,3.89-7,1.51-.69-1.73-1.12-3.42-2.86-4.35a1.5,1.5,0,0,0-1.82.23,50.11,50.11,0,0,0-3.33,4.49c-1.93-1.49-3.25-3.43-6.05-2.55a2.36,2.36,0,0,0-1.39,1.52c-.73,2.64-.92,3.09-4.17,3.1a1.51,1.51,0,0,0-1.29,2.26c1.24,1.72,2.43,3.79,4.15,5.09A12,12,0,0,0,316.11,173.38Zm3.63-14.47c1.63-.17,3.22-.67,4.06-2.15a3.08,3.08,0,0,0,.54-2.62c.32,1.06,2.88,2.59,3.91,3.15a1.53,1.53,0,0,0,2.05-.53c1-1.38,1.86-2.78,2.88-4.1,1.17,1.69.94,4.6,3.43,5.29,2,.56,3.91-1.07,5.78-2.16l-.18,2A1.52,1.52,0,0,0,343.5,160c1.16,0,2.32-.78.88.22a23.28,23.28,0,0,1-2,1.21c-.69.38-1.39.72-2.1,1.06-3.15-2.14-7.78-2.5-12.24-2.49a1.53,1.53,0,0,0-.79.22,10.4,10.4,0,0,0-4.66,1.2A6.26,6.26,0,0,1,319.74,158.91Zm3.08,5.54a1.43,1.43,0,0,0,.78-.51,7.27,7.27,0,0,1,5.51-.49,1.39,1.39,0,0,0,1.48-.46c2.69,0,5.39.19,7.4,1.49a1.65,1.65,0,0,0,1.59,1.47,7.53,7.53,0,0,1,1.24,2.54c1.89,6.58-2.48,14-8.07,17.22-5.11,2.89-10.12-4.49-12.09-8.14C318.39,173.37,319.25,167.14,322.82,164.45Z"/><path class="cls-1" d="M327,175v-2a1.5,1.5,0,0,0-3,0v2A1.5,1.5,0,0,0,327,175Z"/><path class="cls-1" d="M325.94,178.44a1.53,1.53,0,0,0,0,2.12l.27.27.12.14,0,0a2.09,2.09,0,0,1,.1.21.5.5,0,0,1,0,.13v.15A1.52,1.52,0,0,0,328,183a1.5,1.5,0,0,0,1.5-1.5,4.31,4.31,0,0,0-1.44-3.06A1.51,1.51,0,0,0,325.94,178.44Z"/><path class="cls-1" d="M331,178v3a1.5,1.5,0,0,0,3,0v-3A1.5,1.5,0,0,0,331,178Z"/><path class="cls-1" d="M337,175v-2a1.5,1.5,0,0,0-3,0v2C334,176,337,176,337,175Z"/><path class="cls-1" d="M330.25,173.79a1.51,1.51,0,0,0,2.05-.53,6.21,6.21,0,0,0,.7-2.76,1.5,1.5,0,0,0-3,0c0,.09,0,.39,0,.48a3.18,3.18,0,0,1-.26.76A1.52,1.52,0,0,0,330.25,173.79Z"/><path class="cls-1" d="M78.71,185.74c-4,8.2-1.9,20-7.59,27.22.89-4.89.63-10,.79-14.94.23-6.89-1-15.22,2.89-21.26,1-1.64-1.55-3.14-2.59-1.52-3.31,5.17-3.1,11.24-3.09,17.16,0,6.54.44,14.06-1,20.65-.7-4.27-1.1-8.63-1.89-12.87-1.06-5.68-3.44-11.43-2.24-17.28.39-1.89-2.5-2.69-2.89-.8-1.1,5.37.33,10.66,1.57,15.88,1.15,4.85,1.6,9.78,2.35,14.67-2.83-3.77-5.27-8.09-5.48-12.65-.08-1.93-3.08-1.94-3,0,.3,6.72,4.51,12.73,8.75,17.75A7.35,7.35,0,0,0,60,222.83c-1.66,4.75,1.44,10.49,2.21,15.12,1.69,10.11,1.56,21.69,8.21,30.11a1.47,1.47,0,0,0,1.46.39c3.36-1.21,4.36-4.94,5.13-8.1A99.25,99.25,0,0,0,79.3,244.9c.46-5.61,1.08-11.51.64-17.21a1.43,1.43,0,0,0-.26-2.44c-.06-.4-.1-.8-.16-1.19-.76-4.43-3.51-6.23-7.62-7.51h-.06c7.8-7.65,4.87-19.78,9.46-29.28C82.14,185.52,79.55,184,78.71,185.74Zm-2,40.08a14.33,14.33,0,0,1-4.17.68c-1.93,0-1.93,3,0,3a17.16,17.16,0,0,0,4.4-.66c0,.92.07,1.84.07,2.75a23.43,23.43,0,0,1-2.87.67c-.95.16-2.45.45-3.34-.06a1.5,1.5,0,0,0-1.51,2.6c2.14,1.21,5.25.64,7.67-.05-.08,2.78-.28,5.57-.48,8.35-.09,1.3-.19,2.66-.29,4.05a9.25,9.25,0,0,1-4.25-.1c-1.88-.44-2.68,2.46-.79,2.9a13.42,13.42,0,0,0,4.76.32c-.47,4.76-1.28,9.65-3.16,13.61-.95,2-3.1-2.76-4.2-6A24.23,24.23,0,0,0,71,258a1.5,1.5,0,0,0,0-3,7,7,0,0,1-3-.29,1,1,0,0,0-.32-.14A110.21,110.21,0,0,1,65.87,243a10.27,10.27,0,0,0,3.1.51,1.5,1.5,0,0,0,0-3,5.23,5.23,0,0,1-3.43-1.06l-.15-.11a59.08,59.08,0,0,0-1.46-7c-.14-.5-.28-1-.41-1.51a5.22,5.22,0,0,0,1,.17,1.5,1.5,0,0,0,0-3c.47,0,0,0-.16-.05l-.58-.17a6.42,6.42,0,0,0-.87-.19,13.55,13.55,0,0,1,0-4c.65-3.81,5.51-3.57,8.3-4.14C75.14,220.73,76.25,222.5,76.67,225.82Z"/><path class="cls-1" d="M34.74,95.25c-7.08,10.88,1.93,24.18,14,24.24a84.23,84.23,0,0,1,2,10.87c.73,4.63,2.54,8.9,2.74,13.64a1.45,1.45,0,0,0,.61,1.15c.63,2.72.35,5.51,1,8.25a1.5,1.5,0,0,0,1.44,1.1c3.93.2,7.58-1,11.38-1.8,4.88-1.08,9.9-.43,14.81-1.48a1.52,1.52,0,0,0,.42.23,11.33,11.33,0,0,0,9.65-1.65,1.52,1.52,0,0,0,.67-1.3,1.55,1.55,0,0,0,.07-.5c0-2.84-.46-5.66-.5-8.5a1.37,1.37,0,0,0-.51-1.11c-.06-8.49-.47-17-.74-25.46a1.57,1.57,0,0,0,.65,0c9.77-1.69,16.55-14.21,12.22-23.4-3.94-8.33-14.89-12.18-22.12-6.09-3.6-4.59-9.69-8.35-15.19-6.66C62.56,78.25,56.26,83,55.56,88.41,48.39,84.82,39.49,88,34.74,95.25Zm50,53.53a1.38,1.38,0,0,0-1.66-.73c-4.63,1.29-9.37,1.08-14.11,1.45-3.87.3-7.38,1.86-11.25,2-.31-2.18-.22-4.36-.61-6.53,11.08-.39,21.84-3.58,32.93-3.93.12,2.22.38,4.43.42,6.65A8.59,8.59,0,0,1,84.77,148.78ZM58.44,94.56c1.24,1.49,3.35-.64,2.12-2.12a16.32,16.32,0,0,0-2.06-2.09,1.36,1.36,0,0,0,0-.35c-.4-4.84,5.67-8.74,9.6-10.31,5.53-2.21,12.22,4.69,14.11,9.07.76,1.77,3.35.24,2.59-1.52-.18-.41-.39-.83-.61-1.24,5.58-5,13.77-2.07,17.35,4,4.46,7.61-1.82,18.55-9.88,20q-.14-4.52-.16-9a1.5,1.5,0,0,0-3,0c0,12.36.88,24.7,1,37.05-11.16.45-22,3.68-33.15,3.94A77.88,77.88,0,0,0,54,131.1c-1.25-4.84-1.16-9.77-3-14.5a1.61,1.61,0,0,0-2.93-.12c-10-.55-15.63-10.78-10.69-19.71A12.74,12.74,0,0,1,58.44,94.56Z"/><path class="cls-1" d="M64.56,131.4c.41,1.89,3.3,1.09,2.89-.8-2-9-3.47-18.12-6-27a1.5,1.5,0,0,0-2.89.8C61.08,113.28,62.59,122.39,64.56,131.4Z"/><path class="cls-1" d="M77.5,129.5a1.5,1.5,0,0,0,3,0,107,107,0,0,0-3-25.4c-.47-1.87-3.37-1.08-2.89.8A103,103,0,0,1,77.5,129.5Z"/><path class="cls-1" d="M128.55,64.69C125.34,67,125.24,72,123,75.12a20.13,20.13,0,0,0-3.5,16.73c1.1,5.33,4.62,9.71,7.92,13.86,1.47,1.84,5.29,7.38,8.42,6.33,1.43-.48,2.78-1.16,3.17-2.79.82-3.41,2.06-4.76,4.6-7.25,3.83-3.74,6.84-9.85,5.62-15.31a28,28,0,0,0-8.88-15.25c-2.46-2.2-4.44-5.61-7.42-7.1a.83.83,0,0,0,0-.15c-1.77-4.2,1-10.2,3.61-13.54,1.18-1.5-.92-3.64-2.12-2.12a26.89,26.89,0,0,0-2.91,4.62,46.25,46.25,0,0,0-2-5.93c-1-2.43-2.84-6.93-6.14-6.6-4.19.43-3.62,5.94-2.5,8.64,1.55,3.77,4.73,8.1,8.36,10.13l.24.1a11.35,11.35,0,0,0,.15,4.16A1.33,1.33,0,0,0,128.55,64.69Zm-3.68-14.17A13.33,13.33,0,0,1,123,46.09c-.13-.57,0-3.13,1.08-2.27,2,1.59,2.86,4.86,3.59,7.15a32.79,32.79,0,0,1,1.21,4.47A24.22,24.22,0,0,1,124.87,50.52Zm5.84,16.37a1.53,1.53,0,0,0,.21-.14c2.94.81,5.4,4.84,7.31,6.82,3.2,3.3,6,6.35,7.27,10.92,1.68,6.06.2,10.73-4,15.39-2.5,2.77-4.57,3.88-5.15,7.66-.61,4-6.91-4.1-7.52-4.87a32.92,32.92,0,0,1-6.43-11.62c-1.51-5.27.24-10.1,3.2-14.41a14.62,14.62,0,0,0,2.23-3.55C128.48,71.12,128.59,68,130.71,66.89Z"/><path class="cls-1" d="M162.56,44.06c1.42-1.81.43-4.53-.15-6.44-1.53-5.06-2-9.25,3.93-11.15,2.47,11.1,4.52,22.28,8.72,32.93a1.55,1.55,0,0,0,1.44,1.1,117.6,117.6,0,0,0,25.4-2,1.3,1.3,0,0,0,.87-.52A1.39,1.39,0,0,0,204,56.5c0-10.22.46-20.43.5-30.65,1.71-3.59,4.29-6.67,6.3-10.09a1.41,1.41,0,0,0-.5-2A1.34,1.34,0,0,0,209,13c-7.36.08-14.66,1-22,1.5-3.51.25-7.07.06-10.6.31s-6.84,2-10.4,1.69a2.26,2.26,0,0,0-.37,0c-11.9.31-14.94,13.91-11.48,23.46C155.44,43.5,159.19,48.35,162.56,44.06Zm11-25.79c3.66-1,7.93-.75,11.71-.77,7.27,0,14.51-1.19,21.78-1.44-1.85,2.85-3.94,5.56-5.35,8.67a1.52,1.52,0,0,0-.22.77c0,10-.43,20-.49,30.07a115.5,115.5,0,0,1-23.46,2c-4.68-12.31-6.63-25.3-9.76-38A29.76,29.76,0,0,0,173.58,18.27ZM155.82,30.05c.37-5.43,3.59-9.85,8.91-10.47.32,1.32.64,2.64,1,4h-.07c-9.15,2.88-7.33,9.62-5.46,17.19q-1.82,1.77-2.41-.17a14.13,14.13,0,0,1-1.35-3.38A20.19,20.19,0,0,1,155.82,30.05Z"/><path class="cls-1" d="M181,53.58c5.52,1.73,11.1-.06,16.23-2.28a1.17,1.17,0,0,0,.74-1.43V36.5a1.4,1.4,0,0,0-1.35-1.44,1.59,1.59,0,0,0-2.44.18c-3.39,4.89-6,.55-10.36.31a8.07,8.07,0,0,0-8.29,5.55,1.29,1.29,0,0,0,.43,1.5c-.13,3.68,1.51,6.83,2.57,10.3A1.54,1.54,0,0,0,181,53.58Z"/><path class="cls-1" d="M174.9,27.45A24.71,24.71,0,0,1,183.5,26a1.5,1.5,0,0,0,0-3,27.5,27.5,0,0,0-9.39,1.55C172.31,25.23,173.09,28.13,174.9,27.45Z"/><path class="cls-1" d="M179,29h-4c-1,0-1,3,0,3h4A1.5,1.5,0,0,0,179,29Z"/><path class="cls-1" d="M255,397a1.35,1.35,0,0,0-1-.54c1.06-2,3.05-5.9,5.17-3.77a29.75,29.75,0,0,0,3.9,3.54c1.58,1.12,3.08-1.48,1.51-2.59-3.23-2.28-5.39-7.07-9.55-3.64-2,1.61-3.33,4.3-4.58,6.59-4.91.48-9.68,2-14.45,3.4h11.55l.9-.15-.11.15h3.45c.11-.17.23-.33.34-.49.39,0,.78-.05,1.17-.05,0,.18,0,.36,0,.54h3c0-.52,0-1,0-1.55A1.45,1.45,0,0,0,255,397Z"/><path class="cls-1" d="M273.64,154.57c-3.49.76-6.39,1.42-7.25,5.32-2.59,11.72-1.9,24.56-1.9,36.48a1.37,1.37,0,0,0,.76,1.28,1.48,1.48,0,0,0,.84.67c9,2.91,18.24-.27,27.4.05a1,1,0,0,0,.3,0l.2,0c2.07,0,3,.29,4.24-1.33s1.18-4.89,1.21-6.92c.07-7.06-.58-14.29-.89-21.35-.18-4.32-.24-12.12-5.32-13.88-3.2-1.11-6,.38-6.34-3.87-.23-3,.36-5.72,0-8.58a1.3,1.3,0,0,1,.08-.17c1.37-3.84,1.74-10.39-3.09-11.92a6.32,6.32,0,0,0-6.88,2.79c-1.6,2.46-1.31,6-1,8.73.08.72.59,1.55,1.43,1.5C277.46,147.61,278.13,153.59,273.64,154.57Zm9.42-21.32c2.2.45,2,3.82,1.52,6.24a1.62,1.62,0,0,0-.73.39,31.36,31.36,0,0,0-3.88.29,1.54,1.54,0,0,0-1-.21l-.15-.05C278.65,136.71,279.08,132.42,283.06,133.25Zm-3.39,19.81c1.06-3.08.64-6.62.72-9.92a22.85,22.85,0,0,1,3.51-.26c.64,4.33-1.13,9.08,1.28,13,2.26,3.7,7.65-1,9.43,5.36s1.24,14.21,1.4,20.89c.05,2.24.31,4.48.4,6.72,0,1.22,0,2.43-.05,3.65-.13,2.45-.26,2.85-2.37,2.85a1.36,1.36,0,0,0-.29,0l-.21,0c-8.65-.3-17.51,2.71-26,.23,0-6.29,0-12.57.29-18.85.2-4.9-.88-17.77,5.43-19.07C276.48,157,278.54,156.37,279.67,153.06Z"/><path class="cls-1" d="M271.49,167.37c-.07,5.35-.93,10.65-1,16a1.48,1.48,0,0,0,2.23,1.27,1.82,1.82,0,0,0,.37.18c4.52,1.4,16.37,3.68,18.72-2.23a1.29,1.29,0,0,0,.63-1.62c-1.49-4.49-.61-9.38-1.5-14a1.3,1.3,0,0,0-1.77-1,1.5,1.5,0,0,0-.94.11c-4.25,1.84-9.55.51-14.09.31A1.54,1.54,0,0,0,271.49,167.37Zm2.94,2c4.61.19,9.38,1.14,13.83-.2.48,3.92,0,7.93,1.06,11.76a1.77,1.77,0,0,0-.28.51c-1.19,3.73-12.52,1.27-15.15.46a1.63,1.63,0,0,0-.36-.07C273.69,177.69,274.24,173.56,274.43,169.4Z"/><path class="cls-1" d="M90.69,292.65c-7.39,2.69-14.52,11-22.69,10.85a1.34,1.34,0,0,0-1.28.76,102,102,0,0,0-17.3,6c-6.36,2.7-12.8,6.41-19.92,6.26a1.34,1.34,0,0,0-1.12.5,1.64,1.64,0,0,0-1.17,2.26C31.42,328.59,33.57,346,47.64,343H48c8.27-.9,15.5-5.51,22.76-9.21a1.26,1.26,0,0,0,.74-.94c3.08-2.48,5.68-4.15,4.67-8.79a79.24,79.24,0,0,0-3.12-10.62,1.36,1.36,0,0,0,.75-.68c1.11-2.14,6.54-3.54,8.52-4.36,2.16-.89,4.3-1.79,6.39-2.83,3.91-1.95,9.55-4.35,11.18-8.76C101.81,291.61,93.25,291.71,90.69,292.65ZM72.58,328.14a54.07,54.07,0,0,1-4.44,3.64C61.77,335.11,55.25,339.21,48,340l-.21,0a1.74,1.74,0,0,0-.68,0c-11,2.55-13.52-12.29-16.6-20.56,5.73-.14,11-2.51,16.19-4.81,6.51-2.89,13.31-5.77,20.28-7.4,2.38,4.38,3.6,9.3,5.17,14C72.89,323.51,74.44,326.16,72.58,328.14Zm23.8-31.08a13.67,13.67,0,0,1-3.21,2.6,63.78,63.78,0,0,1-11.65,5.84c-2.73,1.13-7.58,2.32-9.71,4.86-.59-1.38-1.23-2.71-1.91-4,4.72-.64,9.2-3.71,13.17-6.06,2.53-1.5,5-3.11,7.62-4.42C91.4,295.54,99,293.72,96.38,297.06Z"/><path class="cls-1" d="M37.56,304.6c-.45,1.88,2.44,2.68,2.89.8a8.64,8.64,0,0,0-2.73-8.9c-2.16-2-6.1-3.58-4.77-7.1.69-1.81-2.21-2.59-2.89-.8C27.14,296.29,39.32,297.25,37.56,304.6Z"/><path class="cls-1" d="M37.06,278.1c-.89,4-.84,7.4,1.26,11,2.63,4.49,7.33,6.54,7.18,12.41,0,1.94,3,1.93,3,0a12.31,12.31,0,0,0-3.06-8.67c-3.76-4.67-6.95-7.4-5.49-13.93C40.37,277,37.48,276.21,37.06,278.1Z"/><path class="cls-1" d="M54.8,298.26c3.33-5.85-5.72-9.91-3.35-15.86.72-1.8-2.18-2.57-2.89-.8a8.75,8.75,0,0,0,.58,7.45c1,2.09,4.47,5.24,3.07,7.69A1.5,1.5,0,0,0,54.8,298.26Z"/><path class="cls-1" d="M73.74,381c2.42.15,6.91,1.31,7.91-1.55s.42-7.11.23-10.18c-.16-2.52-.11-5.32-2.09-7.12a3,3,0,0,0-4.6.4c-1.32,1.87-1.65,4.36-2.28,6.51-.07.25-.15.49-.24.73a5.42,5.42,0,0,1-.37-.56c-.8-1.34-.52-3.81-.89-5.36-.47-1.91-3.33-4.3-5.15-2.44a3,3,0,0,0-2.35-2c-3.86-.78-4.37,4.37-4.81,8.11a1.49,1.49,0,0,0-.07.57,11.7,11.7,0,0,1-.47,2.44,1.2,1.2,0,0,0,.38,1.48c-.44,2.77-1.18,5.7.94,7.82a3.41,3.41,0,0,0,2.12.85c3.54.35,3.42,4.54,3.45,7.2,0,4.05-.35,8-.31,12.05h3.13c.15-6,1-12.38-.52-17.91a6.25,6.25,0,0,0-4-4.12c-2.72-1-2.48-2.66-1.82-5.57a10.45,10.45,0,0,0,.19-4l.09-.77c.13-1,.25-2.05.43-3.07.11-.6.5-2.91.91-1.53.89,3-.37,6.41,1.2,9.23a1.51,1.51,0,0,0,2.74-.36,13.32,13.32,0,0,0,.22-2.75c0-.84,0-1.68,0-2.52,0-.19.43-3.08.82-2,.79,2.23.28,4.55,1.53,6.63,1.76,3,4.34,2.33,5.49-.6.65-1.66.94-3.46,1.5-5.15.89-2.67,1.46-.12,1.65,1.49a61.84,61.84,0,0,1,.35,8.71c0,.66-.06,1.31-.11,2-.1,1.27-.19.51-.14.5A44.4,44.4,0,0,1,73.5,378a1.37,1.37,0,0,0-.62.11,1.33,1.33,0,0,0-1.82,1c-1.54,7,.35,13.93.43,20.9h3.09C74.52,393.61,72.69,387.42,73.74,381Z"/><path class="cls-1" d="M46.84,386.53c2.09.18,5,.71,6.24-1.45,1.7-2.88,1-6.21.9-9.4-.17-7.36-3.43-14.64-10.22-18a1.59,1.59,0,0,0-2.25,1.69,1.38,1.38,0,0,0-.51,1.1c-.1,11.42-1.79,22.7-2.87,34-.17,1.82-.29,3.64-.4,5.46h3.1c.4-4.52.87-9,1.34-13.54l1.6.28A81.41,81.41,0,0,0,43,400h3.26C46.27,395.48,46,390.92,46.84,386.53ZM45.36,384l-2.46-.42a2.08,2.08,0,0,0-.43,0c.76-7.4,1.41-14.81,1.52-22.24,3.7,2.48,5.57,6.26,6.57,10.75a48.89,48.89,0,0,1,.56,7c.24,3.26-1.45,4.64-4.62,4.41A1.25,1.25,0,0,0,45.36,384Z"/><path class="cls-1" d="M303,313v0a1.24,1.24,0,0,0-.05-.86c-1.52-3.94-.82-10-5.86-11.6-2.51-.8-5-.56-7.59-.5-4.79.11-9.57,0-14.37.3a199.61,199.61,0,0,0-24.86,2.88c-5.54,1-7.42,4.55-9.21,9.42a1.34,1.34,0,0,0-.07.75,9.86,9.86,0,0,0-.49,3.15,1.47,1.47,0,0,0,.48,1.09c-.18,8.58-.6,16.55.84,25.12.87,5.21-.34,11,6.29,12.24,4.24.79,8.79.38,13.07.12,4.88-.31,9.8-.39,14.67-.78,4.54-.36,9-1.37,13.52-1.59a27.74,27.74,0,0,0,7.45-1.15,1.29,1.29,0,0,0,.94-.26l.24-.17c.25-.1.51-.21.76-.33a1.25,1.25,0,0,0,.75-.9c3.59-3.28,4.67-7.36,4.5-12.55C303.75,329.23,303.08,321.13,303,313Zm-59.05.9a1.47,1.47,0,0,0,.05-.65,27.58,27.58,0,0,1,1.92-4.43c1.77-3,7-3.11,9.93-3.48,5.8-.72,11.67-1.41,17.48-1.92s11.66-.32,17.49-.45c3.37-.07,6.83-.23,7.9,4,.41,1.63.55,3.27,1,4.88-3.89.84-7.85.7-11.83.62-4.76-.09-9.49.52-14.23.86-9.94.72-19.94,1.05-29.89,1.55Zm52.56,34.6c-3.21,1.26-6.73,1.16-10.12,1.37s-7,1-10.54,1.42a204.7,204.7,0,0,1-22,1c-4.67,0-8.46-.45-8.8-5.91a67.92,67.92,0,0,0-.88-7.77c-1.23-7-.41-13.79-.19-20.76q14.85-.78,29.71-1.53c5.26-.26,10.42-.93,15.69-.83a48.73,48.73,0,0,0,10.67-.65c.08,5.64.28,11.31.58,16.93C300.93,338.1,302.24,344.26,296.51,348.5Z"/><path class="cls-1" d="M253,308.5a1.5,1.5,0,0,0,0,3A1.5,1.5,0,0,0,253,308.5Z"/><path class="cls-1" d="M260,308a1.5,1.5,0,0,0,0,3A1.5,1.5,0,0,0,260,308Z"/><path class="cls-1" d="M268,307a1.5,1.5,0,0,0,0,3A1.5,1.5,0,0,0,268,307Z"/><path class="cls-1" d="M276,309.5a1.5,1.5,0,0,0,0-3C275,306.5,275,309.5,276,309.5Z"/><path class="cls-1" d="M294.22,324.75c-2.42-4.14-10.49-2.25-14.3-2.08-8.44.37-16.86.61-25.23,1.81a1.17,1.17,0,0,0-1.19-.48c-7.26.94-3.71,14.64-2,18.75,1.56,3.78,4.8,4.1,8.6,3.82a56.94,56.94,0,0,0,8.2-1.53c4.24-1,8.5-.55,12.81-.38s12.34.35,13.92-5a15.72,15.72,0,0,0,.25-6.55C295,330.46,295.64,327.18,294.22,324.75ZM279.4,341.59a46,46,0,0,0-11.9.56c-2.67.57-10.63,3.42-12.65.6-1.28-1.77-4.72-15.31-1.35-15.75h0a1.53,1.53,0,0,0,1.36.46c10.5-1.55,21.19-1.68,31.78-2.06,6.11-.21,5.42,5.4,5.82,9.9C293.16,342.63,284.52,341.79,279.4,341.59Z"/><path class="cls-1" d="M252.8,283.24c-.74-1.41-2.7-.64-2.8.76-.28,4.21-8.12,13.27.11,14.95a1.47,1.47,0,0,0,1.34-.38c3.92.55,8.21.56,11.11-2.51,3.63-3.84-1.86-8.71-3.76-11.82a1.51,1.51,0,0,0-2.74.36,12.35,12.35,0,0,1-1.19,2.58C254.25,285.85,253.5,284.57,252.8,283.24Zm3,8a36.79,36.79,0,0,0,2.06-3.35c1.73,2.13,3.74,4.8,2.12,6.52-2,2.1-6.06,1.53-8.58,1.12a1.55,1.55,0,0,0-1.16.27c-1.87-1-.24-4,.47-5.61.35-.79.76-1.59,1.14-2.41a14.57,14.57,0,0,1,1.21,3.1A1.52,1.52,0,0,0,255.8,291.26Z"/><path class="cls-1" d="M277.6,295.45a1.75,1.75,0,0,0,.4.05c3.3,0,7.38.57,9.75-2.09,3.1-3.47-.42-7.74-2.69-10.47a1.51,1.51,0,0,0-2.35.3,6.93,6.93,0,0,1-2.37,2.5,28.61,28.61,0,0,1-1.89-4.14,1.51,1.51,0,0,0-2.89,0c-1,2.74-4.34,3.57-4.77,6.72-.51,3.7,2.77,6,5.82,7.13A1.3,1.3,0,0,0,277.6,295.45Zm-2.72-8.51c.65-.65,1.28-1.22,1.85-1.83.46.92.95,1.82,1.33,2.79a1.51,1.51,0,0,0,1.44,1.1,6.76,6.76,0,0,0,4.53-2.57c1.52,2,3.39,5.21.27,5.81a34,34,0,0,1-6.3.26,1.72,1.72,0,0,0-.52.09l-.08,0C274.82,291.58,272.42,289.37,274.88,286.94Z"/><path class="cls-1" d="M268.11,329.55c-3.24.55-6.89-.06-9.94,1.36-3.54,1.64-2.78,5.4-1.46,8.35.79,1.76,3.38.23,2.59-1.52-.44-1-1.17-2.49-.61-3.55.42-.79,1.85-.93,2.62-1.06,2.5-.44,5.08-.26,7.59-.68C270.81,332.13,270,329.24,268.11,329.55Z"/><path class="cls-1" d="M318.28,247.94a17,17,0,0,0-7.89-16.24,17.69,17.69,0,0,1,1.95-1.34c2.58-1.52,5.62-1.09,8.17-2.34,1.56-.76.9-3.55.14-4.59s-3.3-1-4.57-1.48c-.78-.27-1.42-3.92-2.18-4.74a3.18,3.18,0,0,0-4.83.11c-1.73,2.41-1,5.7-2.79,8.08a7.14,7.14,0,0,1-.72.83c-1.38-3.57-6.33-4.73-9.74-5.54-5.64-1.33-12.08-2.14-17.85-1.31-14.39,2.08-24.93,16.73-19.45,31.17,2.6,6.84,11.67,9.63,18.23,10.26,8.65.82,17.79,1,26.32-.86C308.87,258.66,317.38,254.63,318.28,247.94Zm-8.2-23.64a20,20,0,0,0,.59-2.87c.28-1.56,2.1-2.33,1.69-.19-.29,1.5.8,2.62,2,3.27a7.24,7.24,0,0,0,4,1c.57,0-1.07.15-1.32.17a18,18,0,0,0-3.3.84c-3.65,1.08-6.38,3.63-8.94,6.32a3,3,0,0,0-.87-1.56,2,2,0,0,0-.28-.2C306.35,229.35,308.94,227.69,310.08,224.3Zm5,24.26c-1.69,6.49-12.26,8.67-17.75,9.36a88,88,0,0,1-15.4.17c-7.36-.36-17.85-1.36-20.9-9.41-2-5.28-.28-12.36,2.33-17.12,2.89-5.3,8.44-8,14.14-9.1,4.34-.83,9-.25,13.38.36,2.54.36,11.65,1.29,12.05,4.77a1.51,1.51,0,0,0,.18.59c-1.34.88-2.8,1.66-4.09,2.56-2.12.35-4.31,1-5.52,1.2-4.18.61-8.69,1.23-11.69,4.48-3.35,3.62-4.09,12.79,1.37,14.39,4.39,4.74,12.93,2.91,17.61-.59,3.07-2.3,3.25-7.08,3.48-10.55.05-.74.25-1.7.43-2.71a1.48,1.48,0,0,0,.79-.46c.86-.9,1.7-1.81,2.57-2.68l.11.07C313.2,236.38,316.51,243.05,315.06,248.56Zm-13.25-14c-.57,4.06.29,10.95-3.3,13.64-3,2.23-9.58,3.9-12.73,1.1a1.6,1.6,0,0,0-1.46-1.23c-3-.18-2.07-5.1-1.67-6.72.81-3.28,3.09-4.59,6.13-5.45a68.85,68.85,0,0,1,8.82-1.51,7.67,7.67,0,0,0,1-.24,1.53,1.53,0,0,0,1.29-.35C301,233.51,302,233.47,301.81,234.53Z"/><path class="cls-1" d="M4.87,267.78c4.43,2.85,8.05.11,10.65-3.54,2.09-2.92,2-7.4,2.87-10.76,1.18-4.5,5.55-7.12,8.55-10.33C37,232.42,25.27,214.78,12,215.5a1.46,1.46,0,0,0-1,.41A15,15,0,0,0,0,219.5v4.14A13.43,13.43,0,0,1,12,219a1.14,1.14,0,0,0,1.21-.51c5.94.24,10.69,4.57,13.36,9.72,3.56,6.89-1.14,12.44-5.95,16.82-4.05,3.7-5.31,7.84-6.25,13.12-.5,2.88-1.54,5.81-4.11,7.47-2.16,1.4-4.85-1-6.29-2.33a34.52,34.52,0,0,1-4-4.46v4.84A26.65,26.65,0,0,0,4.87,267.78Z"/><path class="cls-1" d="M6.93,252.68c4.15-4.63,1.7-12.83,3.73-18.32,1.81-4.91,3.82-12.38-4-11.31l-.15,0a1.34,1.34,0,0,0-1.52.35A35.49,35.49,0,0,0,0,229.85v7.21a27.51,27.51,0,0,1,6.74-11.15,1.8,1.8,0,0,0,.66,0c4.39-.6-.07,8.44-.46,10.19-.82,3.59-.38,7.44-1,11.08-.43,2.53-2.57,6.44-5.07,2.77A6.85,6.85,0,0,1,0,248.07v5.08C1.94,254.93,4.46,255.43,6.93,252.68Z"/><path class="cls-1" d="M21.36,238.84c5.27-3.21,1.49-15.09-5.11-12.14a1.19,1.19,0,0,0-.76,1.36C10.36,231.24,15.12,242.65,21.36,238.84Zm-4-8.39a1.41,1.41,0,0,0,1-1.31c2.32-.09,2.55,5.45,1.67,6.84-1,1.62-2.73-.11-3.26-1.12S15.8,231,17.4,230.45Z"/><path class="cls-1" d="M12.17,203.06c5.14-3,6.82-10,8.17-15.27,2.1-8.24,4.25-16.7,5.15-25.16a1.64,1.64,0,0,0,.31-.37c6.83-11.5-.91-23.43-14.12-22.13A18.31,18.31,0,0,0,0,145.75v6.15a14.35,14.35,0,0,1,2.36-4.41c2.94-3.33,7.84-4.36,12.05-4.55,10.16-.46,13.19,10.07,8.93,17.56-7.12.08-14.22.88-21.34,1a1.32,1.32,0,0,0-.74-1.29A3.6,3.6,0,0,1,0,159.08v10.15c1.25,7.87,4.47,15.23,6.41,23C6.86,194.06,7.68,205.65,12.17,203.06ZM9.75,183.83c.95-1.58,1.88-3.17,2.77-4.78a22.64,22.64,0,0,0,3.28,3.5c-1.12,1.58-2.28,3.13-3.39,4.71C11.48,186.17,10.64,185,9.75,183.83Zm4,13.43c.22-.39-2.29,3.27-2.6,2.49a17.75,17.75,0,0,1-.7-3.07s0,0,0-.06a1.5,1.5,0,0,0,.54-.72,25.71,25.71,0,0,1,2-4,11,11,0,0,0,2.35,1.42l.26.08A27.7,27.7,0,0,1,13.72,197.26Zm2.74-6.7a10.73,10.73,0,0,1-2-1.23c1.13-1.65,2.35-3.26,3.54-4.88C17.55,186.5,17.06,188.55,16.46,190.56Zm2.92-26.94c1,0,2-.08,3-.1-.35,3-.88,6.09-1.5,9.12A28.47,28.47,0,0,1,17.44,169C18.16,167.21,18.82,165.43,19.38,163.62Zm.7,12.16a1.44,1.44,0,0,0-.37.46,36.63,36.63,0,0,1-2.22,3.85A22.72,22.72,0,0,1,14,176.33c.76-1.47,1.51-3,2.2-4.46A23.65,23.65,0,0,0,20.08,175.78Zm-9.64-9.84a19.51,19.51,0,0,1,3.6,3.37c-.63,1.44-1.31,2.86-2,4.26-1-1.56-2.07-3.16-3.17-4.68C9.36,167.89,9.88,166.91,10.44,165.94Zm-7.77.54a18.62,18.62,0,0,1,2.73,2.59c-.55,1.12-1.1,2.24-1.69,3.35m1.06,3.87a1.41,1.41,0,0,0,.53-.53c.77-1.33,1.47-2.71,2.15-4.08,1.08,1.51,2.09,3.1,3.14,4.66-.93,1.72-1.91,3.42-2.91,5.1a11.91,11.91,0,0,0-1.12-1,1.65,1.65,0,0,0-.57-.3C5.57,178.86,5.16,177.58,4.77,176.29Z"/><path class="cls-1" d="M315,130a43.74,43.74,0,0,0,17.69-10.54c5.32-5.18,13.73-12.22,13.76-20.34,0-3.67-3.45-5.93-6.66-6.6-5.89-1.24-12.36,2.85-17.75,4.6a1.44,1.44,0,0,0-1,1h0c-5.72,1.87-10.65,5.5-15.16,9.39a1.37,1.37,0,0,0-.43.62,2.39,2.39,0,0,0-1,2.48c-4,4.86-8.63,14.15-4,19.28C303.62,133.4,311.25,131,315,130Zm15-29.67a4.44,4.44,0,0,1,2.53,5.08,8.31,8.31,0,0,0-2.82-3.13,36.45,36.45,0,0,0-5.75-2.06A7.06,7.06,0,0,1,329.93,100.29Zm-19.68,8.6a16.63,16.63,0,0,1,4.19-.76c3.29-.17,4.95,2.47,5.38,5.32-3.62-1.78-7.5-2.7-11.43-3.83A11.4,11.4,0,0,1,310.25,108.89Zm-3.51,3.57a1.89,1.89,0,0,0,.36-.16,1.76,1.76,0,0,0,.39.18c4.56,1.33,9.07,2.26,13.14,4.85a1.52,1.52,0,0,0,2.26-1.3c.62-6-3.11-11.27-9.33-10.83a34.93,34.93,0,0,1,6.35-3.53l.22.16a34,34,0,0,0,6.22,2.19c2.81.89,3.66,3.56,5.48,5.57a1.5,1.5,0,0,0,2.35-.3c2.22-4,1.86-8.33-2-11.13a8.06,8.06,0,0,0-1.72-1c6.52-2.1,14.2-3.45,12.72,3.68-1.27,6.07-7.54,11.4-11.8,15.54-7,6.81-16.06,11.8-26,12.1C297.45,128.77,303.61,116.6,306.74,112.46Z"/><path class="cls-1" d="M34.33,59.53a1.81,1.81,0,0,0,.34-.29,9.8,9.8,0,0,1,2.17-2,1.4,1.4,0,0,0,.3-.23,1.45,1.45,0,0,0,.57-.41C42.43,51.18,46.24,45,51.32,39.92a1.38,1.38,0,0,0,.35-.55,1.44,1.44,0,0,0-.13-2.54c-4.67-2-8.8-11.91-15.13-7.7-1.29.86-2.39,2.1-3.6,3.06-2,1.55-4.7-1.28-6.26-2.47C24.28,28,22.07,26,19.91,24.14S18.56,20,18.32,17.65A1.51,1.51,0,0,0,16,16.47c-2.71,1.79-4.28,4.48-6.31,7a1.22,1.22,0,0,0-.2.32,6.52,6.52,0,0,0-3.12,4.44,1.46,1.46,0,0,0,1.78,1.72,1.45,1.45,0,0,0,1-.19c3.55-2,6.51,3.82,8.68,5.63,2.88,2.4,9.79,5.26,6.26,9.58-5.5,6.74,3.15,10.77,8,14.92A1.48,1.48,0,0,0,34.33,59.53ZM25.22,50c-1.16-1.39,1.74-3.6,2.33-4.69,1.58-2.92.54-5.2-1.65-7.43a53.88,53.88,0,0,0-6.09-4.73C18.36,32,17.28,30.35,16,29a7.83,7.83,0,0,0-5.07-2.69,1.79,1.79,0,0,1,.24-.12,1.69,1.69,0,0,0,1-1.09c1.14-1.44,2.16-3,3.4-4.34a8.7,8.7,0,0,0,2.34,5.58c2.14,2.5,5.53,4.74,8.14,6.73.94.72,3.24,2.72,4.73,3,2.52.43,4.61-2.09,6.32-3.63,4-3.6,7.83,3,11.47,6-4.82,5-8.54,10.9-13.09,16.13a1.23,1.23,0,0,0-.26.12,10,10,0,0,0-2.26,2C30.29,54.54,27.42,52.57,25.22,50Z"/><path class="cls-1" d="M33.5,51.4c-.4-4.16,2.91-6.1,6-8.11,2.22-1.46,2.86-3.8,3.61-6.2a1.27,1.27,0,0,0,0-.84,1.21,1.21,0,0,0-.24-.74,3.08,3.08,0,0,0-4.33-1c-1.23.77-1.94,2.11-2.87,3.18a1.38,1.38,0,0,0-.37,1.09c-1,1.18-2,2.31-3.1,3.45-2.61,2.65-6,7.22-1.87,10.15a1.58,1.58,0,0,0,.93.3A1.46,1.46,0,0,0,33.5,51.4Z"/><path class="cls-1" d="M9.78,320.22a1.49,1.49,0,0,0,.52-.46c2.6-3.64,3.6-9.87,2.88-14.48a5.3,5.3,0,0,0,2.76-4.7c-.1-2.29-1.9-3.6-3.94-4-.13-3-1.6-6.26-5.12-6.05a6,6,0,0,0-5,3.75A6.71,6.71,0,0,0,0,292.89v3.79a7.44,7.44,0,0,1,.71,1.08,1.57,1.57,0,0,0,.42.49A1.58,1.58,0,0,0,4,297.5c.16-1.54,1.1-3.71,2.88-3.94C9,293.3,9.07,296.09,9,297.5a1.3,1.3,0,0,0,.79,1.31,1.4,1.4,0,0,0,1.21.69c2.74.08,2.16,2.72.11,3.55-3.61,1.05-7.37.83-11.11.62v3a41.7,41.7,0,0,0,10.3-.34c.45,3.77-.45,8.72-2.44,11.7-2.62.05-5.24.25-7.86.37v3c2.84-.13,5.67-.37,8.5-.4A1.38,1.38,0,0,0,9.78,320.22Z"/><path class="cls-1" d="M2.45,315.6c-.53-2.16-1-4.34-1.5-6.5a1.32,1.32,0,0,0-.95-1v9.07A1.54,1.54,0,0,0,2.45,315.6Z"/><path class="cls-1" d="M4.56,309.9c.37,1.68,0,3.4-.06,5.1,0,1.94,3,1.93,3,0s.39-3.9,0-5.9S4.14,308,4.56,309.9Z"/><path class="cls-1" d="M8.4,390.45l0,0a1.62,1.62,0,0,0,.65-.11,15.69,15.69,0,0,0,3.65,4c1.54,1.17,3-1.43,1.51-2.58A12.6,12.6,0,0,1,11.05,388a1.38,1.38,0,0,0,1-.41c3.25-3.06,8.51-5.29,9.39-10.16a1.52,1.52,0,0,0-1.84-1.85c-4.37,1.28-7.58,5-10.26,8.63-.24-.71-.45-1.43-.65-2.16a1.13,1.13,0,0,0,.28-.58,1.39,1.39,0,0,0,.58-.38c2.65-2.71,5.6-6.38,6.39-10.16.21-1-.7-2.29-1.84-1.85a14.81,14.81,0,0,0-6.7,6.44c-.18-1.19-.35-2.34-.51-3.41,0-.21-.06-.43-.09-.64a1.43,1.43,0,0,0,1-.68c1.81-2.86,4.91-4.88,5.65-8.36a1.51,1.51,0,0,0-2.51-1.46A54.36,54.36,0,0,0,6.3,366,47.46,47.46,0,0,1,6.36,361a1.72,1.72,0,0,0,.4-.17c3-1.7,6.49-2.53,7.19-6.39a1.52,1.52,0,0,0-1.45-1.9,6.89,6.89,0,0,0-4.15,1.68,14.18,14.18,0,0,0-1.07,1,28.62,28.62,0,0,1,1.16-3.13,1.27,1.27,0,0,0,1.46.39c1.35-.46,2.66-1,4-1.5,1.82-.62,1-3.51-.79-2.9a7.64,7.64,0,0,1-3.09.61c.57-1.16,1.12-2.34,1.62-3.54.92-.22,1.86-.38,2.76-.67,1.84-.59,1-3.49-.79-2.9a16.16,16.16,0,0,1-1.79.45c-.13-.5-.54-1-.57-1.5-.08-1.92-3.25-1.94-3.25,0V344c0,.21.31.42.4.6-.35.83-.57,1.65-.93,2.44-.21-.65-.37-1.29-.58-1.94a1.49,1.49,0,0,0-2.92.4,10,10,0,0,0,1.72,5.26c0,.07.11.13.16.19a35.8,35.8,0,0,0-1.59,4.47c-.28-.41-.55-.81-.81-1.14A7.64,7.64,0,0,0,0,351.71v6.86a10.09,10.09,0,0,0,2.75,1.72,2.16,2.16,0,0,0,.6.17,41.16,41.16,0,0,0-.11,4.84,9.33,9.33,0,0,0-2.83-2.73,3.14,3.14,0,0,0-.41-.19v7.31a13.83,13.83,0,0,0,3.86,2.17c.05.34.09.68.14,1,.2,1.3.4,2.65.63,4-1-.67-2-1.46-2.72-1.86A9.47,9.47,0,0,0,0,374.27v6.61a38.27,38.27,0,0,0,5.78,1.5c.31,1.17.66,2.33,1.08,3.45A17.93,17.93,0,0,0,0,385.34v5.12A14.13,14.13,0,0,0,8.4,390.45Z"/><path class="cls-1" d="M386.13,76.36a1.47,1.47,0,0,0-.63,1.14,18.36,18.36,0,0,0,1,6.77,52,52,0,0,1,1.71,9.67c.31,2.73.8,7.32,3.59,8.85a16.08,16.08,0,0,0,8.22,1.73v-3.28c-1,0-2.09,0-3.14,0-5.47-.33-5.56-5.8-6-10.19s-2.4-8.47-2.41-12.69A71.51,71.51,0,0,1,400,77.05V73.83a82.55,82.55,0,0,0-12.89,1.72A1.28,1.28,0,0,0,386.13,76.36Z"/><path class="cls-1" d="M394.3,59.76a1.5,1.5,0,0,0-2.59-1.52,6.56,6.56,0,0,0-.71,5.34c.55,1.89,1.66,3.36,1.5,5.42s2.86,1.92,3,0a9.2,9.2,0,0,0-.91-4.52C393.85,62.78,393.31,61.5,394.3,59.76Z"/><path class="cls-1" d="M398.56,50.1c-.54,2.81-1.4,5.52-1.06,8.4.37,3.09,2.33,5.42,2.5,8.52V49A1.25,1.25,0,0,0,398.56,50.1Z"/><path class="cls-1" d="M390.51,239.51c-.9,8,3.45,17.79,9.49,24.16v-4.84c-4-5.29-6.82-12.08-6.57-18.25.22-5.72,2.49-12.5,6.57-16.94V219.5C394.43,224.15,391.3,232.44,390.51,239.51Z"/><path class="cls-1" d="M396.69,246.66a11.57,11.57,0,0,0,3.31,6.49v-5.08a22.14,22.14,0,0,1-.66-4.8,18.74,18.74,0,0,1,.66-6.21v-7.21A25.24,25.24,0,0,0,396.69,246.66Z"/><path class="cls-1" d="M399.75,162.8l.24.1a1.31,1.31,0,0,0-.49,1.1,41.16,41.16,0,0,0,.5,5.23V159.08c-1.23-1.78-.87-4.66,0-7.18v-6.15a15.63,15.63,0,0,0-2.14,2.93C395.77,152.4,395.44,160.48,399.75,162.8Z"/><path class="cls-1" d="M392.07,295.31a8.25,8.25,0,0,0-1.93,6.32,6.3,6.3,0,0,0,3.27,4.52c-1.21,4.76.95,9.69,2.15,14.25a1.5,1.5,0,0,0,1.44,1.1c1,0,2-.05,3-.1v-3c-.62,0-1.25.06-1.87.07-1.11-3.73-2.78-7.85-1.78-11.66a1.44,1.44,0,0,0,.27-.28c1.12,0,2.25.08,3.38.14v-3c-1.34-.08-2.67-.15-4-.17a1.45,1.45,0,0,0-.8.23c-2.52-1.34-2.61-4-.94-6.38a4.73,4.73,0,0,1,3.09-2,2.94,2.94,0,0,1,2.65,1.34v-3.79a5.59,5.59,0,0,0-2.41-.57A7.46,7.46,0,0,0,392.07,295.31Z"/><path class="cls-1" d="M398.06,309.9c.53,2.16,1,4.34,1.5,6.5a1.4,1.4,0,0,0,.44.75v-9.07A1.55,1.55,0,0,0,398.06,309.9Z"/><path class="cls-1" d="M396.94,388.56a7,7,0,0,0,3.06,1.9v-5.12a8.83,8.83,0,0,0-2.75.87A1.51,1.51,0,0,0,396.94,388.56Z"/><path class="cls-1" d="M395.25,374.71a1.46,1.46,0,0,0-.69,1.69c.94,2.25,3.07,3.59,5.44,4.48v-6.61A6.1,6.1,0,0,0,395.25,374.71Z"/><path class="cls-1" d="M395.12,364.26c.17,2,2.35,3.51,3.8,4.62l1.08.81v-7.31C398.26,361.7,394.9,361.73,395.12,364.26Z"/><path class="cls-1" d="M397.56,352.6a6.6,6.6,0,0,0,2.44,6v-6.86l-.6-.16A1.51,1.51,0,0,0,397.56,352.6Z"/><path class="cls-1" d="M379.21,192c-4.2-3.7-8.65-7.11-12.82-10.84a1.39,1.39,0,0,0-1.29-.34,1.5,1.5,0,0,0-2.35-1.85c-3.14,3.34-8.24,6.77-8.79,11.69a1.27,1.27,0,0,0,0,1.22,1.39,1.39,0,0,0,.36.49c.12.13.23.27.34.41l-.06.1c-3,6.07-8.51,10.33-11.73,16.29-2.6,4.83-5.17,9.7-8.1,14.34,0,0,0,0,0,0a1.38,1.38,0,0,0-.36,1.93A42.19,42.19,0,0,0,349.3,239a1.33,1.33,0,0,0,1,.13,1.18,1.18,0,0,0,1.53.37c11.46-5.11,19.66-15.19,29.64-22.49a1.39,1.39,0,0,0,1.4.29,1,1,0,0,0,1.22-.07,86.1,86.1,0,0,0,9.23-9,1.61,1.61,0,0,0,.26-.4,1.36,1.36,0,0,0-.47-2.19C387.3,203,384,196.12,379.21,192ZM351,236.6a1.56,1.56,0,0,0-.37-.28,39.43,39.43,0,0,1-13.09-11.64c2.9-4.6,5.44-9.43,8-14.2,3-5.61,8.05-9.71,11.17-15.24,6.53,7.59,14.81,13.29,22.43,19.77C369.79,222.08,361.88,231.74,351,236.6Zm39-29.26a69.86,69.86,0,0,1-7.21,7.08c-8.78-7.73-18.81-14.13-25.91-23.58.3-3.39,4.33-6.42,7-8.87a1.34,1.34,0,0,0,.46,1.36c4.49,4,9.27,7.72,13.8,11.7C382.43,198.78,385.21,204.33,390.05,207.34Z"/><path class="cls-1" d="M353,210.85a3.17,3.17,0,0,0-1.79,2.45c0,.8.56,2.12,1.44,2.28a1.91,1.91,0,0,0,.89,0,1.25,1.25,0,0,0,.95.29c1.12-.07,3.3-1.33,4.29-.85,1.29.62,2.16,2.1,3.39,2.87,2.87,1.78,4.89-2.33,4.54-4.64a7.13,7.13,0,0,0-6-5.8c-2.87-.43-5.63,1.35-7.63,3.38Z"/><path class="cls-1" d="M361.3,220.43a1.64,1.64,0,0,0-.54-.61,8.17,8.17,0,0,0-1.92-.95l-.08-.06a2.71,2.71,0,0,0-1.21-.92l0,0a3.06,3.06,0,0,0-2.63-.17,21.81,21.81,0,0,0-2.61.56,5.28,5.28,0,0,1-2.24-.78c-1.5-1-2.76,1.23-1.68,2.4a5.68,5.68,0,0,0,3.2,3.75,7.18,7.18,0,0,0,2.76,1.18c2.5.57,5.21-.41,7.3-1.71A1.51,1.51,0,0,0,361.3,220.43Z"/><path class="cls-1" d="M76.8,38.73a21.6,21.6,0,0,0,1.58,4.89c-6.89,1.69-13.27,8.86-8.56,15.92C76.48,69.52,88,67,97.24,62.71c3.36-1.54,7.21-2.6,8.27-6.63,1.48-5.61.27-12.39-2.26-17.54-2.14-4.36-6.33-6-11-5.86a10.4,10.4,0,0,0-6.42,2.42C83.73,37,83.16,40.28,80.94,42c-1.78-4.21-2.33-8.83.23-12.91,1-1.62-1.31-3.52-2.34-1.88a15.15,15.15,0,0,0-2.33,7.3c-1.76-1.19-3-3.1-4.62-4.49a7.17,7.17,0,0,0-6.74-1.52,1.5,1.5,0,0,0-.87,1.93C66.05,34.92,71.69,42.88,76.8,38.73Zm4.48,7.47a1.67,1.67,0,0,0,1.68-2,11.86,11.86,0,0,0,2.35-3c2.73-4.49,6-6.83,11.44-5,7,2.33,9.29,19.22,2.4,22.42-6,2.77-12,5.81-18.75,4.76-4.72-.73-9.4-4.93-8.91-9.94C71.94,48.88,77.13,46,81.28,46.2Zm-6.74-9.54c-2.3,1.22-5-2.59-6.52-5.33C70.49,31.92,72.45,34.84,74.54,36.66Z"/><path class="cls-1" d="M313.86,291.1c1.72,3.82,6.78,2.47,9.73,1.39a1.39,1.39,0,0,0,.43-.25c1.11,1.95,2.23,3.89,3.38,5.81,2.38,4,4.77,8.95,8.71,11.62,2.46,1.66,5.61.62,8-.44,5.51-2.39,10.86-5.87,15.87-9.14,4.82-3.14,9.7-6.38,14.28-9.84a7.21,7.21,0,0,0,3.14-6.3c-.48-4.53-3.58-8.7-6.06-12.34-1.31-1.93-2.69-3.8-4.07-5.68,3.84-2.52,7.09-7.55,4.83-12.06-2.9-5.77-9.4-2.67-13.27.12-1.66-2.28-3.29-4.52-6.44-2.78a43,43,0,0,0-5.39,4c-3.71,2.89-8.77,4.63-12.91,6.87-5.17,2.79-10.79,6.15-15,10.36-2.69,2.71-2.88,5.25-1.63,8C314.2,282.81,312.12,287.25,313.86,291.1Zm55.88-35.28c1.08,2.9-1.88,6.23-4.19,7.69-1.69-2.34-3.32-4.72-4.79-7.22C363.31,254.41,368.15,251.51,369.74,255.82Zm-49.5,20.12c1.06-1.95,3.37-3.5,5.1-4.75a108.45,108.45,0,0,1,11.94-7.36c3.92-2.12,8.25-3.77,11.84-6.41,1.6-1.18,3.08-2.48,4.74-3.58,1.05-.69,3.9,3.69,4.54,4.35h0c4.31,7.23,9.95,13.55,14.1,20.88,1.9,3.35,2.89,6.22-.3,9-3.65,3.18-8.23,5.64-12.21,8.39-3.76,2.59-7.69,4.88-11.68,7.1-3.43,1.91-8.28,5.85-11.93,2.54-3.47-3.16-5.88-8.64-8.24-12.65s-4.74-8.42-7-12.66a1.61,1.61,0,0,0-.32-.4C319.88,279,319.24,277.78,320.24,275.94ZM319,283.17c1.19,2.17,2.38,4.35,3.59,6.52-1.69.64-4.4,1.74-5.82.39C314.79,288.2,317.2,284.55,319,283.17Z"/><path class="cls-1" d="M328.48,394.55c-6.39-2-14-3.95-20.33-1.12-2.71,1.2-4.85,4.38-3.56,6.57h19.26c-1.31-.27-2.63-.51-4-.72a21.49,21.49,0,0,0-5.13-.22c-.58,0-8.84.41-7.32-1.52,3.6-4.55,11.47-2.1,16-1.16,2.78.58,7.47,1.48,10.37,3.62h4C335.77,397.13,332,395.65,328.48,394.55Z"/><path class="cls-1" d="M145,0h-5.07c-8.41,5.3-20,6.57-26.76,0h-4C117.4,11,134.65,8.55,145,0Z"/><path class="cls-1" d="M114,13.38c7.71,3.53,17.79,3.12,25.57.11A30.47,30.47,0,0,0,154.76,0H151.1a31.59,31.59,0,0,1-10.34,9.63c-6.31,3.61-14.49,3.75-21.43,2.33-5.36-1.11-14-5.85-15.18-12h-3.06C102,6.19,108.8,11,114,13.38Z"/><path class="cls-1" d="M231.63,8.65a1.63,1.63,0,0,0,.71,2.89,2.11,2.11,0,0,0,.29.2c2.36,1.34,4.08,3.59,6.19,5.27a1.54,1.54,0,0,0,2.36-.31,67.72,67.72,0,0,1,6.27-9.19,1.57,1.57,0,0,0,.35-1.19,1.54,1.54,0,0,0,0-.74c1.4-1.86,2.78-3.67,4.08-5.58H248.4c-1.52,2.12-3.24,4-4.8,6.18C240.09,7.87,235.07,6,231.63,8.65Z"/><path class="cls-1" d="M216.78,2.5a1.54,1.54,0,0,0-1.61.75,1.31,1.31,0,0,0-.35,2.26c5.13,4.05,10.6,7.66,15.5,12a1.62,1.62,0,0,0,.37.23,1.39,1.39,0,0,0,.44.5A54,54,0,0,1,236.82,23a1.44,1.44,0,0,0,1.06.43c0,10.13,3.29,19.87,3.51,30-1.93,2.31-5.88,3.69-5.11,7.25.6,2.77,4.45,2.78,6.52,2.5a46.2,46.2,0,0,0,11.49-3.36c2.26-.95,5.74-2.23,6.89-4.63a1.53,1.53,0,0,0-.9-2.2c-2.82-1-6.69.37-9.14-1.35a1.3,1.3,0,0,0-.37-.19c-5.2-9-1.86-20.36-4.7-30.13a.69.69,0,0,0,.11-.13c4.12-5.93,9.67-13.6,10.17-21.2h-3c-.55,7-5.93,14.21-9.73,19.69l0,0a1.29,1.29,0,0,0-.63,1.62c3.46,10.52-.57,22.62,5.65,32.36a1.42,1.42,0,0,0,1.29.7c2.17,1.35,4.71.89,7.16,1-2.75,2.07-7.86,3.18-10.32,3.88-2.07.59-4.57,1.34-6.74,1-1.91-.33,1.45-2.83,1.61-3a13.62,13.62,0,0,0,2.59-2.61,1.19,1.19,0,0,0,.2-1.2.43.43,0,0,1,0,0c-.23-10.46-3.75-20.52-3.5-31A1.42,1.42,0,0,0,239.07,21l-.12-.16a59.32,59.32,0,0,0-6.23-5.17,2,2,0,0,0-.27-.33c-3.94-3.48-8.24-6.49-12.43-9.64,9.5.16,18.29-4.2,27.59-5.74H236.06C229.73,1.87,223.41,3.58,216.78,2.5Z"/><path class="cls-1" d="M65.38,10.88c-.13,1.57-.4,3.58.33,5.06,3.21,6.59,7-2.94,7.58-5.65a50.61,50.61,0,0,0,1.27-8.91c0-.46,0-.92,0-1.38H71.49a30.71,30.71,0,0,1-.31,4.87,49.65,49.65,0,0,1-1.78,8.35c-1,3.1-1.08-1.61-1-2.34a53.64,53.64,0,0,0-.07-7.06c-.07-1.24-.07-2.52,0-3.82H65.14c0,.68,0,1.36.06,2.05A63.47,63.47,0,0,1,65.38,10.88Z"/><path class="cls-1" d="M38.09,14.16c3.17,3.63,6,0,7-3.21A37.28,37.28,0,0,0,46.29,0H43c0,1.51,0,3,0,4.52a26.73,26.73,0,0,1-.8,5.63c-.06.22-1.2,3.55-1.83,1.92-.5-1.3-.16-3.23-.08-4.58.14-2.5.34-5,.55-7.49h-3.1c-.15,2.5-.27,5-.45,7.49C37.14,9.38,36.7,12.56,38.09,14.16Z"/><path class="cls-1" d="M306.37,1.47a1.43,1.43,0,0,0,.38.62c1.3,1.28.52,6.23.47,7.87-.07,2.34-.26,4.68-.26,7,0,4.09,1.11,8.84,1.85,12.88.27,1.42.49,4.28,2,5.09,4.15,2.19,8.62-6.22,10.32-8.87,2.23-3.49,4-7.28,6.28-10.72,2-3,4.26-5.79,5.43-9.2a1.45,1.45,0,0,0,1.49-.36,10.62,10.62,0,0,0,3.93-.45,1.51,1.51,0,0,0,1.11-1.46A8.14,8.14,0,0,0,337.86,0h-4a6.32,6.32,0,0,1,2.26,2.77,11.49,11.49,0,0,1-3.66-.21,1.23,1.23,0,0,0-.27,0A41.81,41.81,0,0,0,323.85,0H304.59A3.72,3.72,0,0,0,306.37,1.47Zm13.84,20.3c-.73,1.3-1.5,2.58-2.32,3.81-1.12-1.33-1.77-2.82,0-4.1A9.8,9.8,0,0,1,321.2,20ZM317,1.94c4-.11,9.06,1.24,13.07,2.94-.89,2.88-2.67,5.29-4.41,7.75-.92,1.29-1.75,2.62-2.55,4-2.94.42-6.18,1.25-8.23,3.53-2.34,2.61-.86,5.73,1.18,7.94-.68.88-1.39,1.73-2.16,2.55-1,1.1-1.22,2.67-1.8.6a42.35,42.35,0,0,1-1-6.64c-.42-3.63-.75-7-.88-10.4,3.33,2.52,9.4,2.12,11.19-1.92a6.1,6.1,0,0,0-3.17-7.8,8.56,8.56,0,0,0-7.93,1.31,14.16,14.16,0,0,0-.32-3.53C312.37,2.37,314.71,2,317,1.94Zm-6.81,8.18c0-.15,0-.3,0-.45a1.27,1.27,0,0,0,.91-.49A5.91,5.91,0,0,1,316.39,7a3,3,0,0,1,2.36,4c-1,2.25-6.44,2.38-7.4,0A1.55,1.55,0,0,0,310.23,10.12Z"/><path class="cls-1" d="M309,74.53c10.89,1.17,22.87-2.5,32.07-8.2s14.08-14.23,12.5-25c-.73-5-3.09-9.45-4.29-14.29-1.11-4.48-1.8-8.56-5.75-11.38-3.3-2.36-9.25.59-8.74,3.59-3.4,5.5-8,8.9-12.74,13.13-2.34,2.09-9.67,10.39-13.21,8.68s-4.55-10.52-5.34-13.86c-1.12-4.83-4.2-10.93-2.87-15.81a1.35,1.35,0,0,0-.54-1.54s0,0,0,0c-.35-7.93-9.41-4.21-13.55-1.22-7.37,5.33-11.77,13.74-13.12,22.62C270.34,51.31,289.3,72.42,309,74.53Zm12.13-36.44a1.62,1.62,0,0,0,.11-.91c1-.87,2-1.72,3-2.58l.27,0c3.48.17,3.8,6.28.46,7.08C322.92,42.23,320.14,40.39,321.12,38.09Zm-22.2-15.85c.61,2,1.25,3.93,1.68,5.78.29,1.26.57,2.63.9,4-2.94,1.26-5.87.31-7-2.91C293.36,25.65,296.25,23.74,298.92,22.24Zm-.84-3c-2,1.1-4.26,2.26-5.51,4.22a7.81,7.81,0,0,0-.57,7.41c1.86,4.3,6.2,5.52,10.25,4.05,1,3.42,2.45,6.72,5.08,8.74,2.94,2.25,7.55-1.05,10.78-3.79.61,3.41,4.45,5.73,8.25,4.56,5.44-1.69,4.92-9.72.58-12.14A53.56,53.56,0,0,0,336.63,22a29.94,29.94,0,0,1,2.84,4.51,1.37,1.37,0,0,0-1.15.74c-1.63,2.91-3,6.29-2.46,9.68.54,3.62,3.08,6.06,6.29,7.52a26.18,26.18,0,0,1-2.54,7.4,22.24,22.24,0,0,1-1.77,2.81c-4-2.23-8.5,0-11.67,2.66-1.7,1.43-4.41,4.57-3.51,6.91a35.63,35.63,0,0,1-16.71.09,30.46,30.46,0,0,1-13.66-7.71c5.5-1.39,6.61-7.18,3.87-11.7A7.76,7.76,0,0,0,290.48,41c-2.54-.24-4.54,1.23-6.06,3.07-.21-.7-.4-1.41-.54-2.13-2.14-10.64,2.86-24.85,13.46-28.93A20.52,20.52,0,0,0,298.08,19.28Zm42.6,9.89a28.52,28.52,0,0,1,1.85,12.08A6.56,6.56,0,0,1,338.77,36C338.55,33.63,339.55,31.25,340.68,29.17ZM335.82,57a26.62,26.62,0,0,1-10.2,6.32,1.89,1.89,0,0,0-.35-.34c.33.23.17.22.34-.28a4.76,4.76,0,0,1,.73-1.22,12,12,0,0,1,2.81-2.74C331,57.34,333.56,56.15,335.82,57Zm-44.53-3.24a1.33,1.33,0,0,0-1,.77,29.84,29.84,0,0,1-4.8-7.54,1.55,1.55,0,0,0,.86-.6c2.24-3.14,5.36-3,7.35.25C295.49,49.56,294.85,53,291.29,53.75Zm-7.55-38.5c1.68-2,12.61-11.18,13.29-5.36-12,4-17,18-16.42,29.82.69,13,11.65,22.88,23.26,27.09,12.83,4.64,28.68-.49,36.8-11.08,7.95-10.37,5.86-25.8-1.78-35.72a1.35,1.35,0,0,0-.71-1l1-1a4.39,4.39,0,0,1,4.92,2.54,14.66,14.66,0,0,1,1.64,4.71c.77,3.06,1.67,5.94,2.71,8.92,2.54,7.22,4,14.94-.47,21.7-8.55,12.85-30.34,18.83-44.57,14.35S276.25,51,276.06,35.77A31.4,31.4,0,0,1,283.74,15.25Z"/><path class="cls-1" d="M347.83,127.46c-1,3.14.62,7.38,1.67,10.29,2.06,5.69,6.22,10.44,10.9,14.14l0,0c-1.29,3-1.46,5.82,1.3,8,3.55,2.77,9.27.35,13-.4,2.55-.52,10.4-1,11.37-4.41.76-2.67-1.77-4.62-3.24-6.59a1.17,1.17,0,0,0,.11-.28c2.78-13,8.66-38.84-8.27-44.8-14.7-5.17-17.79,13.21-17.23,25.31C354.31,124.76,349.69,121.53,347.83,127.46Zm34.75,26.92a22,22,0,0,1-5.66,1.6c-3.95.87-17.62,5.3-13.49-3.46,0-.09.06-.17.09-.25,5.56-1,11.19-1.37,16.75-2.31.69,1,1.43,1.91,2.2,2.83C383.09,153.53,383.64,153.8,382.58,154.38Zm-25-19.83a1.58,1.58,0,0,0,1.93,1.09,1.34,1.34,0,0,0,1.45-1l.3-1.07a1.5,1.5,0,0,0-.54-1.63c-1.32-10.25-.24-30.38,14-25.37,7.53,2.65,8.31,12.87,8.28,19.52,0,7-1.34,14-2.79,20.82-6,1-12.08,1.44-18.06,2.53l-.06-.06a30.94,30.94,0,0,1-10.76-15.66,17.41,17.41,0,0,1-.68-4.81c0-3.87,4.56,1.18,4.75,1.41A12.39,12.39,0,0,1,357.58,134.55Z"/><path class="cls-1" d="M342,362.08A27.94,27.94,0,0,0,349.27,346c.36-3.28,2-6.87,1.47-10.16l.1-.12c2.39-3.88,8.88-5.13,13.12-4.92,1.91.09,2.43-2.87.5-3a27.27,27.27,0,0,0-5.45.31,47.22,47.22,0,0,0,3.66-5.08c1.41-2.19,4-6.33,1.8-8.83-2.78-3.16-6.93.5-8.48,3-2.17,3.45-3.85,8.56-3.39,12.69a1.84,1.84,0,0,0,0,.25,11.4,11.4,0,0,0-3.29,2.54,1.35,1.35,0,0,0-1.45-.24c-3.7-1.3-7.88,1.56-11.71,1.55a20.14,20.14,0,0,0-15.65,6.87c-3.7,4-5.22,9.4-6.68,14.49-.65,2.28-2.94,8.6-.27,10.53,1.22.89,2.56,1.59,4.12,1,3.25-1.32,5.07-1.09,8.56-.46C331.56,367.34,338.28,366.24,342,362.08Zm15.29-40.85a13.6,13.6,0,0,1,2.49-4.13c.39-.43,2.56-1.82,2.48-.44-.15,2.53-2.3,5.15-3.73,7.08a31.83,31.83,0,0,1-2.94,3.58A24,24,0,0,1,357.31,321.23Zm-30.53,42.21c-3.71-.43-5.81-1.48-9.23.25-3.58,1.81-.67-8-.4-8.95a32.86,32.86,0,0,1,5.73-12c3.41-4.29,8.36-5.67,13.59-5.77a14.62,14.62,0,0,0,4.18-.24c2-.62,4.6-2.35,6.72-1.26a1.17,1.17,0,0,0,.24.09c1.05,2.87-.8,7.21-1.3,9.91-.84,4.53-1.69,8.58-4.67,12.27C337.68,362.64,333,364.15,326.78,363.44Z"/><path class="cls-1" d="M397.27,337.17c1.09-2.62-2-4.83-3.91-5.79A46.26,46.26,0,0,0,382,327.54c-2.39-.52-6-1.47-8.29-.16a1.53,1.53,0,0,0-.54,2.31c1.73,2.46,5.7,3.54,6.72,6.35a1.42,1.42,0,0,0,.19.37c-.91,10.37-10.16,17.74-13.44,27.37l-.16.05c-7.24,2.66-17,6-21.42,12.78a1.45,1.45,0,0,0,.29,1.95,1.32,1.32,0,0,0,.49,1c-2,1-5.89,3.08-6.4.12a30.21,30.21,0,0,0-1.16-5.15c-.66-1.82-3.38-.55-2.73,1.26,1.33,3.71.36,8.88,5.73,8.46,2.52-.2,5.2-1.61,7.54-2.77,10,5.63,22.57,6.31,31,14.52a1.56,1.56,0,0,0,1.75.32c.94.11,1.92-.52,1.58-1.66-1.87-6.26-4.28-12.35-5.81-18.72a1.29,1.29,0,0,0-.16-.4,1.69,1.69,0,0,0-.07-.66,55.35,55.35,0,0,1-1.93-7.17,1.4,1.4,0,0,0-.62-1c5.82-8.3,8.71-18.16,14.34-26.58C391.82,339.39,395.85,340.53,397.27,337.17Zm-10.77,1.24,0,0c-5.82,8.69-8.7,18.95-14.92,27.4a1.41,1.41,0,0,0,.68,2.19,1.34,1.34,0,0,0,0,.2,60.52,60.52,0,0,0,2.13,7.81,1.25,1.25,0,0,0,0,.42c1.23,5.11,3,10,4.64,15-7.93-5.76-18-7.13-26.71-11.52,2.52-.9,5.09-1.49,7.65-2.37,3.85.63,6.89,5.05,11.22,4.85a1.63,1.63,0,0,0,1.07-2.78,1.6,1.6,0,0,0-.11-.33c-1.17-2.45-1.29-5.28-2.05-7.86a1.54,1.54,0,0,0-2.11-1.11,67.71,67.71,0,0,1-10.41,3.94,1.49,1.49,0,0,0-1,.77,1.38,1.38,0,0,0-.41.63c-2.4.77-4.75,1.51-7.1,2.43-.33-.21-.67-.41-1-.64,4.36-5.69,13.2-8.59,19.61-11h0a1.28,1.28,0,0,0,1.45-1c3.21-10.6,13.45-18.19,13.95-29.74a1.43,1.43,0,0,0-.66-1.31c-1-2.36-3.35-3.43-5.27-5,3.43-.11,8.26,1.92,10.68,2.75,2,.7,4.51,1.53,6.07,3.08,1.38,1.36-2.81,1.48-3,1.5a13.84,13.84,0,0,0-3.62.65A1.21,1.21,0,0,0,386.5,338.41Z"/><path class="cls-1" d="M239.46,363.59c-2.66-1.23-6.1-.43-8.78.29-.69.19-1.45.82-1.28,1.64-4.19.65-10,2.18-11.62-2.13-1.26-3.34-2.34-6.11-6.32-6.4-12-.86-24.57,1.68-36.37,3.41a1.34,1.34,0,0,0-1.15.93,1.43,1.43,0,0,0-.54.93c-1.59,9.31,2.91,18,3.91,27.12a1.45,1.45,0,0,0,.06.3c0,.06,0,.12,0,.19.3,2.06.15,3,1.93,4s5,.46,7,.19c7-.95,14-2.65,21-4,4.25-.81,12-2,13-7.27.63-3.33-1.25-5.9,2.91-6.84,2.91-.66,5.71-.47,8.49-1.27l.17,0c4,.8,10.53.23,11.35-4.77A6.32,6.32,0,0,0,239.46,363.59ZM218.13,375c-3.33,2.78,2.14,7.43-3.94,10.12s-13.88,3.28-20.46,4.4c-2.21.38-4.39,1-6.6,1.37a36.38,36.38,0,0,1-3.61.48c-2.45.23-2.86.16-3.17-1.93a1.28,1.28,0,0,0-.07-.28,1.61,1.61,0,0,0,0-.22c-.95-8.6-5.22-16.93-4-25.69,6.22-.9,12.44-1.78,18.7-2.44,4.87-.51,17.44-3.45,19.65,2.61,1.14,3.14,2.07,5.08,5.51,5.72,3.2.6,6.64-.33,9.91-.72a23.46,23.46,0,0,1,.77,3.44C226.63,373.11,221.68,372.05,218.13,375Zm16.15-3a1.52,1.52,0,0,0-.5-.67,29.3,29.3,0,0,0-.84-3.8,1.57,1.57,0,0,0,.07-1,1,1,0,0,0,0-.16c3.15-.63,7.45-.83,7.21,3.23C240.11,371.87,236.75,372.18,234.28,372Z"/><path class="cls-1" d="M208.5,379.5c-2.44-3.94-1.88-9.38-2.35-13.9a1.53,1.53,0,0,0-1.35-2.48c-5.31.71-10.67.62-16,1.33a1.48,1.48,0,0,0-.93,2.39,1.27,1.27,0,0,0-.12.39c-.74,4.68-1.28,16.74,4.91,18.2a1.28,1.28,0,0,0,1.69.39c4.23-2.12,9.2-2,13.64-3.51a1.3,1.3,0,0,0,.74-1.89A1.62,1.62,0,0,0,208.5,379.5Zm-14.56,3.23a1.79,1.79,0,0,0-.55-.2c-3.86-.64-3.07-12.2-2.64-14.93a1.46,1.46,0,0,0,0-.36c4.14-.45,8.31-.5,12.46-.91.47,4.58.22,9.44,2.19,13.65C201.61,381,197.57,381.16,193.94,382.73Z"/><path class="cls-1" d="M366.36,23.83a1.3,1.3,0,0,0-.69,1c-1.77,9.76.6,19.29,1,29.06.07,1.87-1.5,13.38,3.43,11.77,5.64-1.85,8.71-8.38,11.12-13.28,3.75-7.63,7.58-15.47,10.19-23.57a1.73,1.73,0,0,0,.38-.3c9-9.86,3.9-23.12-9.29-24.55a17.65,17.65,0,0,0-15.28,5.54c-2.81,3.2-4.78,11.05-1,14.2Zm1.9,4.05A19.59,19.59,0,0,1,370.4,31c-.77,1-1.54,2-2.34,2.94A43.56,43.56,0,0,1,368.26,27.88Zm.95,14.47a1.4,1.4,0,0,0-.51-.41c-.14-1.34-.28-2.68-.4-4a1.37,1.37,0,0,0,.63-.42c1-1.14,2-2.34,2.94-3.55.75,1.71,1.41,3.47,2.12,5.21-1.27,1.49-2.57,3-3.89,4.4A13.46,13.46,0,0,0,369.21,42.35ZM378.8,33c-.9,1.28-1.86,2.53-2.84,3.76-.71-1.75-1.38-3.52-2.15-5.23.7-.87,1.41-1.73,2.16-2.56A19.5,19.5,0,0,1,378.8,33Zm-.14-5.47L382,28c-.46.8-.94,1.58-1.43,2.35A20.28,20.28,0,0,0,378.66,27.51Zm-.84,18.79c-1.42,1.32-2.88,2.6-4.28,3.92-.69-1.26-1.27-2.59-1.9-3.9,1.24-1.35,2.48-2.72,3.69-4.12A22.54,22.54,0,0,0,377.82,46.3Zm-5.49-17.73a20.49,20.49,0,0,0-1.53-2.27c1,.17,2,.34,3.06.49C373.34,27.37,372.83,28,372.33,28.57Zm-2.86,21.64c0-.52-.07-1-.11-1.54l.12-.09c.61,1.28,1.2,2.57,1.89,3.79-.6.63-1.19,1.27-1.74,2m3.14,6c.3-.33-2.75,2.74-2.89,1.91A19.41,19.41,0,0,1,370,59V59c0-.11.33-.31.51-.59a24.31,24.31,0,0,1,2.64-3.54,11,11,0,0,0,2,1.87l.22.13A26.44,26.44,0,0,1,372.77,60.27Zm10.17-19.34a37.3,37.3,0,0,1-3,3.31,24,24,0,0,1-2.67-4.4c1.06-1.28,2.09-2.58,3.07-3.91a24,24,0,0,0,3,4.62A1.33,1.33,0,0,0,382.94,40.93Zm1.87-3.29a29.14,29.14,0,0,1-2.61-4.3c1.07-1.57,2.08-3.17,3-4.83,1,.16,2,.33,3,.52C387.19,31.92,386.05,34.8,384.81,37.64Zm-13-28.4c3.56-2.67,8.57-2.67,12.73-2,10,1.64,10.85,12.56,5.14,19-7-1.38-14.09-2.05-21.09-3.41a1.29,1.29,0,0,0-.46-1.41C364.52,18.38,369.3,11.13,371.84,9.24Z"/></svg>