<svg id="Слой_1" data-name="Слой 1" xmlns="http://www.w3.org/2000/svg" width="28.76" height="28.76" viewBox="0 0 28.76 28.76"><defs><style>.cls-1{fill:#4d76a1;}.cls-2{fill:#fff;fill-rule:evenodd;}</style></defs><path class="cls-1" d="M28.76,14.38A14.38,14.38,0,1,1,14.38,0,14.38,14.38,0,0,1,28.76,14.38Zm0,0"/><path class="cls-2" d="M13.84,20.69H15a1,1,0,0,0,.52-.23.82.82,0,0,0,.15-.5s0-1.51.69-1.73,1.58,1.46,2.52,2.11a1.78,1.78,0,0,0,1.26.38l2.52,0s1.32-.09.69-1.12a8.16,8.16,0,0,0-1.87-2.17c-1.59-1.47-1.37-1.23.53-3.77,1.16-1.55,1.62-2.49,1.48-2.89s-1-.29-1-.29l-2.84,0a.67.67,0,0,0-.37.06.89.89,0,0,0-.25.31A16.05,16.05,0,0,1,18,13.05c-1.26,2.15-1.77,2.26-2,2.13-.48-.31-.36-1.25-.36-1.91,0-2.09.31-2.95-.62-3.18A5.13,5.13,0,0,0,13.68,10a6.11,6.11,0,0,0-2.36.24c-.32.16-.57.51-.42.53a1.31,1.31,0,0,1,.84.43A2.72,2.72,0,0,1,12,12.44s.17,2.45-.39,2.75c-.38.21-.91-.22-2-2.16a19.49,19.49,0,0,1-1-2.1.81.81,0,0,0-.23-.32,1.24,1.24,0,0,0-.44-.17H5.21s-.4,0-.55.19,0,.48,0,.48,2.11,4.94,4.5,7.43a6.49,6.49,0,0,0,4.69,2.14Zm0,0"/></svg>