<svg xmlns="http://www.w3.org/2000/svg" width="148.2" height="144.08" viewBox="0 0 148.2 144.08">
	<style type="text/css">
		.st2{fill:#ff8622;fill-rule:evenodd;}
		.st1{fill:#ffffff;}
		.st3{fill:#1d1d1b;fill-rule:evenodd;}
		.st0{fill:#ffffff;fill-rule:evenodd;}
	</style>
	<path class="st0" d="M104.59,137.45L104.64,137.44ZM104.35,137.52L104.47,137.48C104.43,137.49 104.39,137.51 104.35,137.52M104.1,137.59C104.16,137.57 104.21,137.56 104.27,137.54C104.21,137.56 104.16,137.57 104.1,137.59M103.89,137.66C103.94,137.64 103.99,137.63 104.04,137.61C103.99,137.63 103.94,137.64 103.89,137.66M58.62,136.95C59.35,136.87 60.09,136.83 60.86,136.83C66.82,136.83 71.5,139.12 74.88,143.69C75.27,144.21 75.97,144.23 76.36,143.68C77.75,141.76 79.54,140.13 81.6,138.97C84.12,137.54 87.03,136.83 90.34,136.83C94.07,136.83 97.3,137.73 100.02,139.52C101.2,138.73 102.49,138.12 103.83,137.68C102.9,133.95 101.83,130.27 100.94,126.53C98.81,117.61 97.48,112.06 91.34,110.69L91.34,110.69C91.3,110.68 91.27,110.67 91.23,110.66C85.94,108.64 80.97,108.58 76.84,108.53C76.21,108.52 75.6,108.51 75.03,108.5C74.82,108.49 74.61,108.49 74.41,108.49C70.16,108.55 66.25,110.31 63.35,113.81C60.41,117.37 58.5,122.74 58.34,129.99C58.32,130.53 58.32,131.09 58.33,131.66C58.52,133.39 58.62,135.19 58.62,136.95"/>
	<path class="st0" d="M49.47,62.5C50.76,64.38 56.87,59.54 56.41,58.35C55.88,56.98 47.45,59.56 49.47,62.5"/>
	<path class="st0" d="M57.39,57.88C57.96,58.71 59.63,57.38 59.43,56.85C59.2,56.25 56.51,56.59 57.39,57.88"/>
	<path class="st1" d="M6.8,111.7C7.03,107.22 6.93,102.87 6.37,98.53C5.76,93.76 4.57,89.01 2.56,84.15C2.33,83.6 2.22,83.62 2.82,83.49C6.78,82.62 11.67,83.14 16.34,84.5C21.95,86.13 27.2,88.97 30.1,92.05C30.3,92.41 30.2,93.02 29.11,92.79C23.69,91.68 21.9,92.68 21.34,94.89C21.09,95.9 21.18,97.07 21.28,98.41C21.4,99.98 21.54,101.81 21.09,103.62C20.99,103.99 20.8,104.7 19.9,103.93C18.47,102.71 17,101.94 15.73,101.54C14.85,101.27 14.04,101.18 13.38,101.25C12.54,101.33 11.89,101.66 11.5,102.2C11.26,102.55 11.13,102.96 11.14,103.43C11.27,108.27 8.9,110.29 7.04,111.8C6.77,112.01 6.79,111.82 6.8,111.7"/>
	<path class="st0" d="M29.48,42.82C29.15,42.21 28.82,41.56 28.5,40.91C27.65,39.18 26.84,37.36 26.16,35.76L26.4,34.65C28.35,34.69 30.61,34.99 32.92,35.44C34.58,35.76 36.27,36.15 37.88,36.59C38.01,36.62 38.13,36.66 38.25,36.69C38.68,36.82 39.1,36.95 39.53,37.08C39.26,37.21 39.01,37.36 38.8,37.54C37.93,38.32 37.75,39.52 39.31,41.56C38.78,41.57 37.95,41.4 37.21,41.25C36.27,41.06 35.43,40.89 34.95,41.11C34.45,41.35 34.28,41.76 34.59,42.43C35.22,43.8 35.43,44.7 35.39,45.24C35.37,45.38 35.35,45.48 35.31,45.55C35.28,45.59 35.25,45.62 35.21,45.64C35.12,45.68 35.01,45.69 34.87,45.68C34.57,45.65 34.15,45.41 33.69,45.15C32.73,44.6 31.65,43.98 30.42,44.36L30.35,44.25C30.06,43.78 29.77,43.3 29.48,42.82"/>
	<path class="st0" d="M58.2,10.1C62.11,7.87 64.91,6.03 67.48,4.92C74.73,1.8 85.16,4.05 78.68,7.78C78.01,8.69 79.09,8.5 80.32,8.37C84.94,7.87 88.93,6.57 93.81,6.31C104.21,5.75 113.91,7.44 114.94,19.71C126.69,25.54 121.38,34.72 110.38,34.71C113.79,32.54 106.45,28.12 103.07,28.48C113.33,24.92 100.05,26.13 93.47,25.62C92.3,25.53 91.46,25.37 92.19,24.78C98.72,19.53 95.01,20.16 87.95,24.47L69.49,24.04C67.13,20.71 61.89,15.6 62.79,17.19C64.61,20.43 65.45,21.61 66.85,23.8C67.29,24.48 66.41,24.72 66.03,24.61C42.89,22.33 58.5,25.53 57.37,25.89C54.54,26.8 54.48,28.42 58.51,27.45C64.34,26.03 69.13,25.76 77.25,26.31L81.59,26.61C93.78,27.45 107.91,29.06 108.05,39.89C108.05,40.05 108.04,40.21 108.03,40.37C107.65,40.64 105.43,41.82 105.04,41.72C97.51,39.75 91.78,37.8 82.48,37.16C66.68,36.08 63.73,38.03 52.39,39.41L50.49,38.82C56.13,32.63 50.44,34.56 42.91,34.87C38.79,34.57 35.31,31.55 35.08,27.88C34.77,23 37.68,16.85 41.44,12.44C44.67,8.64 50.56,7.28 52.08,7.76C53.7,8.27 54.25,9.11 53.66,10.57C52.83,12.64 54.58,12.18 58.2,10.1"/>
	<path class="st2" d="M139.68,110C136.99,110.34 134.97,111.89 135.16,113.45C135.27,114.33 136.04,114.93 136.78,115.26L136.78,115.26C137.99,114.48 139.38,114.11 140.78,113.98C141.91,113.88 143.01,113.96 143.99,114.19C144.53,113.69 144.99,113.01 144.9,112.23C144.7,110.66 142.37,109.67 139.68,110"/>
	<path class="st2" d="M140.95,115.95C138.28,116.2 136.32,117.58 136.58,119.06C136.83,120.53 139.2,121.53 141.87,121.29C144.54,121.04 146.5,119.66 146.24,118.18C145.99,116.71 143.62,115.71 140.95,115.95"/>
	<path class="st2" d="M139.68,122.26C137.67,122.45 136.18,123.53 136.35,124.68C136.52,125.82 138.28,126.59 140.29,126.41C142.3,126.22 143.79,125.14 143.62,124C143.45,122.85 141.69,122.08 139.68,122.26"/>
	<path class="st2" d="M110.71,112.58C117.02,115.29 125.81,114.81 128.14,113.25C128.14,113.25 131.27,104.14 134.19,103.46C137.25,103.44 136.47,106.19 136.19,109.03C135.81,109.23 135.47,109.45 135.16,109.68C133.78,110.74 133.02,112.16 133.21,113.7C133.36,114.9 134.05,115.89 135.1,116.59C135.22,116.66 135.21,116.76 135.15,116.87C134.22,118.38 134.5,120.19 135.72,121.44C135.81,121.52 135.8,121.7 135.71,121.78C134.73,122.62 134.17,123.87 134.44,125.16C126,125.51 117.18,127.36 112,126.83C110.97,122.24 110.38,115.77 110.71,112.58"/>
	<path class="st2" d="M104.48,47.02C99.78,48.41 90.55,51.88 92.09,58.51C93.37,64 99.24,71.6 106.03,70.74C110.73,70.15 116.4,67.9 118.51,63.99L118.4,63.92L118.39,63.92L118.39,63.92L118.36,63.9L118.33,63.88L118.32,63.87L118.24,63.83L118.22,63.81L118.21,63.8L118.17,63.78L118.15,63.77L118.06,63.71L118.04,63.7L118.02,63.68L117.99,63.66L117.99,63.66L117.98,63.66L117.98,63.66L117.98,63.66L117.98,63.66L117.98,63.65L117.98,63.65L117.97,63.65L117.97,63.65L117.97,63.65L117.97,63.65L117.97,63.65L117.96,63.65L117.96,63.64L117.96,63.64L117.96,63.64L117.96,63.64L117.96,63.64L117.95,63.64L117.95,63.64L117.95,63.64L117.95,63.63L117.95,63.63L117.95,63.63L117.94,63.63L117.94,63.63L117.94,63.63L117.94,63.63L117.94,63.63L117.94,63.63L117.93,63.63L117.93,63.62L117.93,63.62L117.93,63.62L117.93,63.62L117.92,63.62L117.92,63.62L117.92,63.62L117.92,63.61L117.92,63.61L117.91,63.61L117.91,63.61L117.91,63.61L117.91,63.61L117.91,63.61L117.91,63.61L117.91,63.61L117.9,63.61L117.9,63.6L117.9,63.6L117.9,63.6L117.9,63.6L117.89,63.6L117.89,63.6L117.89,63.6L117.89,63.6L117.89,63.59L117.89,63.59L117.88,63.59L117.88,63.59L117.88,63.59L117.88,63.59L117.88,63.59L117.87,63.59L117.87,63.58L117.87,63.58L117.87,63.58L117.84,63.56L117.82,63.55L117.71,63.47L117.7,63.47L117.69,63.46L117.66,63.44L117.66,63.43L117.65,63.43L117.65,63.43L117.65,63.43L117.65,63.43L117.64,63.43L117.64,63.42L117.64,63.42L117.64,63.42L117.63,63.42L117.63,63.42L117.63,63.42L117.63,63.42L117.63,63.41L117.62,63.41L117.62,63.41L117.62,63.41L117.62,63.41L117.62,63.41L117.62,63.41L117.61,63.41L117.61,63.4L117.61,63.4L117.61,63.4L117.61,63.4L117.6,63.4L117.6,63.4L117.6,63.4L117.6,63.39L117.6,63.39L117.59,63.39L117.59,63.39L117.59,63.39L117.58,63.38L117.58,63.38L117.58,63.38L117.58,63.38L117.58,63.38L117.57,63.38L117.57,63.37L117.57,63.37L117.57,63.37L117.56,63.37L117.56,63.37L117.56,63.37L117.56,63.37L117.56,63.36L117.55,63.36L117.55,63.36L117.55,63.36L117.55,63.36L117.55,63.36L117.55,63.36L117.54,63.36L117.54,63.35L117.54,63.35L117.54,63.35L117.54,63.35L117.53,63.35L117.53,63.35L117.53,63.35L117.53,63.34L117.53,63.34L117.51,63.33L117.5,63.32L117.49,63.32L117.49,63.32L117.49,63.32L117.49,63.31L117.48,63.31L117.48,63.31L117.48,63.31L117.48,63.31L117.48,63.31L117.48,63.31L117.47,63.31L117.47,63.3L117.47,63.3L117.47,63.3L117.47,63.3L117.46,63.3L117.46,63.3L117.46,63.29L117.46,63.29L117.46,63.29L117.45,63.29L117.45,63.29L117.45,63.29L117.45,63.29L117.44,63.28L117.44,63.28L117.44,63.28L117.44,63.28L117.44,63.28L117.44,63.28L117.43,63.28L117.43,63.27L117.43,63.27L117.43,63.27L117.43,63.27L117.42,63.27L117.42,63.27L117.42,63.27L117.42,63.26L117.42,63.26L117.41,63.26L117.41,63.26L117.41,63.26L117.41,63.26L117.4,63.25L117.4,63.25L117.4,63.25L117.4,63.25L117.4,63.25L117.4,63.25L117.39,63.25L117.39,63.25L117.39,63.24L117.39,63.24L117.39,63.24L117.38,63.24L117.38,63.24L117.38,63.24L117.38,63.23L117.37,63.23L117.37,63.23L117.37,63.23L117.37,63.23L117.37,63.23L117.37,63.23L117.36,63.22L117.36,63.22L117.36,63.22L117.33,63.2L117.33,63.2L117.33,63.2L117.33,63.2L117.32,63.2L117.32,63.19L117.32,63.19L117.32,63.19L117.32,63.19L117.31,63.19L117.31,63.19L117.31,63.18L117.31,63.18L117.31,63.18L117.3,63.18L117.3,63.18L117.3,63.18L117.3,63.18L117.3,63.17L117.29,63.17L117.29,63.17L117.29,63.17L117.29,63.17L117.29,63.17L117.28,63.17L117.28,63.16L117.28,63.16L117.28,63.16L117.28,63.16L117.27,63.16L117.27,63.16L117.27,63.15L117.27,63.15L117.27,63.15L117.26,63.15L117.26,63.15L117.26,63.15L117.26,63.15L117.26,63.14L117.25,63.14L117.25,63.14L117.25,63.14L117.25,63.14L117.25,63.14L117.24,63.14L117.24,63.13L117.24,63.13L117.24,63.13L117.24,63.13L117.23,63.13L117.23,63.13L117.23,63.12L117.23,63.12L117.23,63.12L117.23,63.12L117.22,63.12L117.22,63.12L117.22,63.12L117.22,63.11L117.21,63.11L117.21,63.11L117.21,63.11L117.21,63.11L117.21,63.11L117.2,63.11L117.2,63.1L117.2,63.1L117.2,63.1L117.19,63.1L117.17,63.08L117.16,63.07L117.16,63.07L117.16,63.07L117.16,63.07L117.16,63.07L117.16,63.07L117.15,63.07L117.15,63.07L117.15,63.06L117.15,63.06L117.15,63.06L117.14,63.06L117.14,63.06L117.14,63.06L117.14,63.05L117.14,63.05L117.13,63.05L117.13,63.05L117.13,63.05L117.13,63.05L117.13,63.05L117.12,63.04L117.12,63.04L117.12,63.04L117.12,63.04L117.11,63.04L117.11,63.03L117.11,63.03L117.11,63.03L117.11,63.03L117.1,63.03L117.1,63.03L117.1,63.02L117.1,63.02L117.1,63.02L117.09,63.02L117.09,63.02L117.09,63.02L117.09,63.02L117.09,63.01L117.09,63.01L117.08,63.01L117.08,63.01L117.08,63.01L117.08,63.01L117.08,63.01L117.07,63L117.07,63L117.07,63L117.07,63L117.06,63L117.06,63L117.06,63L117.06,62.99L117.06,62.99L117.06,62.99L117.05,62.99L117.05,62.99L117.05,62.99L117.05,62.99L117.05,62.98L117.04,62.98L117.04,62.98L117.04,62.98L117.04,62.98L117.04,62.98L117.02,62.96L117,62.95L117,62.95L117,62.95L117,62.94L117,62.94L116.99,62.94L116.99,62.94L116.99,62.94L116.99,62.94L116.99,62.94L116.98,62.93L116.98,62.93L116.98,62.93L116.98,62.93L116.98,62.93L116.97,62.93L116.97,62.92L116.97,62.92L116.97,62.92L116.97,62.92L116.96,62.92L116.96,62.92L116.96,62.92L116.96,62.91L116.96,62.91L116.95,62.91L116.95,62.91L116.95,62.91L116.95,62.91L116.95,62.91L116.95,62.9L116.94,62.9L116.94,62.9L116.94,62.9L116.94,62.9L116.94,62.9L116.93,62.9L116.93,62.89L116.93,62.89L116.93,62.89L116.93,62.89L116.92,62.89L116.92,62.89L116.92,62.88L116.92,62.88L116.91,62.88L116.91,62.88L116.91,62.88L116.91,62.87L116.91,62.87L116.9,62.87L116.9,62.87L116.9,62.87L116.9,62.87L116.9,62.86L116.89,62.86L116.89,62.86L116.89,62.86L116.89,62.86L116.89,62.86L116.88,62.86L116.88,62.85L116.88,62.85L116.88,62.85L116.88,62.85L116.88,62.85L116.85,62.83L116.85,62.83L116.85,62.83L116.84,62.82L116.84,62.82L116.84,62.82L116.84,62.82L116.84,62.82L116.83,62.82L116.83,62.81L116.83,62.81L116.83,62.81L116.83,62.81L116.82,62.81L116.82,62.81L116.82,62.8L116.82,62.8L116.81,62.8L116.81,62.8L116.81,62.8L116.81,62.79L116.81,62.79L116.8,62.79L116.8,62.79L116.8,62.79L116.8,62.79L116.79,62.78L116.79,62.78L116.79,62.78L116.79,62.78L116.79,62.78L116.78,62.77L116.78,62.77L116.78,62.77L116.78,62.77L116.77,62.77L116.77,62.77L116.77,62.77L116.77,62.76L116.77,62.76L116.77,62.76L116.76,62.76L116.76,62.76L116.76,62.75L116.76,62.75L116.75,62.75L116.75,62.75L116.75,62.75L116.75,62.74L116.75,62.74L116.74,62.74L116.74,62.74L116.74,62.74L116.74,62.74L116.74,62.74L116.73,62.73L116.73,62.73L116.73,62.73L116.73,62.73L116.73,62.73L116.72,62.72L116.72,62.72L116.72,62.72L116.71,62.72L116.71,62.72L116.71,62.71L116.71,62.71L116.71,62.71L116.7,62.71L116.69,62.7L116.69,62.7L116.69,62.7L116.69,62.69L116.68,62.69L116.68,62.69L116.68,62.69L116.68,62.69L116.68,62.69L116.67,62.68L116.67,62.68L116.67,62.68L116.67,62.68L116.67,62.68L116.66,62.68L116.66,62.67L116.66,62.67L116.66,62.67L116.65,62.67L116.65,62.67L116.65,62.66L116.65,62.66L116.65,62.66L116.64,62.66L116.64,62.66L116.64,62.65L116.64,62.65L116.64,62.65L116.63,62.65L116.63,62.65L116.63,62.65L116.63,62.65L116.62,62.64L116.62,62.64L116.62,62.64L116.62,62.64L116.62,62.64L116.61,62.63L116.61,62.63L116.61,62.63L116.61,62.63L116.6,62.63L116.6,62.63L116.6,62.62L116.6,62.62L116.6,62.62L116.59,62.62L116.59,62.62L116.59,62.61L116.59,62.61L116.59,62.61L116.58,62.61L116.58,62.61L116.58,62.6L116.58,62.6L116.57,62.6L116.57,62.6L116.57,62.6L116.57,62.6L116.57,62.6L116.57,62.59L116.56,62.59L116.56,62.59L116.56,62.59L116.56,62.59L116.55,62.58L116.55,62.58L116.55,62.58L116.55,62.58L116.54,62.57L116.54,62.57L116.53,62.56L116.53,62.56L116.52,62.56L116.52,62.55L116.51,62.55L116.51,62.54L116.5,62.54L116.5,62.54L116.5,62.54L116.49,62.53L116.49,62.53L116.48,62.52L116.48,62.52L116.47,62.51L116.47,62.51L116.47,62.51L116.46,62.51L116.46,62.5L116.45,62.5L116.45,62.49L116.44,62.49L116.44,62.49L116.44,62.48L116.43,62.48L116.43,62.48L116.43,62.47L116.42,62.47L116.42,62.47L116.41,62.46L116.41,62.46L116.4,62.45L116.4,62.45L116.4,62.45L116.39,62.45L116.39,62.44L116.38,62.44L116.38,62.43L116.37,62.43L116.37,62.42L116.37,62.42L116.36,62.42L116.36,62.42L116.36,62.41L116.35,62.41L116.35,62.4L116.34,62.4L116.34,62.4L116.33,62.39L116.33,62.39L116.33,62.39L116.32,62.38L116.32,62.38L116.31,62.38L116.31,62.37L116.3,62.37L116.3,62.36L116.3,62.36L116.29,62.36L116.29,62.35L116.28,62.35L116.28,62.34L116.27,62.34L116.27,62.33L116.27,62.33L116.26,62.33L116.26,62.33L116.25,62.32L116.25,62.32L116.24,62.31L116.24,62.31L116.23,62.3C112.57,59.03 110.28,53.93 109.02,47.87C108.97,47.61 108.92,47.37 108.88,47.16L108.87,47.14L108.87,47.12L108.87,47.12L108.87,47.1L108.86,47.09L108.86,47.08L108.86,47.07L108.85,47.05L108.85,47.03L108.85,47.01L108.84,46.99L108.84,46.99L108.84,46.98L108.83,46.96L108.83,46.95L108.83,46.94L108.83,46.92L108.82,46.92L108.82,46.9L108.82,46.89L108.82,46.88L108.81,46.87L108.81,46.85L108.81,46.83L108.8,46.82L108.8,46.8L108.79,46.78L108.79,46.78L108.79,46.76L108.79,46.74L108.78,46.73L108.78,46.71L108.77,46.69L108.77,46.67L108.77,46.66L108.76,46.65L108.76,46.64L108.76,46.62L108.76,46.61L108.75,46.6L108.75,46.58L108.75,46.57L108.74,46.55L108.74,46.53L108.74,46.51L108.73,46.5L108.73,46.48L108.72,46.46L108.72,46.44L108.72,46.42L108.71,46.41L108.71,46.41L108.71,46.39L108.71,46.37L108.7,46.35L108.7,46.34L108.7,46.34L108.69,46.32L108.69,46.31L108.69,46.3L108.69,46.28L108.69,46.27L108.68,46.27L108.68,46.25L108.68,46.24L108.68,46.23L108.67,46.21L108.67,46.19L108.66,46.18L108.66,46.17L108.66,46.16L108.66,46.14L108.65,46.12L108.65,46.11L108.65,46.09L108.64,46.07L108.64,46.07L108.64,46.05L108.64,46.04L108.63,46.02C107.09,46.3 105.6,46.7 104.48,47.02"/>
	<path class="st2" d="M71.26,83.19C76.37,82.02 81.24,79.11 83.38,75.41C86.76,69.54 85.38,63.79 85.3,59.15C85.27,57.5 87.49,57.01 87.99,57.96C89.26,60.38 91.93,65.24 94.89,68.64C100.26,74.53 107.7,75.29 116.21,70.41C118.98,68.81 120.66,67.2 121.6,65.4C123.88,66.15 126.48,66.4 129.45,66.08C129.71,68.41 130.36,70.17 131.47,71.87C128.76,74.93 124.36,77.29 120.61,79.31C119.25,80.03 117.98,80.72 116.84,81.41L108.13,85.38L105.81,86.25C105.72,86.23 105.63,86.23 105.54,86.24L105.42,86.26C92.25,88.14 77.37,90.27 71.26,83.19"/>
	<path class="st2" d="M65.2,57.52C69.92,56.25 79.6,54.4 81.69,60.88C83.41,66.24 82.91,75.62 76.03,78.63C71.61,80.56 65.5,81.65 61.7,79.26C60.1,78.25 58.72,75.73 57.93,73.94C56.97,71.78 56.02,68.48 55.67,66.02C55.49,64.72 55.39,63.88 55.77,62.74C56.67,60.09 62.2,58.33 65.2,57.52"/>
	<path class="st3" d="M104.92,54.47C103.37,54.67 102.29,56.21 102.5,57.92C102.71,59.63 104.14,60.86 105.69,60.67C107.24,60.47 108.32,58.93 108.11,57.21C107.9,55.5 106.47,54.28 104.92,54.47"/>
	<path class="st3" d="M67.04,63.49C65.49,63.69 64.41,65.23 64.62,66.94C64.83,68.65 66.26,69.88 67.81,69.69C69.35,69.49 70.44,67.95 70.23,66.23C70.02,64.52 68.59,63.3 67.04,63.49"/>
	<path class="st2" d="M30.67,138.94C33.21,137.54 36.12,136.83 39.27,136.83C40.47,136.83 41.61,136.92 42.7,137.11L42.7,137.11C42.54,136.53 42.4,135.94 42.3,135.34C41.35,130.18 42.33,127.11 45.38,122.57C46.75,120.53 47.74,118.86 48.76,118.72C48.95,118.7 49.12,118.71 49.28,118.75L50.06,118.98L49.61,119.66C48.81,120.89 48.04,122.72 47.42,124.63C46.67,126.92 46.13,129.3 45.95,130.88C45.84,131.89 45.93,133.05 46.21,134.25C46.61,135.98 47.4,137.53 48.23,139.07C48.76,139.38 49.26,139.71 49.75,140.08C49.99,140.17 50.29,140.12 50.55,139.99C52.45,138.59 54.61,137.65 57.03,137.18C57.08,135.41 56.96,133.57 56.76,131.81C56.76,131.77 56.76,131.73 56.76,131.68C56.75,131.09 56.75,130.52 56.77,129.95C56.94,122.31 58.99,116.61 62.14,112.79C65.35,108.91 69.68,106.98 74.39,106.91C74.61,106.9 74.84,106.91 75.06,106.91C75.65,106.92 76.25,106.93 76.86,106.94C81.1,106.99 86.21,107.06 91.72,109.15C98.78,110.74 100.19,116.66 102.46,126.16C103.35,129.87 104.43,133.55 105.39,137.25C107.85,136.7 110.43,136.69 112.89,137.18C111.32,131.73 109.52,126.33 107.95,120.87C107.94,120.85 107.94,120.83 107.94,120.82L103.95,102.86L103.95,102.85L101.87,94.94L101.87,94.94L101.87,94.94C101.47,93.36 101.36,91.92 101.7,90.57C101.92,89.74 102.3,88.96 102.9,88.22C97.1,89.03 91.11,89.77 85.71,89.67C84.45,92.74 79.86,93.09 76.07,93.39C74.79,93.49 73.6,93.58 72.74,93.77C72.32,93.86 71.9,93.58 71.81,93.15C71.72,92.72 71.99,92.3 72.42,92.21C73.38,92 74.62,91.91 75.95,91.8C78.99,91.57 82.61,91.28 83.93,89.6C78.04,89.27 73.01,87.78 69.92,84.06C69.79,83.89 69.73,83.69 69.74,83.48C65.93,84.09 62.13,83.69 59.37,81.89C54.72,78.85 51.98,72.39 49.54,66.45C46.46,64.94 45.8,62.64 46.45,60.42C46.88,58.96 48.41,59.13 49.91,58.71C57.88,53.12 71,52.7 80.29,51.53C82.85,50.83 85.42,50.14 87.98,49.44C92.8,47.26 97.45,45.01 102.22,43.41L101.36,43.13C101.13,43.25 100.86,43.28 100.59,43.2C100.01,43 99.11,43.08 98.19,43.32C97.17,43.58 96.18,44.03 95.6,44.54C95.18,44.89 94.56,44.84 94.21,44.43C93.86,44.01 93.91,43.38 94.32,43.03C94.93,42.5 95.82,42.02 96.76,41.68C92.65,40.45 87.99,39.29 83.71,39L78.28,38.62C63.86,37.64 60.6,40.66 50.71,41.86C50.53,41.71 50.35,41.57 50.18,41.44C47.38,40.02 44.49,38.79 41.52,37.75C40.8,37.89 39.99,38.07 39.58,38.44C39.12,38.84 39.2,39.67 40.72,41.4C40.91,41.63 40.91,41.97 40.72,42.19L40.72,42.19C40,43.04 38.38,42.7 36.98,42.42C36.51,42.32 36.07,42.23 35.78,42.2C36.41,43.63 36.62,44.65 36.56,45.35C36.54,45.68 36.45,45.96 36.31,46.18C36.15,46.43 35.95,46.61 35.7,46.72C35.42,46.85 35.1,46.9 34.77,46.87C34.22,46.82 33.68,46.51 33.11,46.18C32.48,45.82 31.78,45.42 31.09,45.46C33.36,49.19 35.48,52.92 36.54,57.45C36.7,58.14 36.69,58.42 36.62,59.17C35.42,72.3 33.48,85.24 31.42,98.28L33.08,101.78C33.13,101.87 33.17,101.98 33.18,102.09C33.59,105.39 33.93,107.94 33.9,111.07C33.89,112.1 33.42,112.89 33.04,113.89L31.99,116.72L29.31,123.87C26.56,128.99 28.42,134.17 30.67,138.94"/>
	<path class="st2" d="M3.09,138C5.11,137.22 7.34,136.83 9.79,136.83C15.64,136.83 20.25,139.03 23.62,143.44C23.93,143.84 25.16,143.85 25.49,143.43C26.44,142.18 27.51,141.12 28.69,140.22C26.65,134.6 24.45,128.86 27.53,123.02L32.15,110.68L31.44,102.46C29.53,98.42 29.48,99.23 30.14,95.06C25.05,93.81 23.55,94.17 23.25,95.37C23.08,96.07 23.15,97.09 23.24,98.26C23.44,100.78 23.67,103.89 21.8,106.94C21.52,107.4 20.92,107.55 20.45,107.26C20.27,107.14 20.14,106.95 19.99,106.79C18.38,104.96 16.61,103.89 15.16,103.44C14.53,103.25 13.98,103.18 13.56,103.22C12.93,103.28 13.11,103.43 13.11,103.99C13.06,109.49 10.26,111.74 8.13,113.46C6.81,114.53 6.53,114.93 6.13,116.55C5.4,119.44 4.78,122.46 4.28,125.67C3.64,129.77 3.23,133.87 3.09,138"/>
	<path class="st3" d="M128.85,117.66C128.89,117.34 128.65,117.04 128.33,117C128.01,116.96 127.71,117.2 127.67,117.52C127.5,119.01 127.64,120.18 127.92,121.06C128.38,122.47 129.23,123.21 129.77,123.36C130.08,123.44 130.4,123.26 130.49,122.94C130.58,122.62 130.39,122.3 130.08,122.21C129.81,122.13 129.36,121.67 129.05,120.7C128.81,119.96 128.69,118.96 128.85,117.66"/>
	<path class="st0" d="M67.81,64.25C67.37,64.31 67.06,64.71 67.12,65.16C67.17,65.6 67.57,65.92 68.01,65.86C68.44,65.81 68.75,65.4 68.69,64.96C68.64,64.51 68.24,64.2 67.81,64.25"/>
	<path class="st0" d="M105.69,55.23C105.26,55.29 104.95,55.69 105,56.14C105.06,56.58 105.46,56.9 105.89,56.84C106.32,56.79 106.63,56.38 106.58,55.94C106.52,55.49 106.13,55.18 105.69,55.23"/>
	<path class="st3" d="M139.68,110C142.37,109.67 144.7,110.66 144.9,112.23C144.99,113.01 144.53,113.69 143.99,114.19C143.01,113.96 141.91,113.88 140.78,113.98C139.38,114.11 137.99,114.48 136.78,115.26L136.78,115.26C136.04,114.93 135.27,114.33 135.16,113.45C134.97,111.89 136.99,110.34 139.68,110M140.95,115.95C143.62,115.71 145.99,116.71 146.24,118.18C146.5,119.66 144.54,121.04 141.87,121.29C139.2,121.53 136.83,120.53 136.58,119.06C136.32,117.59 138.28,116.2 140.95,115.95M139.68,122.26C141.69,122.08 143.45,122.85 143.62,124C143.79,125.14 142.3,126.22 140.29,126.41C138.28,126.59 136.52,125.82 136.35,124.68C136.18,123.53 137.67,122.45 139.68,122.26M128.85,117.66C128.69,118.96 128.81,119.96 129.05,120.7C129.36,121.67 129.81,122.13 130.08,122.21C130.39,122.3 130.58,122.62 130.49,122.94C130.4,123.26 130.08,123.44 129.77,123.36C129.23,123.21 128.38,122.47 127.92,121.06C127.64,120.18 127.5,119.01 127.67,117.52C127.71,117.2 128.01,116.96 128.33,117C128.65,117.04 128.89,117.34 128.85,117.66M110.71,112.58C110.38,115.77 110.97,122.24 112,126.83C117.18,127.36 126,125.51 134.44,125.16C134.17,123.87 134.73,122.62 135.71,121.78C135.8,121.7 135.8,121.52 135.72,121.44C134.5,120.19 134.22,118.38 135.15,116.87C135.21,116.76 135.22,116.66 135.1,116.59C134.05,115.89 133.36,114.9 133.21,113.7C133.02,112.16 133.78,110.74 135.16,109.68C135.46,109.45 135.81,109.23 136.19,109.03C136.47,106.19 137.25,103.44 134.18,103.46C131.27,104.14 128.14,113.25 128.14,113.25C125.81,114.81 117.02,115.29 110.71,112.58M29.48,42.82C29.77,43.3 30.06,43.78 30.35,44.25L30.42,44.36C31.65,43.98 32.73,44.6 33.69,45.15C34.15,45.41 34.57,45.65 34.87,45.68C35.01,45.69 35.12,45.68 35.21,45.64C35.25,45.62 35.28,45.59 35.3,45.55C35.35,45.48 35.37,45.38 35.39,45.24C35.43,44.7 35.22,43.8 34.59,42.43C34.28,41.76 34.45,41.35 34.95,41.11C35.43,40.89 36.27,41.06 37.21,41.25C37.95,41.4 38.78,41.57 39.31,41.56C37.75,39.52 37.93,38.32 38.8,37.54C39.01,37.36 39.26,37.21 39.53,37.08C39.1,36.95 38.68,36.82 38.25,36.69C38.13,36.66 38.01,36.62 37.88,36.59C36.27,36.15 34.58,35.76 32.92,35.44C30.61,34.99 28.35,34.69 26.4,34.65L26.16,35.76C26.84,37.36 27.65,39.18 28.5,40.91C28.82,41.56 29.15,42.21 29.48,42.82M58.2,10.1C54.58,12.18 52.83,12.64 53.66,10.57C54.25,9.11 53.69,8.27 52.08,7.76C50.56,7.28 44.67,8.64 41.44,12.44C37.68,16.85 34.77,23 35.08,27.88C35.31,31.55 38.79,34.57 42.91,34.87C50.44,34.56 56.13,32.63 50.49,38.82L52.39,39.41C63.73,38.03 66.67,36.08 82.48,37.16C91.78,37.8 97.51,39.75 105.04,41.72C105.43,41.82 107.65,40.64 108.03,40.37C108.04,40.21 108.05,40.05 108.05,39.89C107.91,29.05 93.78,27.45 81.59,26.61L77.25,26.31C69.13,25.76 64.34,26.03 58.51,27.45C54.48,28.42 54.54,26.8 57.37,25.89C58.5,25.53 42.89,22.33 66.03,24.61C66.41,24.72 67.29,24.48 66.85,23.8C65.45,21.61 64.61,20.43 62.79,17.19C61.89,15.6 67.13,20.71 69.49,24.04L87.95,24.47C95.01,20.16 98.72,19.53 92.19,24.78C91.46,25.37 92.3,25.53 93.47,25.62C100.05,26.13 113.33,24.92 103.07,28.48C106.45,28.11 113.79,32.54 110.38,34.71C121.38,34.72 126.69,25.53 114.94,19.71C113.91,7.44 104.21,5.75 93.81,6.3C88.93,6.57 84.94,7.87 80.32,8.37C79.08,8.5 78.01,8.69 78.68,7.78C85.16,4.05 74.73,1.8 67.48,4.92C64.91,6.03 62.1,7.87 58.2,10.1M58.33,131.66C58.52,133.39 58.62,135.19 58.62,136.95C58.08,137 57.55,137.08 57.03,137.18C57.08,135.41 56.96,133.57 56.76,131.81C56.76,131.77 56.76,131.73 56.76,131.68C56.75,131.09 56.75,130.52 56.77,129.95C56.94,122.31 58.99,116.61 62.14,112.79C65.35,108.91 69.68,106.98 74.39,106.91C74.61,106.9 74.84,106.91 75.06,106.91C75.65,106.92 76.24,106.93 76.86,106.94C81.1,106.99 86.21,107.06 91.72,109.15C98.78,110.74 100.19,116.66 102.46,126.16C103.35,129.87 104.43,133.55 105.39,137.25C104.86,137.37 104.34,137.51 103.83,137.68C102.9,133.95 101.83,130.27 100.94,126.53C98.81,117.61 97.48,112.06 91.34,110.69L91.34,110.69C91.3,110.68 91.27,110.67 91.23,110.66C85.94,108.64 80.97,108.58 76.84,108.53C76.21,108.52 75.6,108.51 75.03,108.5C74.82,108.49 74.61,108.49 74.41,108.49C70.16,108.55 66.25,110.31 63.35,113.81C60.41,117.37 58.5,122.74 58.34,129.99C58.32,130.53 58.32,131.09 58.33,131.66M47.42,124.63C46.67,126.92 46.12,129.3 45.95,130.88C45.84,131.89 45.93,133.05 46.21,134.25C46.61,135.98 47.4,137.53 48.23,139.07C46.57,138.1 44.72,137.45 42.7,137.11C42.54,136.53 42.4,135.94 42.3,135.34C41.35,130.18 42.33,127.11 45.38,122.57C46.75,120.53 47.74,118.86 48.76,118.72C48.95,118.7 49.12,118.71 49.28,118.75L50.06,118.98L49.61,119.66C48.8,120.89 48.04,122.72 47.42,124.63M119.05,62.47L119.04,62.46L119.03,62.45L119,62.43L118.97,62.41L118.97,62.41L118.94,62.39L118.88,62.35L118.85,62.33L118.82,62.31L118.79,62.29L118.76,62.27L118.76,62.27L118.73,62.25L118.7,62.24L118.68,62.22L118.65,62.2L118.62,62.18L118.61,62.17L118.59,62.16L118.56,62.14L118.54,62.13L118.53,62.12L118.5,62.1L118.47,62.08L118.47,62.08L118.45,62.06L118.42,62.04L118.39,62.02L118.36,61.99L118.34,61.98L118.33,61.97L118.3,61.95L118.28,61.93L118.27,61.93L118.25,61.91L118.22,61.89L118.2,61.87L118.19,61.87L118.16,61.85L118.14,61.83L118.13,61.82L118.11,61.81L118.08,61.79L118.06,61.77L118.05,61.76L118.03,61.74L118,61.72L118,61.72L117.97,61.7L117.94,61.68L117.93,61.67L117.92,61.66L117.91,61.65L117.86,61.61L117.81,61.57L117.79,61.56L117.78,61.55L117.75,61.53L117.73,61.51L117.73,61.5L117.7,61.48L117.67,61.46L117.66,61.45L117.64,61.44L117.62,61.41L117.6,61.4L117.59,61.39L117.56,61.37L117.54,61.35L117.53,61.34L117.51,61.32L117.48,61.3L117.47,61.29L117.46,61.28L117.43,61.26L117.41,61.23L117.4,61.23L117.38,61.21L117.35,61.19L117.34,61.17L117.33,61.16L117.3,61.14L117.27,61.12C113.89,58.09 111.76,53.29 110.56,47.55C110.52,47.34 110.47,47.11 110.42,46.85L110.42,46.85L110.42,46.82L110.41,46.81L110.41,46.79L110.41,46.78L110.4,46.77L110.4,46.76L110.4,46.74L110.4,46.73L110.39,46.73L110.39,46.71L110.39,46.69L110.38,46.68L110.38,46.66L110.38,46.65L110.38,46.64L110.37,46.63L110.37,46.61L110.37,46.6L110.36,46.6L110.36,46.58L110.36,46.57L110.36,46.56L110.35,46.55L110.35,46.53L110.35,46.52L110.34,46.5L110.34,46.48L110.34,46.47L110.34,46.47L110.33,46.45L110.33,46.44L110.33,46.42L110.33,46.42L110.32,46.4L110.32,46.39L110.32,46.38L110.32,46.37L110.31,46.36L110.31,46.34L110.31,46.33L110.3,46.32L110.3,46.31L110.3,46.29L110.29,46.27L110.29,46.26L110.29,46.24L110.28,46.23L110.28,46.21L110.28,46.2L110.28,46.19L110.27,46.18L110.27,46.16L110.27,46.15L110.27,46.14L110.26,46.11L110.26,46.11L110.26,46.1L110.25,46.08L110.25,46.06L110.25,46.06L110.25,46.05L110.24,46.03L110.24,46.02L110.24,46.02L110.24,46L110.23,45.98L110.23,45.97L110.23,45.97L110.23,45.95L110.22,45.93L110.22,45.93L110.22,45.92L110.22,45.9L110.21,45.89L110.21,45.88L110.21,45.87L110.21,45.85L110.2,45.84L110.2,45.84L110.2,45.82L110.2,45.8L110.19,45.79L110.19,45.79C112.23,45.56 114.16,45.67 115.21,46.56C116.13,47.34 116.47,48.11 116.98,49.31C117.95,51.61 118.82,54.92 119.11,57.27C119.3,58.77 119.41,60.82 119.05,62.47M104.48,47.02C105.6,46.7 107.09,46.3 108.63,46.02L108.64,46.04L108.64,46.05L108.64,46.07L108.64,46.07L108.65,46.09L108.65,46.11L108.65,46.12L108.66,46.14L108.66,46.16L108.66,46.17L108.66,46.18L108.67,46.19L108.67,46.21L108.68,46.23L108.68,46.24L108.68,46.25L108.68,46.27L108.69,46.27L108.69,46.28L108.69,46.3L108.69,46.31L108.69,46.32L108.7,46.34L108.7,46.34L108.7,46.35L108.71,46.37L108.71,46.39L108.71,46.41L108.71,46.41L108.72,46.42L108.72,46.44L108.72,46.46L108.73,46.48L108.73,46.5L108.74,46.51L108.74,46.53L108.74,46.55L108.75,46.57L108.75,46.58L108.75,46.6L108.76,46.61L108.76,46.62L108.76,46.64L108.76,46.65L108.77,46.66L108.77,46.67L108.77,46.69L108.78,46.71L108.78,46.73L108.79,46.74L108.79,46.76L108.79,46.78L108.79,46.78L108.8,46.8L108.8,46.82L108.81,46.83L108.81,46.85L108.81,46.87L108.82,46.88L108.82,46.89L108.82,46.9L108.82,46.92L108.82,46.92L108.83,46.94L108.83,46.95L108.83,46.96L108.84,46.98L108.84,46.99L108.84,46.99L108.85,47.01L108.85,47.03L108.85,47.05L108.86,47.07L108.86,47.08L108.86,47.09L108.87,47.1L108.87,47.12L108.87,47.12L108.87,47.14L108.88,47.16C108.92,47.37 108.97,47.61 109.02,47.87C110.28,53.93 112.57,59.03 116.23,62.3L116.24,62.31L116.24,62.31L116.25,62.32L116.25,62.32L116.26,62.33L116.26,62.33L116.27,62.33L116.27,62.33L116.27,62.34L116.28,62.34L116.28,62.35L116.29,62.35L116.29,62.36L116.3,62.36L116.3,62.36L116.3,62.37L116.31,62.37L116.31,62.38L116.32,62.38L116.32,62.38L116.33,62.39L116.33,62.39L116.33,62.39L116.34,62.4L116.34,62.4L116.35,62.4L116.35,62.41L116.36,62.41L116.36,62.42L116.36,62.42L116.37,62.42L116.37,62.42L116.37,62.43L116.38,62.43L116.38,62.44L116.39,62.44L116.39,62.45L116.4,62.45L116.4,62.45L116.4,62.45L116.41,62.46L116.41,62.46L116.42,62.47L116.42,62.47L116.43,62.47L116.43,62.48L116.43,62.48L116.44,62.48L116.44,62.49L116.44,62.49L116.45,62.49L116.45,62.5L116.46,62.5L116.46,62.51L116.47,62.51L116.47,62.51L116.47,62.51L116.48,62.52L116.48,62.52L116.49,62.53L116.49,62.53L116.5,62.54L116.5,62.54L116.5,62.54L116.51,62.54L116.51,62.55L116.52,62.55L116.52,62.56L116.53,62.56L116.53,62.56L116.53,62.57L116.54,62.57L116.55,62.58L116.55,62.58L116.55,62.58L116.55,62.58L116.56,62.59L116.56,62.59L116.56,62.59L116.56,62.59L116.57,62.59L116.57,62.6L116.57,62.6L116.57,62.6L116.57,62.6L116.57,62.6L116.58,62.6L116.58,62.6L116.58,62.61L116.58,62.61L116.59,62.61L116.59,62.61L116.59,62.61L116.59,62.62L116.59,62.62L116.6,62.62L116.6,62.62L116.6,62.62L116.6,62.63L116.6,62.63L116.61,62.63L116.61,62.63L116.61,62.63L116.61,62.63L116.62,62.64L116.62,62.64L116.62,62.64L116.62,62.64L116.62,62.64L116.63,62.65L116.63,62.65L116.63,62.65L116.63,62.65L116.64,62.65L116.64,62.65L116.64,62.65L116.64,62.66L116.64,62.66L116.65,62.66L116.65,62.66L116.65,62.66L116.65,62.67L116.65,62.67L116.66,62.67L116.66,62.67L116.66,62.67L116.66,62.68L116.67,62.68L116.67,62.68L116.67,62.68L116.67,62.68L116.67,62.68L116.68,62.69L116.68,62.69L116.68,62.69L116.68,62.69L116.68,62.69L116.69,62.69L116.69,62.7L116.69,62.7L116.69,62.7L116.7,62.71L116.7,62.71L116.71,62.71L116.71,62.71L116.71,62.72L116.71,62.72L116.72,62.72L116.72,62.72L116.72,62.72L116.73,62.73L116.73,62.73L116.73,62.73L116.73,62.73L116.73,62.73L116.74,62.74L116.74,62.74L116.74,62.74L116.74,62.74L116.74,62.74L116.75,62.74L116.75,62.74L116.75,62.75L116.75,62.75L116.75,62.75L116.76,62.75L116.76,62.75L116.76,62.76L116.76,62.76L116.77,62.76L116.77,62.76L116.77,62.76L116.77,62.77L116.77,62.77L116.77,62.77L116.78,62.77L116.78,62.77L116.78,62.77L116.78,62.77L116.79,62.78L116.79,62.78L116.79,62.78L116.79,62.78L116.79,62.78L116.8,62.79L116.8,62.79L116.8,62.79L116.8,62.79L116.81,62.79L116.81,62.79L116.81,62.8L116.81,62.8L116.81,62.8L116.82,62.8L116.82,62.8L116.82,62.81L116.82,62.81L116.83,62.81L116.83,62.81L116.83,62.81L116.83,62.81L116.83,62.82L116.84,62.82L116.84,62.82L116.84,62.82L116.84,62.82L116.84,62.82L116.85,62.83L116.85,62.83L116.85,62.83L116.88,62.85L116.88,62.85L116.88,62.85L116.88,62.85L116.88,62.85L116.88,62.86L116.89,62.86L116.89,62.86L116.89,62.86L116.89,62.86L116.89,62.86L116.9,62.86L116.9,62.87L116.9,62.87L116.9,62.87L116.9,62.87L116.91,62.87L116.91,62.87L116.91,62.88L116.91,62.88L116.91,62.88L116.92,62.88L116.92,62.88L116.92,62.89L116.92,62.89L116.93,62.89L116.93,62.89L116.93,62.89L116.93,62.89L116.93,62.9L116.94,62.9L116.94,62.9L116.94,62.9L116.94,62.9L116.94,62.9L116.95,62.9L116.95,62.91L116.95,62.91L116.95,62.91L116.95,62.91L116.95,62.91L116.95,62.91L116.96,62.91L116.96,62.92L116.96,62.92L116.96,62.92L116.97,62.92L116.97,62.92L116.97,62.92L116.97,62.92L116.97,62.93L116.97,62.93L116.98,62.93L116.98,62.93L116.98,62.93L116.98,62.93L116.99,62.94L116.99,62.94L116.99,62.94L116.99,62.94L116.99,62.94L116.99,62.94L117,62.94L117,62.95L117,62.95L117,62.95L117.02,62.96L117.04,62.98L117.04,62.98L117.04,62.98L117.04,62.98L117.04,62.98L117.05,62.98L117.05,62.99L117.05,62.99L117.05,62.99L117.05,62.99L117.05,62.99L117.06,62.99L117.06,62.99L117.06,63L117.06,63L117.06,63L117.07,63L117.07,63L117.07,63L117.07,63L117.07,63.01L117.08,63.01L117.08,63.01L117.08,63.01L117.08,63.01L117.09,63.01L117.09,63.01L117.09,63.02L117.09,63.02L117.09,63.02L117.09,63.02L117.1,63.02L117.1,63.02L117.1,63.02L117.1,63.03L117.1,63.03L117.11,63.03L117.11,63.03L117.11,63.03L117.11,63.03L117.11,63.04L117.12,63.04L117.12,63.04L117.12,63.04L117.12,63.04L117.13,63.05L117.13,63.05L117.13,63.05L117.13,63.05L117.13,63.05L117.14,63.05L117.14,63.05L117.14,63.06L117.14,63.06L117.14,63.06L117.15,63.06L117.15,63.06L117.15,63.06L117.15,63.07L117.15,63.07L117.16,63.07L117.16,63.07L117.16,63.07L117.16,63.07L117.16,63.07L117.16,63.07L117.17,63.08L117.19,63.1L117.2,63.1L117.2,63.1L117.2,63.1L117.2,63.11L117.21,63.11L117.21,63.11L117.21,63.11L117.21,63.11L117.21,63.11L117.22,63.11L117.22,63.12L117.22,63.12L117.22,63.12L117.22,63.12L117.23,63.12L117.23,63.12L117.23,63.12L117.23,63.13L117.23,63.13L117.24,63.13L117.24,63.13L117.24,63.13L117.24,63.13L117.24,63.14L117.25,63.14L117.25,63.14L117.25,63.14L117.25,63.14L117.25,63.14L117.26,63.14L117.26,63.15L117.26,63.15L117.26,63.15L117.26,63.15L117.26,63.15L117.27,63.15L117.27,63.15L117.27,63.16L117.27,63.16L117.28,63.16L117.28,63.16L117.28,63.16L117.28,63.16L117.28,63.17L117.29,63.17L117.29,63.17L117.29,63.17L117.29,63.17L117.29,63.17L117.3,63.17L117.3,63.18L117.3,63.18L117.3,63.18L117.3,63.18L117.3,63.18L117.31,63.18L117.31,63.18L117.31,63.19L117.31,63.19L117.32,63.19L117.32,63.19L117.32,63.19L117.32,63.19L117.32,63.2L117.33,63.2L117.33,63.2L117.33,63.2L117.33,63.2L117.36,63.22L117.36,63.22L117.36,63.22L117.37,63.23L117.37,63.23L117.37,63.23L117.37,63.23L117.37,63.23L117.37,63.23L117.38,63.23L117.38,63.24L117.38,63.24L117.38,63.24L117.39,63.24L117.39,63.24L117.39,63.24L117.39,63.25L117.39,63.25L117.4,63.25L117.4,63.25L117.4,63.25L117.4,63.25L117.4,63.25L117.4,63.25L117.41,63.26L117.41,63.26L117.41,63.26L117.41,63.26L117.41,63.26L117.42,63.26L117.42,63.27L117.42,63.27L117.42,63.27L117.43,63.27L117.43,63.27L117.43,63.27L117.43,63.27L117.43,63.28L117.44,63.28L117.44,63.28L117.44,63.28L117.44,63.28L117.44,63.28L117.44,63.28L117.45,63.29L117.45,63.29L117.45,63.29L117.45,63.29L117.45,63.29L117.46,63.29L117.46,63.29L117.46,63.3L117.46,63.3L117.47,63.3L117.47,63.3L117.47,63.3L117.47,63.3L117.47,63.31L117.48,63.31L117.48,63.31L117.48,63.31L117.48,63.31L117.48,63.31L117.48,63.31L117.49,63.31L117.49,63.32L117.49,63.32L117.49,63.32L117.49,63.32L117.51,63.33L117.53,63.34L117.53,63.34L117.53,63.35L117.53,63.35L117.53,63.35L117.54,63.35L117.54,63.35L117.54,63.35L117.54,63.35L117.54,63.36L117.55,63.36L117.55,63.36L117.55,63.36L117.55,63.36L117.55,63.36L117.55,63.36L117.56,63.36L117.56,63.37L117.56,63.37L117.56,63.37L117.56,63.37L117.57,63.37L117.57,63.37L117.57,63.37L117.57,63.38L117.58,63.38L117.58,63.38L117.58,63.38L117.58,63.38L117.58,63.38L117.59,63.39L117.59,63.39L117.59,63.39L117.6,63.39L117.6,63.39L117.6,63.4L117.6,63.4L117.6,63.4L117.61,63.4L117.61,63.4L117.61,63.4L117.61,63.4L117.61,63.41L117.62,63.41L117.62,63.41L117.62,63.41L117.62,63.41L117.62,63.41L117.62,63.41L117.63,63.41L117.63,63.42L117.63,63.42L117.63,63.42L117.63,63.42L117.64,63.42L117.64,63.42L117.64,63.42L117.64,63.43L117.65,63.43L117.65,63.43L117.65,63.43L117.65,63.43L117.66,63.43L117.66,63.44L117.69,63.46L117.7,63.47L117.71,63.47L117.82,63.55L117.84,63.56L117.87,63.58L117.87,63.58L117.87,63.58L117.87,63.59L117.88,63.59L117.88,63.59L117.88,63.59L117.88,63.59L117.88,63.59L117.89,63.59L117.89,63.59L117.89,63.6L117.89,63.6L117.89,63.6L117.89,63.6L117.9,63.6L117.9,63.6L117.9,63.6L117.9,63.6L117.9,63.61L117.91,63.61L117.91,63.61L117.91,63.61L117.91,63.61L117.91,63.61L117.91,63.61L117.91,63.61L117.92,63.61L117.92,63.61L117.92,63.62L117.92,63.62L117.92,63.62L117.93,63.62L117.93,63.62L117.93,63.62L117.93,63.62L117.93,63.63L117.93,63.63L117.94,63.63L117.94,63.63L117.94,63.63L117.94,63.63L117.94,63.63L117.95,63.63L117.95,63.63L117.95,63.63L117.95,63.64L117.95,63.64L117.95,63.64L117.96,63.64L117.96,63.64L117.96,63.64L117.96,63.64L117.96,63.64L117.96,63.65L117.97,63.65L117.97,63.65L117.97,63.65L117.97,63.65L117.97,63.65L117.98,63.65L117.98,63.65L117.98,63.66L117.98,63.66L117.98,63.66L117.98,63.66L117.99,63.66L117.99,63.66L118.02,63.68L118.04,63.7L118.06,63.71L118.15,63.77L118.17,63.78L118.21,63.8L118.22,63.81L118.24,63.83L118.32,63.87L118.33,63.88L118.36,63.9L118.39,63.92L118.39,63.92L118.4,63.92L118.51,63.99C116.4,67.9 110.73,70.15 106.03,70.74C99.24,71.6 93.37,64 92.09,58.51C90.55,51.88 99.78,48.41 104.48,47.02M71.26,83.19C77.37,90.27 92.25,88.14 105.42,86.26L105.54,86.24C105.63,86.23 105.72,86.23 105.8,86.25L108.13,85.38L116.84,81.4C117.98,80.71 119.25,80.03 120.61,79.31C124.36,77.29 128.76,74.93 131.47,71.87C130.36,70.17 129.71,68.41 129.45,66.08C126.48,66.4 123.88,66.14 121.6,65.4C120.66,67.2 118.98,68.81 116.21,70.41C107.7,75.29 100.26,74.53 94.89,68.64C91.93,65.24 89.26,60.38 87.99,57.96C87.49,57.01 85.27,57.5 85.3,59.15C85.38,63.79 86.76,69.54 83.37,75.41C81.24,79.11 76.37,82.02 71.26,83.19M49.46,62.5C47.45,59.56 55.87,56.98 56.4,58.34C56.87,59.54 50.75,64.38 49.46,62.5M57.38,57.88C56.5,56.59 59.19,56.25 59.42,56.85C59.63,57.38 57.95,58.71 57.38,57.88M65.2,57.52C62.2,58.33 56.67,60.09 55.77,62.74C55.39,63.88 55.49,64.72 55.67,66.02C56.02,68.48 56.97,71.78 57.93,73.94C58.72,75.73 60.1,78.25 61.7,79.26C65.5,81.65 71.61,80.56 76.03,78.63C82.91,75.62 83.41,66.24 81.69,60.88C79.6,54.4 69.92,56.25 65.2,57.52M65.52,50.77C64.94,50.58 64.04,50.65 63.12,50.89C62.1,51.15 61.11,51.6 60.52,52.11C60.11,52.47 59.49,52.42 59.14,52C58.78,51.59 58.83,50.96 59.24,50.6C60.06,49.9 61.35,49.29 62.63,48.96C63.88,48.64 65.18,48.56 66.13,48.88C66.65,49.05 66.93,49.61 66.76,50.14C66.59,50.66 66.03,50.94 65.52,50.77M49.2,79.51C45.17,79.39 43.52,80.1 43.51,80.11C43.11,80.27 42.65,80.08 42.48,79.68C42.32,79.27 42.51,78.81 42.91,78.64C42.91,78.63 44.49,77.96 47.99,77.91C45.35,76.16 43.95,75.89 43.94,75.89C43.52,75.81 43.24,75.39 43.32,74.96C43.4,74.53 43.82,74.25 44.24,74.33C44.25,74.33 46.33,74.73 49.9,77.31C50.25,77.56 50.33,78.06 50.08,78.42C50.05,78.46 50.02,78.5 49.99,78.53C50,78.6 50.01,78.67 50.01,78.74C50,79.18 49.64,79.52 49.2,79.51M135.6,127.08C131.77,127.17 127.72,127.64 123.96,128.07C119.27,128.61 115.87,129.15 112.06,128.76L114.94,137.71C114.82,137.67 114.7,137.63 114.58,137.59C114.03,137.43 113.46,137.29 112.89,137.18C111.32,131.73 109.51,126.33 107.95,120.87C107.94,120.85 107.94,120.84 107.94,120.82L103.95,102.86L103.95,102.85L101.87,94.94L101.87,94.94L101.87,94.94C101.47,93.36 101.36,91.92 101.7,90.57C101.92,89.74 102.3,88.96 102.9,88.22C97.1,89.03 91.11,89.77 85.71,89.67C84.45,92.74 79.86,93.09 76.07,93.39C74.79,93.49 73.6,93.58 72.74,93.77C72.32,93.86 71.9,93.58 71.81,93.15C71.72,92.72 71.99,92.3 72.42,92.21C73.38,92 74.62,91.91 75.95,91.8C78.99,91.57 82.61,91.28 83.93,89.6C78.04,89.27 73.01,87.78 69.92,84.06C69.79,83.89 69.73,83.69 69.74,83.48C65.93,84.09 62.13,83.69 59.37,81.89C54.72,78.85 51.98,72.39 49.54,66.45C46.46,64.94 45.8,62.64 46.45,60.42C46.88,58.96 48.41,59.13 49.91,58.71C57.88,53.12 71,52.7 80.29,51.53C82.85,50.83 85.42,50.14 87.98,49.44C92.8,47.26 97.45,45.01 102.22,43.41L101.36,43.13C101.13,43.25 100.86,43.28 100.59,43.2C100.01,43 99.11,43.08 98.19,43.32C97.17,43.58 96.18,44.03 95.6,44.54C95.18,44.89 94.56,44.84 94.21,44.43C93.86,44.01 93.91,43.38 94.32,43.03C94.93,42.5 95.82,42.02 96.76,41.68C92.65,40.45 87.99,39.29 83.71,39L78.28,38.62C63.86,37.64 60.6,40.66 50.71,41.86C50.53,41.71 50.35,41.57 50.18,41.44C47.38,40.02 44.49,38.79 41.52,37.75C40.8,37.89 39.99,38.07 39.58,38.44C39.12,38.84 39.2,39.67 40.72,41.4C40.91,41.63 40.91,41.97 40.72,42.19L40.72,42.19C40,43.04 38.38,42.7 36.98,42.42C36.51,42.32 36.07,42.23 35.78,42.2C36.41,43.63 36.62,44.65 36.56,45.35C36.54,45.68 36.45,45.96 36.31,46.18C36.15,46.43 35.95,46.61 35.7,46.72C35.42,46.86 35.1,46.9 34.77,46.87C34.22,46.82 33.68,46.51 33.11,46.18C32.48,45.82 31.78,45.42 31.09,45.46C33.36,49.19 35.48,52.92 36.54,57.45C36.7,58.14 36.69,58.42 36.62,59.17C35.42,72.3 33.48,85.24 31.42,98.28L33.07,101.78C33.13,101.87 33.17,101.98 33.18,102.09C33.59,105.39 33.93,107.94 33.9,111.07C33.89,112.1 33.42,112.89 33.04,113.89L31.99,116.72L29.31,123.87C26.56,128.99 28.42,134.17 30.67,138.94C29.98,139.31 29.32,139.74 28.69,140.22C26.65,134.6 24.45,128.86 27.53,123.02L32.15,110.68L31.44,102.46C29.53,98.42 29.48,99.23 30.14,95.06C25.05,93.81 23.55,94.17 23.25,95.37C23.08,96.07 23.16,97.09 23.24,98.26C23.44,100.78 23.67,103.89 21.8,106.94C21.52,107.4 20.91,107.55 20.45,107.26C20.27,107.14 20.13,106.95 19.99,106.79C18.38,104.96 16.6,103.89 15.16,103.44C14.53,103.25 13.98,103.18 13.56,103.22C12.93,103.28 13.11,103.43 13.11,103.99C13.06,109.49 10.26,111.74 8.13,113.46C6.81,114.53 6.53,114.93 6.13,116.55C5.4,119.44 4.78,122.46 4.28,125.67C3.64,129.77 3.23,133.87 3.09,138C2.32,138.3 1.59,138.65 0.89,139.06C1.3,134.49 1.64,129.91 2.34,125.37C2.9,121.8 3.6,118.45 4.43,115.25C4.58,114.67 4.68,114.19 4.72,113.6C5.06,108.5 5.05,103.62 4.43,98.78C3.77,93.69 2.43,88.62 0.08,83.39C-0.16,82.83 0.15,82.17 0.72,82.02C5.29,80.48 11.26,80.96 16.88,82.59C22.55,84.24 27.9,87.09 31.1,90.25L34.99,59.68C35.08,58.71 35.1,58.11 34.85,57.16C33.67,52.68 31.37,48.92 29.01,45.08C27.28,42.25 25.51,39.37 24.13,36.11C24.05,35.94 24.05,35.75 24.09,35.58L24.67,33.2C24.77,32.8 25.14,32.55 25.53,32.6C28.06,32.84 30.59,33.23 33.08,33.75C28.11,28.97 30.7,22.2 33.58,16.61C35.53,12.82 39.7,8.8 43.98,6.52C49.44,3.6 55.84,3.39 57.22,7.3C60.52,5.28 66.71,1.07 72.97,0.33C75.89,-0.01 79.82,-0.28 82.77,0.55C85.33,1.28 86.11,2.88 85.58,4.17C98.19,0.55 117.11,0.53 117.78,17.28C130.99,23.14 126.26,37.64 111.94,37.62C111.75,38.51 111.47,39.98 111.02,41.38C111.95,41.27 112.9,41.2 113.85,41.18C115.55,41.13 117.2,40.43 118.94,40.24C122.79,41.16 122.8,46.45 120.97,49.07C121.86,54.68 122.9,58.79 122.54,62.14C124.56,59.05 126.06,58.04 126.06,58.04C126.42,57.79 126.91,57.88 127.16,58.25C127.4,58.61 127.31,59.1 126.95,59.35C126.95,59.35 125.6,60.26 123.64,63.36C126.83,61.32 128.64,61.03 128.65,61.03C129.08,60.95 129.48,61.25 129.55,61.68C129.63,62.11 129.34,62.52 128.91,62.59C128.9,62.59 127.5,62.82 124.81,64.49C126.8,64.74 129.01,64.65 131.48,64.16C131.65,64.13 131.79,64.1 131.91,64.07L134.5,63.52C134.92,63.43 135.34,63.71 135.43,64.14L135.43,64.16L135.43,64.16C136.89,72.38 128.12,77.08 121.34,80.71C119.95,81.46 118.65,82.16 117.6,82.8C117.57,82.81 117.55,82.83 117.52,82.84L117.52,82.84L108.73,86.85C108.72,86.85 108.7,86.86 108.68,86.87L108.68,86.87L105.2,88.17C104.1,89.04 103.48,89.97 103.22,90.97C102.95,92.03 103.05,93.22 103.39,94.54L103.39,94.54L105.47,102.44C105.48,102.47 105.48,102.49 105.48,102.51L106.48,107.01L107.8,108.36C109.82,110.43 113.16,111.6 116.55,112.14C120.72,112.81 124.77,112.55 126.53,111.82C127.35,109.64 129.96,103.3 132.98,101.76C133.78,101.36 134.49,101.39 135.38,101.53C137.77,101.92 138.41,103.57 138.42,105.8C138.43,106.6 138.34,107.35 138.24,108.13C138.24,108.17 138.26,108.21 138.31,108.2C138.67,108.11 139.03,108.05 139.41,108C141.09,107.79 142.7,108.01 143.95,108.54C145.55,109.22 146.63,110.41 146.82,111.95C146.95,113.01 146.64,114 145.98,114.87C145.96,114.9 145.96,114.92 146,114.94C147.16,115.62 147.95,116.61 148.15,117.81C148.41,119.31 147.64,120.71 146.47,121.63C146.15,121.88 145.78,122.11 145.38,122.31C145.22,122.39 145.15,122.53 145.23,122.7C145.41,123.06 145.51,123.45 145.55,123.85C145.67,125.11 145.07,126.23 144,127.05C142.08,128.53 139,128.79 136.82,127.83C136.36,127.63 135.95,127.38 135.6,127.08M105.69,55.23C106.13,55.18 106.53,55.49 106.58,55.94C106.64,56.38 106.33,56.78 105.89,56.84C105.46,56.89 105.06,56.58 105.01,56.13C104.95,55.69 105.26,55.29 105.69,55.23M104.92,54.47C106.47,54.28 107.9,55.5 108.11,57.21C108.32,58.93 107.24,60.47 105.69,60.67C104.14,60.86 102.71,59.63 102.5,57.92C102.29,56.21 103.37,54.67 104.92,54.47M67.81,64.25C68.24,64.2 68.64,64.51 68.7,64.96C68.75,65.4 68.44,65.8 68.01,65.86C67.57,65.91 67.18,65.6 67.12,65.15C67.07,64.71 67.38,64.31 67.81,64.25M67.04,63.49C68.59,63.3 70.02,64.52 70.23,66.23C70.44,67.95 69.35,69.49 67.81,69.69C66.26,69.88 64.83,68.65 64.62,66.94C64.41,65.23 65.49,63.69 67.04,63.49M6.8,111.7C6.79,111.82 6.77,112.01 7.04,111.8C8.9,110.29 11.27,108.27 11.14,103.43C11.13,102.96 11.25,102.55 11.5,102.2C11.89,101.66 12.54,101.33 13.38,101.25C14.04,101.18 14.85,101.27 15.73,101.54C17,101.94 18.47,102.71 19.9,103.93C20.8,104.7 20.99,103.99 21.08,103.62C21.54,101.81 21.4,99.98 21.28,98.41C21.18,97.07 21.09,95.9 21.34,94.89C21.89,92.68 23.69,91.68 29.11,92.79C30.2,93.02 30.3,92.41 30.1,92.05C27.2,88.97 21.95,86.13 16.34,84.5C11.67,83.14 6.78,82.62 2.82,83.49C2.22,83.63 2.33,83.6 2.55,84.15C4.57,89.01 5.76,93.76 6.37,98.53C6.93,102.87 7.03,107.22 6.8,111.7"/>
</svg>