<svg xmlns="http://www.w3.org/2000/svg" style="display: none;">
  <symbol xmlns="http://www.w3.org/2000/svg" viewBox="0 0 462.48 462.18" id="phone-icon">
    <path d="M462.26 364.75c.98 7.5-1.31 14.03-6.85 19.58l-65.12 64.63c-2.94 3.26-6.78 6.03-11.51 8.32-4.73 2.28-9.38 3.75-13.95 4.41-.33 0-1.31.08-2.94.24-1.63.17-3.75.25-6.36.25-6.2 0-16.24-1.06-30.11-3.19-13.88-2.12-30.85-7.34-50.92-15.66-20.08-8.33-42.84-20.81-68.3-37.46-25.46-16.64-52.55-39.49-81.27-68.54-22.85-22.52-41.78-44.07-56.8-64.63-15.01-20.56-27.09-39.57-36.23-57.04-9.14-17.46-15.99-33.29-20.56-47.49-4.57-14.2-7.67-26.44-9.31-36.72C.4 121.17-.24 113.09.08 107.22c.32-5.88.48-9.14.48-9.8.66-4.57 2.13-9.21 4.41-13.95 2.29-4.73 5.06-8.57 8.33-11.5L78.41 6.85C82.98 2.28 88.21 0 94.08 0c4.24 0 8 1.22 11.26 3.67s6.04 5.46 8.32 9.05l52.39 99.39c2.94 5.22 3.75 10.94 2.45 17.14-1.31 6.2-4.08 11.42-8.32 15.67l-23.99 23.98c-.66.66-1.23 1.72-1.72 3.19s-.73 2.69-.73 3.67c1.3 6.86 4.24 14.69 8.81 23.5 3.92 7.84 9.96 17.38 18.12 28.64 8.16 11.26 19.74 24.24 34.76 38.93 14.69 15.01 27.74 26.68 39.17 35 11.42 8.32 20.97 14.45 28.64 18.36 7.67 3.92 13.54 6.29 17.62 7.1l6.12 1.22c.65 0 1.72-.24 3.18-.73 1.47-.49 2.54-1.06 3.19-1.72l27.9-28.39c5.88-5.22 12.73-7.84 20.57-7.84 5.55 0 9.95.98 13.21 2.94h.5l94.49 55.82c6.85 4.24 10.93 9.63 12.24 16.16"
    fill-rule="evenodd" clip-rule="evenodd"></path>
  </symbol>
  <symbol xmlns="http://www.w3.org/2000/svg" viewBox="0 0 370.85 512" id="geo-icon">
    <path d="M185.42 469.72c-55.85-66.33-152.03-197.21-152.03-284.3 0-83.83 68.2-152.03 152.03-152.03s152.04 68.2 152.04 152.03c0 87.09-96.18 217.94-152.04 284.3m0-469.72C83.18 0 0 83.18 0 185.42c0 126.89 165.93 313.17 173 321.04 6.63 7.39 18.22 7.37 24.84 0 7.07-7.87 173.01-194.15 173.01-321.04C370.85 83.18 287.67 0 185.42 0" fill-rule="evenodd" clip-rule="evenodd"></path>
    <path d="M185.42 245.32c-33.03 0-59.9-26.87-59.9-59.9s26.87-59.9 59.9-59.9 59.9 26.87 59.9 59.9-26.87 59.9-59.9 59.9m0-153.19c-51.44 0-93.29 41.85-93.29 93.29 0 51.44 41.85 93.29 93.29 93.29 51.44 0 93.29-41.85 93.29-93.29 0-51.44-41.85-93.29-93.29-93.29" fill-rule="evenodd" clip-rule="evenodd"></path>
  </symbol>
  <symbol xmlns="http://www.w3.org/2000/svg" viewBox="0 0 116.8 100.11" id="comment-icon">
    <path d="M101.64 58.33c-4.54 5.13-10.67 9.2-18.38 12.22-7.71 3.02-16 4.53-24.87 4.53-2.65 0-5.47-.18-8.47-.52l-3.71-.39-2.81 2.48c-5.34 4.69-11.32 8.4-17.92 11.14 1.99-3.52 3.52-7.26 4.56-11.21l1.76-6.26-5.67-3.25C20.48 63.85 16.1 60.03 13 55.62c-3.11-4.41-4.66-9.04-4.66-13.91 0-5.95 2.27-11.49 6.81-16.62 4.54-5.13 10.66-9.2 18.38-12.22 7.71-3.02 16-4.53 24.86-4.53 8.87 0 17.16 1.51 24.87 4.53 7.71 3.02 13.84 7.09 18.38 12.22 4.54 5.13 6.81 10.67 6.81 16.62 0 5.95-2.27 11.49-6.81 16.62m7.33-37.58c-5.21-6.4-12.3-11.47-21.24-15.18C78.77 1.85 69 0 58.39 0c-10.6 0-20.38 1.85-29.33 5.57-8.95 3.71-16.03 8.77-21.25 15.18C2.6 27.16 0 34.15 0 41.71c0 6.52 1.96 12.62 5.89 18.32 3.94 5.69 9.31 10.47 16.14 14.34a42.95 42.95 0 0 1-1.7 4.95c-.65 1.56-1.24 2.84-1.76 3.84s-1.23 2.11-2.12 3.33c-.89 1.22-1.56 2.07-2.02 2.57-.46.5-1.21 1.33-2.25 2.48s-1.71 1.9-2.02 2.25c-.04.02-.22.22-.52.58-.3.37-.45.56-.45.56l-.39.58c-.22.33-.32.54-.3.62.02.09-.02.31-.13.65-.11.35-.1.61.03.79v.06c.18.74.53 1.34 1.04 1.79.53.46 1.11.69 1.77.69h.32c2.83-.35 5.3-.83 7.43-1.44 11.39-2.91 21.38-8.16 29.98-15.77 3.26.35 6.41.52 9.45.52 10.61 0 20.39-1.85 29.34-5.57 8.94-3.72 16.03-8.78 21.24-15.19 5.22-6.4 7.83-13.39 7.83-20.95 0-7.56-2.61-14.55-7.83-20.96"
    fill-rule="evenodd" clip-rule="evenodd"></path>
  </symbol>
  <symbol xmlns="http://www.w3.org/2000/svg" viewBox="0 0 264 264" id="info-icon">
    <path d="M132 240c-59.56 0-108-48.45-108-108C24 72.44 72.44 24 132 24c59.55 0 108 48.44 108 108 0 59.55-48.45 108-108 108m0-240C59.21 0 0 59.21 0 132c0 72.78 59.21 132 132 132 72.78 0 132-59.22 132-132C264 59.21 204.78 0 132 0" fill-rule="evenodd" clip-rule="evenodd"></path>
    <path d="M132 56c-8.83 0-16 7.18-16 16s7.17 16 16 16c8.82 0 15.99-7.18 15.99-16S140.82 56 132 56m0 56c-6.63 0-12 5.37-12 12v72c0 6.62 5.37 12 12 12 6.62 0 12-5.38 12-12v-72c0-6.63-5.38-12-12-12" fill-rule="evenodd" clip-rule="evenodd"></path>
  </symbol>
  <symbol xmlns="http://www.w3.org/2000/svg" viewBox="0 0 93.84 93.83" id="basket-icon">
    <path d="M7.09 86.39l9.68-58.23h15.59v18.32c0 1.84 1.44 3.28 3.28 3.28 1.84 0 3.29-1.44 3.29-3.28V28.16h15.03v18.32c0 1.84 1.44 3.28 3.28 3.28 1.85 0 3.28-1.44 3.28-3.28V28.16h15.6l9.68 58.23zm31.84-72.32c0-4.15 3.35-7.52 7.51-7.52 4.17 0 7.52 3.37 7.52 7.52v7.53H38.93zm43.19 10.24c-.24-1.6-1.6-2.71-3.19-2.71H60.52v-7.53C60.52 6.31 54.2 0 46.44 0S32.36 6.31 32.36 14.07v7.53h-18.4c-1.6 0-2.96 1.11-3.19 2.71L.04 89.12c-.15.95.08 1.91.73 2.64.63.72 1.51 1.11 2.47 1.11h86.48c1.84 0 3.28-1.43 3.28-3.27 0-.41-.07-.73-.16-1.05z"
    fill-rule="evenodd" clip-rule="evenodd"></path>
  </symbol>
  <symbol xmlns="http://www.w3.org/2000/svg" viewBox="0 0 20.04 34.09" id="arrow-icon">
  <path d="M2.5 2.5l14.94 14.32a.31.31 0 0 1 0 .45L2.5 31.59" fill="none" stroke="#fff" stroke-linecap="round" stroke-miterlimit="10" stroke-width="5"></path>
  </symbol>
  <symbol xmlns="http://www.w3.org/2000/svg" viewBox="0 0 511.99 509.01" id="rocket-icon">
    <path d="M10.05 488.89c5.56 0 10.06 4.5 10.06 10.06 0 5.55-4.5 10.06-10.06 10.06C4.5 509.01 0 504.5 0 498.95c0-5.56 4.5-10.06 10.05-10.06M267 233.77c5.54 0 10.04 4.5 10.04 10.04 0 5.55-4.5 10.04-10.04 10.04-5.55 0-10.04-4.49-10.04-10.04 0-5.54 4.49-10.04 10.04-10.04m117.28-71c-8.84 8.83-23.21 8.83-32.04 0-8.83-8.83-8.83-23.2 0-32.04 4.28-4.28 9.97-6.63 16.02-6.63 6.05 0 11.74 2.35 16.02 6.63 8.83 8.84 8.83 23.21 0 32.04m-16.02-58.75c-11.42 0-22.15 4.44-30.22 12.52-16.66 16.66-16.66 43.77 0 60.43 8.33 8.33 19.27 12.49 30.22 12.49 10.94 0 21.88-4.16 30.21-12.49 16.67-16.66 16.67-43.77 0-60.43-8.07-8.08-18.8-12.52-30.21-12.52M125.4 409.95c-4.96-2.47-10.99-.45-13.46 4.52l-11.96 24.01c-5.2 10.44-15.66 17.42-27.29 18.22l-13.91.95c-2.35.16-3.9-1.01-4.61-1.73a5.851 5.851 0 0 1-1.73-4.61l.95-13.91c.8-11.63 7.78-22.09 18.22-27.29l24.01-11.96c4.97-2.47 6.99-8.5 4.51-13.47-2.47-4.96-8.49-6.98-13.46-4.51l-24.01 11.96c-16.79 8.36-28.02 25.18-29.3 43.9l-.96 13.91c-.51 7.5 2.25 14.86 7.57 20.18a25.99 25.99 0 0 0 20.18 7.56l13.91-.95c18.71-1.28 35.53-12.51 43.9-29.3l11.95-24.01c2.48-4.97.46-10.99-4.51-13.47"></path>
    <path d="M491.67 28.28c-4.03 82.3-43.67 158.47-108.76 208.98L225.45 359.45c-13.06-7.63-25.23-16.64-36.37-26.85l53.08-53.08c3.92-3.92 3.92-10.28 0-14.2s-10.27-3.92-14.2 0l-53.03 53.03c-9.75-10.79-18.39-22.54-25.74-35.1l129.1-158.95C327.73 63.44 400.95 25.67 479.2 20.68l9.35-.6c1.23-.07 2.05.53 2.42.91.38.37 1 1.17.94 2.41zm-139.8 297.89c0 40.31-15.69 78.2-44.2 106.7l-43.01 43.01-6-116.79 93.21-72.33zm-167.1 46.21c-5.24 4.37-10.62 8.85-15.6 12.95-9.64-5.22-18.37-11.74-25.99-19.42-7.39-7.45-13.67-15.93-18.74-25.26l21.68-25.74c6.55 8.8 13.72 17.13 21.47 24.93.01.01.02.01.02.02h.01c0 .01 0 .01.01.01 8.59 8.65 17.83 16.58 27.64 23.76-3.46 2.87-7.01 5.83-10.5 8.75M33.12 244.32l43.01-43.01c28.46-28.46 66.3-44.15 106.55-44.19l42.09 1.23-74.71 91.98zM505.06 6.68A23.278 23.278 0 0 0 487.27.04l-9.35.6c-83.82 5.35-162.26 45.81-215.21 111l-22.01 27.09-57.58-1.69h-.29c-45.67 0-88.6 17.78-120.9 50.07L2.95 246.09c-2.8 2.81-3.68 7-2.27 10.71 1.43 3.7 4.9 6.22 8.86 6.42l124.84 6.41-5.09 6.27a10.042 10.042 0 0 0-1.02 11.13c1.95 3.59 4 7.13 6.14 10.61l-29.61 35.15a10.04 10.04 0 0 0-1.39 10.76c6.46 13.67 15.05 25.95 25.51 36.5 10.72 10.8 23.25 19.64 37.25 26.27 1.37.64 2.84.96 4.29.96 2.26 0 4.51-.76 6.33-2.24 6.38-5.18 13.73-11.31 20.84-17.25 5.07-4.23 10.26-8.55 15.11-12.54 2.89 1.74 5.82 3.43 8.79 5.04a10.057 10.057 0 0 0 10.95-.88l6.85-5.31 6.44 125.37c.2 3.96 2.72 7.43 6.42 8.85 1.17.45 2.39.67 3.6.67 2.62 0 5.19-1.02 7.1-2.94l58.98-58.98c32.29-32.29 50.08-75.23 50.08-120.89v-55l23.26-18.06c69.73-54.11 112.2-135.7 116.52-223.86l.24-4.88a23.29 23.29 0 0 0-6.91-17.7"></path>
  </symbol>
  <symbol xmlns="http://www.w3.org/2000/svg" viewBox="0 0 611.59 545" id="card-icon">
    <path d="M528.88 251.32L251.32 528.88a34.25 34.25 0 0 1-48.28 0L10 335.79a34.22 34.22 0 0 1 0-48.27L287.52 10a34.22 34.22 0 0 1 48.27 0l193.09 193a34.25 34.25 0 0 1 0 48.32zM22 299.59a17.12 17.12 0 0 0 0 24.13l193.11 193.09a17.12 17.12 0 0 0 24.14 0l277.56-277.56a17.12 17.12 0 0 0 0-24.14L323.72 22a17.12 17.12 0 0 0-24.13 0z"></path>
    <path d="M396.13 82.36L82.36 396.13c-3.62 3.62-8.44 3.62-12.06 0L22 347.86c-3.62-3.62-3.62-8.45 0-12.07L335.79 22c3.62-3.62 8.45-3.62 12.07 0l48.27 48.3c3.62 3.62 3.62 8.44 0 12.06zM76.33 378L378 76.33l-36.21-36.2L40.13 341.82zm404.28-150.82l-96.55 96.54c-3.62 3.62-8.44 3.62-12.07 0l-54.3-54.3c-3.62-3.62-3.62-8.45 0-12.07l96.54-96.54c3.62-3.62 8.45-3.62 12.07 0l54.31 54.3c3.62 3.62 3.62 8.45 0 12.07zM378 305.62l84.47-84.47-42.23-42.24-84.48 84.47zm-187 54.31l-48.3 48.27c-3.62 3.62-8.44 3.62-12.06 0s-3.62-8.45 0-12.07l48.27-48.27c3.62-3.62 8.45-3.62 12.07 0s3.62 8.45.02 12.07zm72.38-72.41l-48.27 48.27c-3.62 3.62-8.45 3.62-12.07 0s-3.62-8.45 0-12.07l48.28-48.27c3.62-3.62 8.44-3.62 12.06 0s3.62 8.45 0 12.07zm-18.1 66.37l-78.44 78.44c-3.62 3.62-8.45 3.62-12.07 0s-3.62-8.44 0-12.06l78.44-78.45c3.62-3.62 8.45-3.62 12.07 0s3.62 8.45 0 12.07zm42.24-42.24l-18.1 18.11c-3.62 3.62-8.45 3.62-12.07 0s-3.62-8.45 0-12.07l18.1-18.1c3.62-3.62 8.45-3.62 12.07 0s3.62 8.41 0 12.06z"></path>
    <path d="M601.29 287.52l-2.42 2.41-310.14 247.4a33.22 33.22 0 0 1-47.67-5.43l-2.42-3.63a7.66 7.66 0 0 1 0-10.86l1.21-1.2 277-277a17.12 17.12 0 0 0 0-24.14L357.51 55.81c-1.81-1.81-3-4.22-2.41-6a6.63 6.63 0 0 1 3.62-6l22.33-17.5q10.86-9.06 25.34-7.24a33.18 33.18 0 0 1 22.93 12.06l175.59 211.8c10.25 12.61 8.44 32.52-3.62 44.59zM256.75 523.45a17.26 17.26 0 0 0 21.72 0L588 276.66a17.21 17.21 0 0 0 2.41-24.14L414.84 40.73c-2.42-3.62-7.24-6-11.47-6.64s-9.05.61-12.07 3.62l-15.08 12.67L528.88 203a34.25 34.25 0 0 1 0 48.28z"></path>
  </symbol>
  <symbol xmlns="http://www.w3.org/2000/svg" viewBox="0 0 511.99 512" id="pizza-icon">
    <path d="M459.99 101.92a45.438 45.438 0 0 0-15.82-5.16c-24.87-3.28-47.76 14.3-51.04 39.16-1.58 12.05 1.62 23.99 9.01 33.63 7.13 9.29 17.33 15.35 28.83 17.2l-19.87 58.12-22.86-17.54c-4.38-3.36-10.66-2.53-14.02 1.85-3.36 4.38-2.54 10.66 1.84 14.02l28.21 21.64L352.58 416a54.303 54.303 0 0 0-14.93-9.24c-105.98-43.9-188.52-126.44-232.41-232.42a54.533 54.533 0 0 0-5.61-10.26l26.78-9.55c.93 8.07 4.03 15.77 9.1 22.38 7.4 9.64 18.11 15.82 30.15 17.4 2.02.27 4.03.4 6.04.4 9.94 0 19.57-3.25 27.59-9.41 9.64-7.39 15.82-18.1 17.41-30.15 1.43-10.81-1.1-21.52-6.77-30.4l124.31-44.32 4.71 11.37c1.6 3.85 5.32 6.18 9.25 6.18 1.27 0 2.57-.25 3.82-.76 5.1-2.12 7.52-7.97 5.41-13.07L353.1 73.7l132.72-47.32zm-25.09 65.21c-6.75-.89-12.75-4.35-16.89-9.75-4.14-5.4-5.94-12.1-5.05-18.85 1.84-13.93 14.66-23.77 28.6-21.94 4.3.57 8.34 2.23 11.78 4.77l-15.72 45.96c-.91-.02-1.81-.07-2.72-.19m-86.12 303.44c-7.33 17.68-27.67 26.11-45.34 18.78-128.04-53.03-227.76-152.76-280.8-280.8-3.55-8.56-3.55-17.99 0-26.56 3.55-8.56 10.21-15.23 18.78-18.78 8.56-3.54 17.99-3.54 26.56 0 8.56 3.55 15.23 10.22 18.78 18.78 22.7 54.81 55.48 103.87 97.42 145.82 41.95 41.94 91.01 74.72 145.82 97.42 17.67 7.33 26.1 27.67 18.78 45.34M196.87 152.54c-.89 6.75-4.35 12.75-9.75 16.9-5.4 4.14-12.09 5.93-18.85 5.05-6.75-.89-12.75-4.36-16.89-9.76a25.294 25.294 0 0 1-5.21-17.25l44.02-15.69c5.17 5.5 7.69 13.09 6.68 20.75M509.02 2.88a9.988 9.988 0 0 0-10.38-2.3L83.28 148.67c-14.43-8.82-32.73-10.89-49.52-3.93-27.86 11.54-41.13 43.6-29.6 71.47 27.22 65.7 66.52 124.52 116.81 174.81 50.29 50.29 109.11 89.59 174.81 116.81 6.83 2.83 13.9 4.17 20.87 4.17 21.47-.01 41.89-12.73 50.61-33.77 5.86-14.16 5.3-29.4-.3-42.48l144.5-422.52c1.24-3.63.29-7.65-2.44-10.35"></path>
    <path d="M107.85 268.05c-3.06-4.59-9.26-5.83-13.85-2.77s-5.84 9.26-2.8 13.85a9.997 9.997 0 0 0 13.79 2.96c4.64-2.99 5.99-9.17 3-13.82-.03-.05-.11-.17-.14-.22m-15.06-24.62a472.6 472.6 0 0 1-26.04-53.15c-2.11-5.1-7.97-7.52-13.07-5.41-5.1 2.11-7.52 7.96-5.41 13.07a494.67 494.67 0 0 0 27.14 55.4c1.85 3.23 5.22 5.05 8.7 5.05 1.68 0 3.38-.43 4.94-1.32 4.8-2.74 6.47-8.84 3.74-13.64m239.47-67.02c-1.66 12.63-12.51 22.16-25.23 22.16-1.12 0-2.25-.07-3.37-.22-13.93-1.83-23.78-14.66-21.94-28.6 1.66-12.63 12.51-22.16 25.22-22.16 1.12 0 2.26.07 3.38.22 13.93 1.84 23.77 14.66 21.94 28.6m-19.33-48.43c-1.98-.26-4-.39-5.99-.39-22.71 0-42.08 17-45.05 39.55-3.28 24.87 14.29 47.77 39.16 51.04 1.98.26 4 .39 5.98.39 22.72 0 42.09-17 45.06-39.55 3.27-24.87-14.3-47.76-39.16-51.04m16.73 172.82c-1.67 12.63-12.51 22.16-25.23 22.16-1.12 0-2.25-.07-3.37-.22-6.75-.89-12.75-4.35-16.9-9.76-4.14-5.4-5.94-12.09-5.05-18.84 1.67-12.64 12.51-22.16 25.23-22.16 1.12 0 2.26.07 3.37.22 13.94 1.83 23.78 14.66 21.95 28.6m-19.34-48.43c-1.98-.26-3.99-.39-5.98-.39-22.71 0-42.08 17-45.05 39.55-1.59 12.05 1.61 23.99 9.01 33.63 7.39 9.64 18.1 15.82 30.15 17.41 1.98.26 3.99.39 5.98.39 22.72 0 42.09-17 45.06-39.56 3.27-24.86-14.3-47.76-39.17-51.03m-65.95-41.43l-30.74-4.05c-5.47-.72-10.5 3.14-11.22 8.61-.72 5.48 3.14 10.5 8.61 11.22l30.74 4.05c.44.06.88.09 1.32.09 4.94 0 9.23-3.67 9.9-8.7.72-5.47-3.13-10.5-8.61-11.22m-18.3 53.17c-.72-5.47-5.74-9.33-11.22-8.6-5.47.72-9.33 5.74-8.61 11.21l2.72 20.63c.66 5.03 4.96 8.69 9.9 8.69.43 0 .87-.02 1.31-.08 5.48-.72 9.34-5.75 8.61-11.22z"></path>
  </symbol>
  <symbol xmlns="http://www.w3.org/2000/svg" viewBox="0 0 313.42 327.59" id="chief-icon">
    <path d="M76.53 237.9a8 8 0 0 1-10.63 3.87l-35.47-16.54a8 8 0 0 1 6.76-14.5l35.47 16.54a8 8 0 0 1 3.87 10.63zM59.4 93.84H61v56.82a8 8 0 0 0 16 0V93.84h79.7a47 47 0 0 0 46.92-46.92 8 8 0 0 0-16 0 31 31 0 0 1-30.92 30.92H59.4a30.92 30.92 0 0 1 0-61.84h45.05a46 46 0 0 0-11.52 30.44 8 8 0 1 0 16 0c0-16.78 13.87-30.44 30.92-30.44H254a30.92 30.92 0 1 1 0 61.84h-38.92a8 8 0 0 0 0 16h21.37v56.82a8 8 0 1 0 16 0V93.84H254A46.92 46.92 0 1 0 254 0H59.4a46.92 46.92 0 0 0 0 93.84zm224.52 111.57a8 8 0 0 0-10.54 4.09 10.86 10.86 0 0 1-5.26 5.78l-19.58 9.13a10.88 10.88 0 0 1-7.74.34 8 8 0 0 0-4.4 15.39 29.38 29.38 0 0 0 8 1.16 25.49 25.49 0 0 0 10.86-2.39l19.57-9.13A26.77 26.77 0 0 0 288 216a8 8 0 0 0-4.1-10.55zM82.1 207l-35.47-16.51A8 8 0 0 0 39.87 205l35.47 16.54A8 8 0 1 0 82.1 207zm228.78 19a41.22 41.22 0 0 1-21.42 23.43l-28.52 13.3a41.65 41.65 0 0 1-51.07-13.15l-31.48 14.68 103.13 48.09a8 8 0 1 1-6.76 14.5l-115.3-53.76-114.84 53.54a8 8 0 0 1-6.76-14.5l102.67-47.88-31-14.46a41.66 41.66 0 0 1-51.07 13.14l-45-21a23.38 23.38 0 0 1-11.29-31L17.52 178a23.39 23.39 0 0 1 31-11.29l45 21a41.67 41.67 0 0 1 22.76 47.58l43.18 20.13 43.65-20.35a41.56 41.56 0 0 1 22.75-47.57l28.52-13.3a41.46 41.46 0 0 1 56.5 51.8zm-211-9.37a25.31 25.31 0 0 0-13.15-14.41l-45-21A7.41 7.41 0 0 0 32 184.8l-15.31 32.89a7.37 7.37 0 0 0 3.55 9.78l45 21a25.46 25.46 0 0 0 34.7-31.81zM295 201a25.54 25.54 0 0 0-33.89-12.33L232.62 202a25.53 25.53 0 0 0-12.8 32.82 16.22 16.22 0 0 1 1 2.11 25.6 25.6 0 0 0 33.36 11.29l28.52-13.3A25.6 25.6 0 0 0 295 201zm0 0"></path>
  </symbol>
  <symbol xmlns="http://www.w3.org/2000/svg" viewBox="0 0 100.11 100.11" id="face">
    <path d="M88.44 66.25c-2.21 5.15-5.18 9.58-8.89 13.3-3.72 3.71-8.15 6.68-13.3 8.89-5.15 2.22-10.55 3.32-16.2 3.32a40.65 40.65 0 0 1-16.19-3.32c-5.15-2.21-9.58-5.18-13.3-8.89-3.71-3.72-6.68-8.15-8.9-13.3-2.21-5.15-3.32-10.55-3.32-16.2 0-5.65 1.11-11.05 3.32-16.2 2.22-5.14 5.18-9.58 8.9-13.29 3.72-3.72 8.15-6.68 13.3-8.9a40.65 40.65 0 0 1 16.19-3.32c5.65 0 11.05 1.1 16.2 3.32 5.15 2.22 9.58 5.18 13.3 8.9 3.71 3.71 6.68 8.15 8.89 13.29 2.22 5.15 3.33 10.55 3.33 16.2 0 5.65-1.11 11.05-3.33 16.2m4.96-41.33c-4.48-7.66-10.55-13.73-18.22-18.21C67.51 2.23 59.14 0 50.05 0 40.97 0 32.6 2.23 24.93 6.71c-7.67 4.47-13.74 10.55-18.22 18.21C2.23 32.6 0 40.97 0 50.05c0 9.08 2.23 17.46 6.71 25.13 4.48 7.67 10.55 13.74 18.22 18.21 7.67 4.48 16.04 6.72 25.12 6.72 9.09 0 17.46-2.24 25.13-6.72 7.67-4.47 13.74-10.54 18.22-18.21 4.47-7.67 6.71-16.05 6.71-25.13 0-9.08-2.24-17.46-6.71-25.13"></path>
    <path d="M71.24 56.5c-1.09-.35-2.15-.26-3.2.26-1.04.52-1.74 1.35-2.08 2.48-1.09 3.48-3.1 6.29-6.03 8.44-2.93 2.15-6.23 3.23-9.88 3.23-3.64 0-6.94-1.08-9.87-3.23-2.93-2.15-4.94-4.96-6.03-8.44-.35-1.13-1.03-1.95-2.05-2.48-1.02-.52-2.08-.61-3.16-.26-1.13.35-1.96 1.03-2.48 2.06-.52 1.02-.61 2.07-.26 3.16 1.61 5.26 4.6 9.49 8.99 12.71 4.39 3.21 9.34 4.82 14.86 4.82s10.48-1.61 14.87-4.82c4.38-3.22 7.38-7.45 8.99-12.71.35-1.09.26-2.14-.26-3.16-.53-1.03-1.33-1.7-2.41-2.06M33.37 41.71c2.3 0 4.27-.82 5.9-2.45 1.62-1.62 2.44-3.59 2.44-5.89 0-2.31-.82-4.27-2.44-5.9-1.63-1.63-3.6-2.45-5.9-2.45-2.3 0-4.27.82-5.9 2.45-1.63 1.63-2.45 3.59-2.45 5.9 0 2.3.82 4.27 2.45 5.89 1.63 1.63 3.6 2.45 5.9 2.45m33.37-16.69c-2.3 0-4.27.82-5.9 2.45-1.63 1.63-2.45 3.59-2.45 5.9 0 2.3.82 4.27 2.45 5.89 1.63 1.63 3.6 2.45 5.9 2.45 2.3 0 4.27-.82 5.9-2.45 1.62-1.62 2.44-3.59 2.44-5.89 0-2.31-.82-4.27-2.44-5.9-1.63-1.63-3.6-2.45-5.9-2.45"></path>
  </symbol>
   <symbol aria-hidden="true" data-prefix="fas" data-icon="chevron-circle-up" xmlns="http://www.w3.org/2000/svg" viewBox="0 0 512 512" id="arrow-up">
    <path fill="currentColor" d="M8 256C8 119 119 8 256 8s248 111 248 248-111 248-248 248S8 393 8 256zm231-113.9L103.5 277.6c-9.4 9.4-9.4 24.6 0 33.9l17 17c9.4 9.4 24.6 9.4 33.9 0L256 226.9l101.6 101.6c9.4 9.4 24.6 9.4 33.9 0l17-17c9.4-9.4 9.4-24.6 0-33.9L273 142.1c-9.4-9.4-24.6-9.4-34 0z"></path>
  </symbol>
</svg>