<svg id="Слой_1" data-name="Слой 1" xmlns="http://www.w3.org/2000/svg" width="28.81" height="28.8" viewBox="0 0 28.81 28.8"><defs><style>.cls-1{fill:#6a453b;}</style></defs><path class="cls-1" d="M18.7,7.66H10.11a2.49,2.49,0,0,0-2.48,2.49v8.58a2.49,2.49,0,0,0,2.48,2.49H18.7a2.49,2.49,0,0,0,2.48-2.49V10.15A2.49,2.49,0,0,0,18.7,7.66ZM14.4,18.9a4.46,4.46,0,1,1,4.47-4.46A4.46,4.46,0,0,1,14.4,18.9Zm4.61-8a1.06,1.06,0,1,1,1.06-1.05A1.06,1.06,0,0,1,19,10.9Zm0,0"/><path class="cls-1" d="M14.4,11.87A2.58,2.58,0,1,0,17,14.44a2.57,2.57,0,0,0-2.58-2.57Zm0,0"/><path class="cls-1" d="M14.4,0A14.4,14.4,0,1,0,28.81,14.4,14.4,14.4,0,0,0,14.4,0Zm8.67,18.73A4.37,4.37,0,0,1,18.7,23.1H10.11a4.37,4.37,0,0,1-4.37-4.37V10.15a4.37,4.37,0,0,1,4.37-4.37H18.7a4.37,4.37,0,0,1,4.37,4.37Zm0,0"/></svg>