<svg xmlns="http://www.w3.org/2000/svg" width="244.38" height="238.56" viewBox="0 0 244.38 238.56">
	<style type="text/css">
		.st2{fill:#ffffff;}
		.st1{fill:#ffffff;fill-rule:evenodd;}
		.st4{fill:#1d1d1b;fill-rule:evenodd;}
		.st3{fill:#ff8622;fill-rule:evenodd;}
		.st6{fill:#ff8622;}
		.st5{fill:#ee7d00;fill-rule:evenodd;}
		.st0{fill:#1d1d1b;}
	</style>
	<path class="st0" d="M222.66,194.65L218.37,208.04L226.81,208.04ZM222.94,179.49C225.04,179.49 226.83,180.08 228.3,181.24C229.75,182.38 230.87,184.08 231.66,186.32C231.66,186.33 231.67,186.34 231.67,186.36L243.55,220.61L243.55,220.61C243.82,221.38 244.02,222.06 244.16,222.66C244.3,223.29 244.38,223.83 244.38,224.28C244.38,225.13 244.22,225.91 243.92,226.62C243.61,227.33 243.15,227.95 242.54,228.49C241.95,229.01 241.29,229.41 240.57,229.67C239.85,229.94 239.08,230.07 238.26,230.07C236.69,230.07 235.36,229.57 234.25,228.56C233.19,227.6 232.37,226.19 231.79,224.33C231.79,224.32 231.78,224.3 231.78,224.29L230.23,219.29L214.74,219.29L212.98,224.73C212.42,226.46 211.65,227.77 210.69,228.66C209.67,229.6 208.45,230.07 207.03,230.07C205.31,230.07 203.89,229.52 202.78,228.43C202.22,227.88 201.8,227.24 201.52,226.51C201.25,225.8 201.11,225.01 201.11,224.15C201.11,222.92 201.3,221.78 201.68,220.73L201.68,220.73L201.68,220.73L213.96,187.09C214.87,184.6 216.07,182.72 217.55,181.45C219.07,180.15 220.86,179.49 222.94,179.49M163.18,218.75L180.29,218.75L180.29,188.09C180.29,182.4 182.35,179.56 186.48,179.56C188.55,179.56 190.11,180.32 191.17,181.84C192.16,183.26 192.66,185.35 192.66,188.09L192.66,218.78C194.31,218.88 195.6,219.32 196.53,220.1C197.65,221.04 198.22,222.41 198.22,224.21L198.22,232.9C198.22,234.74 197.74,236.14 196.78,237.11C195.83,238.08 194.44,238.56 192.62,238.56C191.79,238.56 191.04,238.43 190.36,238.18C189.67,237.92 189.06,237.53 188.55,237.01C188.04,236.49 187.65,235.88 187.39,235.18C187.14,234.5 187.02,233.74 187.02,232.9L187.02,229.48L159,229.48C156.32,229.48 154.28,228.75 152.89,227.3C151.51,225.85 150.81,223.74 150.81,220.95L150.81,188.09C150.81,182.4 152.88,179.56 157,179.56C159.07,179.56 160.63,180.32 161.69,181.84C162.68,183.26 163.18,185.35 163.18,188.09ZM112.11,218.75L129.22,218.75L129.22,188.09C129.22,182.4 131.28,179.56 135.41,179.56C137.48,179.56 139.04,180.32 140.1,181.84C141.09,183.26 141.59,185.35 141.59,188.09L141.59,218.78C143.24,218.88 144.53,219.32 145.46,220.1C146.58,221.04 147.15,222.41 147.15,224.21L147.15,232.9C147.15,234.74 146.67,236.14 145.71,237.11C144.76,238.08 143.37,238.56 141.55,238.56C140.72,238.56 139.97,238.43 139.29,238.18C138.6,237.92 137.99,237.53 137.48,237.01C136.96,236.49 136.58,235.88 136.32,235.18C136.07,234.5 135.95,233.74 135.95,232.9L135.95,229.48L107.93,229.48C105.25,229.48 103.21,228.75 101.82,227.3C100.44,225.85 99.74,223.74 99.74,220.95L99.74,188.09C99.74,182.4 101.81,179.56 105.93,179.56C108,179.56 109.56,180.32 110.62,181.84C111.61,183.26 112.11,185.35 112.11,188.09ZM80.16,202.05L62.17,226.08C62.15,226.1 62.14,226.11 62.13,226.12C61.17,227.41 60.13,228.38 59.01,229.04C57.85,229.72 56.62,230.07 55.31,230.07C53.42,230.07 51.99,229.42 51.02,228.12C50.1,226.9 49.64,225.11 49.64,222.78L49.64,188.09C49.64,182.4 51.7,179.56 55.83,179.56C57.9,179.56 59.46,180.32 60.52,181.84C61.51,183.26 62.01,185.35 62.01,188.09L62.01,207.96L80.39,183.42C80.4,183.4 80.42,183.38 80.43,183.36C81.37,182.13 82.34,181.19 83.36,180.56C84.44,179.89 85.56,179.56 86.73,179.56C90.59,179.56 92.52,182.27 92.52,187.7L92.52,221.53C92.52,224.28 92.02,226.36 91.03,227.79C89.97,229.31 88.41,230.07 86.34,230.07C84.27,230.07 82.71,229.31 81.65,227.79C80.65,226.36 80.16,224.28 80.16,221.53ZM12.36,191.4L12.36,221.53C12.36,227.22 10.3,230.07 6.18,230.07C4.11,230.07 2.54,229.31 1.49,227.79C0.49,226.36 0,224.28 0,221.53L0,188.68C0,182.99 2.72,180.15 8.18,180.15L34.69,180.15C37.37,180.15 39.41,180.87 40.8,182.33C42.18,183.77 42.87,185.89 42.87,188.68L42.87,221.53C42.87,224.28 42.38,226.36 41.38,227.79C40.32,229.31 38.76,230.07 36.69,230.07C34.62,230.07 33.06,229.31 32,227.79C31.01,226.36 30.51,224.28 30.51,221.53L30.51,191.4Z"/>
	<path class="st1" d="M91.7,168.22L91.65,168.21ZM91.94,168.29C91.9,168.28 91.85,168.27 91.81,168.26ZM92.18,168.37C92.13,168.35 92.07,168.33 92.01,168.32C92.07,168.33 92.13,168.35 92.18,168.37M92.39,168.43C92.34,168.42 92.29,168.4 92.24,168.38C92.29,168.4 92.34,168.42 92.39,168.43M137.67,167.72C137.67,165.97 137.77,164.17 137.96,162.43C137.96,161.87 137.96,161.31 137.95,160.76C137.78,153.51 135.88,148.14 132.93,144.58C130.04,141.08 126.12,139.33 121.88,139.27C121.67,139.26 121.47,139.27 121.26,139.27C120.68,139.28 120.07,139.29 119.44,139.3C115.31,139.35 110.34,139.41 105.05,141.43C105.02,141.45 104.98,141.46 104.95,141.47L104.95,141.47C98.81,142.83 97.48,148.39 95.35,157.3C94.46,161.04 93.39,164.73 92.46,168.45C93.8,168.89 95.08,169.5 96.26,170.29C98.98,168.5 102.21,167.6 105.94,167.6C109.25,167.6 112.17,168.32 114.69,169.74C116.74,170.91 118.53,172.54 119.92,174.46C120.32,175 121.02,174.98 121.4,174.46C124.79,169.89 129.46,167.6 135.42,167.6C136.19,167.6 136.94,167.64 137.67,167.72"/>
	<path class="st1" d="M146.82,93.27C145.52,95.16 139.41,90.31 139.88,89.12C140.41,87.75 148.83,90.33 146.82,93.27"/>
	<path class="st1" d="M138.89,88.65C138.33,89.48 136.65,88.15 136.85,87.63C137.09,87.03 139.78,87.36 138.89,88.65"/>
	<path class="st2" d="M189.49,142.47C189.25,137.99 189.35,133.64 189.91,129.3C190.53,124.53 191.72,119.79 193.73,114.93C193.96,114.37 194.06,114.4 193.46,114.27C189.51,113.39 184.61,113.91 179.94,115.27C174.33,116.91 169.08,119.74 166.19,122.83C165.99,123.19 166.08,123.79 167.17,123.57C172.59,122.45 174.39,123.45 174.94,125.66C175.19,126.67 175.1,127.84 175,129.18C174.88,130.75 174.74,132.58 175.2,134.39C175.29,134.76 175.48,135.47 176.39,134.7C177.82,133.49 179.28,132.71 180.56,132.32C181.44,132.05 182.24,131.95 182.91,132.02C183.74,132.1 184.4,132.43 184.79,132.98C185.03,133.32 185.16,133.73 185.14,134.2C185.02,139.04 187.38,141.07 189.24,142.57C189.51,142.79 189.49,142.59 189.49,142.47"/>
	<path class="st1" d="M166.81,73.59C167.13,72.98 167.46,72.34 167.78,71.68C168.63,69.95 169.44,68.14 170.13,66.54L169.88,65.42C167.93,65.47 165.67,65.77 163.37,66.21C161.7,66.53 160.01,66.93 158.4,67.36C158.28,67.39 158.15,67.43 158.03,67.47C157.61,67.59 157.18,67.72 156.76,67.86C157.03,67.98 157.28,68.13 157.49,68.32C158.35,69.09 158.54,70.3 156.97,72.33C157.51,72.35 158.33,72.18 159.08,72.03C160.01,71.83 160.85,71.66 161.33,71.89C161.84,72.12 162.01,72.54 161.7,73.21C161.07,74.58 160.85,75.47 160.9,76.02C160.91,76.16 160.94,76.26 160.98,76.32C161.01,76.37 161.04,76.4 161.08,76.41C161.16,76.45 161.28,76.46 161.42,76.45C161.72,76.43 162.14,76.18 162.6,75.92C163.55,75.37 164.63,74.75 165.87,75.14L165.93,75.02C166.23,74.55 166.52,74.07 166.81,73.59"/>
	<path class="st1" d="M138.08,40.88C134.18,38.64 131.38,36.8 128.8,35.69C121.55,32.57 111.13,34.82 117.6,38.55C118.27,39.46 117.2,39.27 115.96,39.14C111.34,38.64 107.35,37.34 102.47,37.08C92.08,36.53 82.38,38.21 81.35,50.48C69.59,56.31 74.91,65.49 85.91,65.48C82.5,63.31 89.84,58.89 93.21,59.25C82.95,55.69 96.23,56.9 102.81,56.39C103.98,56.3 104.82,56.15 104.09,55.56C97.56,50.31 101.27,50.94 108.34,55.24L126.79,54.82C129.16,51.48 134.39,46.37 133.5,47.96C131.67,51.2 130.83,52.38 129.43,54.57C129,55.25 129.88,55.49 130.25,55.38C153.4,53.11 137.79,56.3 138.91,56.66C141.74,57.57 141.8,59.2 137.78,58.22C131.95,56.8 127.16,56.53 119.04,57.09L114.69,57.39C102.51,58.22 88.37,59.83 88.23,70.66C88.24,70.82 88.25,70.98 88.26,71.15C88.64,71.42 90.86,72.6 91.25,72.5C98.78,70.53 104.5,68.58 113.81,67.94C129.61,66.85 132.55,68.8 143.89,70.18L145.8,69.59C140.16,63.41 145.84,65.33 153.37,65.65C157.49,65.35 160.97,62.33 161.2,58.65C161.51,53.78 158.6,47.63 154.84,43.21C151.61,39.41 145.72,38.05 144.21,38.53C142.59,39.05 142.03,39.88 142.62,41.34C143.46,43.41 141.71,42.95 138.08,40.88"/>
	<path class="st3" d="M56.61,140.78C59.29,141.12 61.31,142.66 61.12,144.23C61.02,145.1 60.24,145.7 59.5,146.03L59.5,146.03C58.3,145.26 56.91,144.88 55.5,144.75C54.37,144.65 53.27,144.73 52.29,144.96C51.75,144.47 51.29,143.78 51.39,143C51.58,141.43 53.92,140.44 56.61,140.78"/>
	<path class="st3" d="M55.33,146.73C58,146.97 59.96,148.36 59.71,149.83C59.45,151.3 57.08,152.3 54.41,152.06C51.74,151.82 49.79,150.43 50.04,148.96C50.3,147.49 52.67,146.49 55.33,146.73"/>
	<path class="st3" d="M56.61,153.04C58.61,153.23 60.1,154.31 59.94,155.45C59.77,156.59 58,157.37 56,157.18C53.99,156.99 52.5,155.91 52.67,154.77C52.83,153.63 54.6,152.85 56.61,153.04"/>
	<path class="st3" d="M85.58,143.36C79.26,146.06 70.47,145.59 68.14,144.03C68.14,144.03 65.02,134.92 62.1,134.23C59.03,134.21 59.81,136.97 60.1,139.8C60.47,140 60.82,140.22 61.13,140.46C62.51,141.51 63.27,142.93 63.08,144.47C62.93,145.67 62.24,146.66 61.18,147.36C61.07,147.44 61.07,147.54 61.14,147.64C62.07,149.16 61.79,150.97 60.56,152.22C60.48,152.3 60.48,152.47 60.57,152.55C61.55,153.4 62.12,154.65 61.85,155.94C70.28,156.29 79.11,158.14 84.28,157.6C85.31,153.01 85.9,146.54 85.58,143.36"/>
	<path class="st3" d="M91.81,77.8C96.5,79.18 105.74,82.66 104.19,89.29C102.92,94.78 97.04,102.37 90.25,101.52C85.56,100.92 79.89,98.68 77.78,94.76L77.89,94.7L77.89,94.7L77.89,94.69L77.93,94.67L77.96,94.65L77.97,94.65L78.04,94.6L78.07,94.59L78.08,94.58L78.12,94.55L78.13,94.54L78.23,94.48L78.24,94.47L78.26,94.46L78.3,94.43L78.3,94.43L78.3,94.43L78.3,94.43L78.3,94.43L78.31,94.43L78.31,94.43L78.31,94.43L78.31,94.43L78.31,94.42L78.31,94.42L78.32,94.42L78.32,94.42L78.32,94.42L78.32,94.42L78.32,94.42L78.33,94.42L78.33,94.41L78.33,94.41L78.33,94.41L78.33,94.41L78.33,94.41L78.34,94.41L78.34,94.41L78.34,94.41L78.34,94.41L78.34,94.4L78.34,94.4L78.35,94.4L78.35,94.4L78.35,94.4L78.35,94.4L78.35,94.4L78.36,94.4L78.36,94.4L78.36,94.39L78.36,94.39L78.36,94.39L78.36,94.39L78.37,94.39L78.37,94.39L78.37,94.39L78.37,94.38L78.37,94.38L78.38,94.38L78.38,94.38L78.38,94.38L78.38,94.38L78.38,94.38L78.38,94.38L78.39,94.38L78.39,94.37L78.39,94.37L78.39,94.37L78.39,94.37L78.4,94.37L78.4,94.37L78.4,94.37L78.4,94.37L78.4,94.36L78.41,94.36L78.41,94.36L78.41,94.36L78.41,94.36L78.41,94.36L78.41,94.36L78.42,94.36L78.45,94.33L78.47,94.32L78.58,94.24L78.58,94.24L78.59,94.23L78.63,94.21L78.63,94.21L78.63,94.21L78.63,94.21L78.64,94.2L78.64,94.2L78.64,94.2L78.64,94.2L78.65,94.2L78.65,94.19L78.65,94.19L78.65,94.19L78.65,94.19L78.66,94.19L78.66,94.19L78.66,94.19L78.66,94.18L78.66,94.18L78.67,94.18L78.67,94.18L78.67,94.18L78.67,94.18L78.67,94.18L78.67,94.18L78.68,94.17L78.68,94.17L78.68,94.17L78.68,94.17L78.68,94.17L78.69,94.17L78.69,94.17L78.69,94.16L78.69,94.16L78.7,94.16L78.7,94.16L78.7,94.16L78.7,94.16L78.7,94.16L78.71,94.15L78.71,94.15L78.71,94.15L78.71,94.15L78.72,94.15L78.72,94.15L78.72,94.14L78.72,94.14L78.72,94.14L78.73,94.14L78.73,94.14L78.73,94.14L78.73,94.13L78.73,94.13L78.74,94.13L78.74,94.13L78.74,94.13L78.74,94.13L78.74,94.13L78.74,94.13L78.75,94.12L78.75,94.12L78.75,94.12L78.75,94.12L78.76,94.12L78.76,94.12L78.76,94.12L78.77,94.11L78.79,94.09L78.79,94.09L78.79,94.09L78.8,94.09L78.8,94.09L78.8,94.09L78.8,94.09L78.8,94.08L78.81,94.08L78.81,94.08L78.81,94.08L78.81,94.08L78.81,94.08L78.81,94.08L78.82,94.07L78.82,94.07L78.82,94.07L78.82,94.07L78.83,94.07L78.83,94.07L78.83,94.07L78.83,94.06L78.83,94.06L78.84,94.06L78.84,94.06L78.84,94.06L78.84,94.06L78.84,94.05L78.85,94.05L78.85,94.05L78.85,94.05L78.85,94.05L78.85,94.05L78.85,94.05L78.86,94.05L78.86,94.04L78.86,94.04L78.86,94.04L78.87,94.04L78.87,94.04L78.87,94.04L78.87,94.03L78.87,94.03L78.88,94.03L78.88,94.03L78.88,94.03L78.88,94.03L78.88,94.03L78.88,94.03L78.89,94.02L78.89,94.02L78.89,94.02L78.89,94.02L78.89,94.02L78.9,94.02L78.9,94.01L78.9,94.01L78.9,94.01L78.91,94.01L78.91,94.01L78.91,94.01L78.91,94.01L78.91,94L78.92,94L78.92,94L78.92,94L78.92,94L78.92,94L78.92,94L78.95,93.98L78.95,93.97L78.96,93.97L78.96,93.97L78.96,93.97L78.96,93.97L78.96,93.97L78.97,93.96L78.97,93.96L78.97,93.96L78.97,93.96L78.97,93.96L78.98,93.96L78.98,93.95L78.98,93.95L78.98,93.95L78.99,93.95L78.99,93.95L78.99,93.95L78.99,93.95L78.99,93.95L78.99,93.94L79,93.94L79,93.94L79,93.94L79,93.94L79,93.94L79.01,93.93L79.01,93.93L79.01,93.93L79.01,93.93L79.02,93.93L79.02,93.93L79.02,93.92L79.02,93.92L79.02,93.92L79.02,93.92L79.03,93.92L79.03,93.92L79.03,93.92L79.03,93.92L79.03,93.91L79.04,93.91L79.04,93.91L79.04,93.91L79.04,93.91L79.04,93.91L79.05,93.9L79.05,93.9L79.05,93.9L79.05,93.9L79.06,93.9L79.06,93.9L79.06,93.9L79.06,93.89L79.06,93.89L79.07,93.89L79.07,93.89L79.07,93.89L79.07,93.88L79.07,93.88L79.08,93.88L79.08,93.88L79.08,93.88L79.08,93.88L79.08,93.88L79.09,93.87L79.09,93.87L79.12,93.85L79.12,93.85L79.12,93.85L79.12,93.84L79.13,93.84L79.13,93.84L79.13,93.84L79.13,93.84L79.13,93.84L79.14,93.84L79.14,93.84L79.14,93.83L79.14,93.83L79.14,93.83L79.15,93.83L79.15,93.83L79.15,93.83L79.15,93.82L79.15,93.82L79.16,93.82L79.16,93.82L79.16,93.82L79.16,93.82L79.16,93.82L79.17,93.81L79.17,93.81L79.17,93.81L79.17,93.81L79.18,93.81L79.18,93.8L79.18,93.8L79.18,93.8L79.18,93.8L79.19,93.8L79.19,93.8L79.19,93.8L79.19,93.79L79.19,93.79L79.2,93.79L79.2,93.79L79.2,93.79L79.2,93.79L79.2,93.79L79.2,93.78L79.21,93.78L79.21,93.78L79.21,93.78L79.21,93.78L79.21,93.78L79.22,93.78L79.22,93.77L79.22,93.77L79.22,93.77L79.22,93.77L79.23,93.77L79.23,93.77L79.23,93.76L79.23,93.76L79.23,93.76L79.23,93.76L79.24,93.76L79.24,93.76L79.24,93.76L79.24,93.76L79.24,93.75L79.25,93.75L79.25,93.75L79.27,93.73L79.28,93.72L79.28,93.72L79.29,93.72L79.29,93.72L79.29,93.72L79.29,93.72L79.29,93.71L79.3,93.71L79.3,93.71L79.3,93.71L79.3,93.71L79.3,93.71L79.31,93.7L79.31,93.7L79.31,93.7L79.31,93.7L79.31,93.7L79.32,93.7L79.32,93.7L79.32,93.69L79.32,93.69L79.32,93.69L79.33,93.69L79.33,93.69L79.33,93.69L79.33,93.68L79.33,93.68L79.34,93.68L79.34,93.68L79.34,93.68L79.34,93.68L79.34,93.68L79.34,93.67L79.35,93.67L79.35,93.67L79.35,93.67L79.35,93.67L79.35,93.67L79.36,93.67L79.36,93.66L79.36,93.66L79.36,93.66L79.36,93.66L79.37,93.66L79.37,93.65L79.37,93.65L79.37,93.65L79.37,93.65L79.37,93.65L79.38,93.65L79.38,93.65L79.38,93.65L79.38,93.64L79.38,93.64L79.39,93.64L79.39,93.64L79.39,93.64L79.39,93.64L79.39,93.63L79.4,93.63L79.4,93.63L79.4,93.63L79.4,93.63L79.4,93.63L79.41,93.62L79.41,93.62L79.41,93.62L79.43,93.6L79.44,93.6L79.44,93.6L79.44,93.6L79.44,93.6L79.44,93.6L79.45,93.59L79.45,93.59L79.45,93.59L79.45,93.59L79.45,93.59L79.46,93.58L79.46,93.58L79.46,93.58L79.46,93.58L79.47,93.58L79.47,93.58L79.47,93.57L79.47,93.57L79.47,93.57L79.48,93.57L79.48,93.57L79.48,93.56L79.48,93.56L79.49,93.56L79.49,93.56L79.49,93.56L79.49,93.56L79.49,93.55L79.5,93.55L79.5,93.55L79.5,93.55L79.5,93.55L79.51,93.54L79.51,93.54L79.51,93.54L79.51,93.54L79.51,93.54L79.51,93.54L79.52,93.54L79.52,93.53L79.52,93.53L79.52,93.53L79.53,93.53L79.53,93.53L79.53,93.52L79.53,93.52L79.53,93.52L79.54,93.52L79.54,93.52L79.54,93.52L79.54,93.51L79.55,93.51L79.55,93.51L79.55,93.51L79.55,93.51L79.55,93.51L79.55,93.5L79.56,93.5L79.56,93.5L79.56,93.5L79.56,93.5L79.57,93.49L79.57,93.49L79.57,93.49L79.58,93.49L79.58,93.49L79.58,93.48L79.58,93.48L79.59,93.47L79.59,93.47L79.6,93.47L79.6,93.47L79.6,93.47L79.6,93.46L79.6,93.46L79.61,93.46L79.61,93.46L79.61,93.46L79.61,93.46L79.61,93.46L79.62,93.45L79.62,93.45L79.62,93.45L79.62,93.45L79.63,93.45L79.63,93.44L79.63,93.44L79.63,93.44L79.63,93.44L79.64,93.44L79.64,93.43L79.64,93.43L79.64,93.43L79.65,93.43L79.65,93.43L79.65,93.43L79.65,93.42L79.65,93.42L79.66,93.42L79.66,93.42L79.66,93.42L79.66,93.42L79.66,93.41L79.67,93.41L79.67,93.41L79.67,93.41L79.67,93.41L79.68,93.4L79.68,93.4L79.68,93.4L79.68,93.4L79.68,93.4L79.68,93.4L79.69,93.39L79.69,93.39L79.69,93.39L79.69,93.39L79.7,93.39L79.7,93.38L79.7,93.38L79.7,93.38L79.71,93.38L79.71,93.38L79.71,93.37L79.71,93.37L79.71,93.37L79.72,93.37L79.72,93.37L79.72,93.37L79.72,93.36L79.72,93.36L79.73,93.36L79.73,93.36L79.73,93.36L79.73,93.36L79.74,93.35L79.74,93.35L79.74,93.35L79.75,93.34L79.75,93.34L79.76,93.33L79.76,93.33L79.77,93.33L79.77,93.32L79.78,93.32L79.78,93.31L79.78,93.31L79.79,93.31L79.79,93.3L79.8,93.3L79.8,93.3L79.81,93.29L79.81,93.29L79.82,93.28L79.82,93.28L79.82,93.28L79.83,93.28L79.83,93.27L79.83,93.27L79.84,93.26L79.84,93.26L79.85,93.26L79.85,93.25L79.85,93.25L79.86,93.25L79.86,93.24L79.87,93.24L79.87,93.24L79.88,93.23L79.88,93.23L79.88,93.23L79.89,93.22L79.89,93.22L79.9,93.22L79.9,93.21L79.91,93.21L79.91,93.2L79.92,93.2L79.92,93.2L79.92,93.19L79.92,93.19L79.93,93.19L79.93,93.18L79.94,93.18L79.94,93.17L79.95,93.17L79.95,93.17L79.95,93.17L79.96,93.16L79.96,93.16L79.97,93.15L79.97,93.15L79.98,93.15L79.98,93.14L79.98,93.14L79.99,93.14L79.99,93.13L79.99,93.13L80,93.12L80.01,93.12L80.01,93.11L80.02,93.11L80.02,93.11L80.02,93.1L80.03,93.1L80.03,93.09L80.04,93.09L80.04,93.09L80.05,93.08L80.05,93.08C83.72,89.8 86,84.71 87.26,78.65C87.32,78.39 87.37,78.15 87.41,77.93L87.41,77.91L87.41,77.9L87.41,77.89L87.42,77.88L87.42,77.86L87.42,77.86L87.43,77.84L87.43,77.82L87.44,77.8L87.44,77.79L87.44,77.77L87.45,77.76L87.45,77.75L87.45,77.73L87.45,77.72L87.46,77.71L87.46,77.7L87.46,77.69L87.46,77.68L87.47,77.66L87.47,77.66L87.47,77.64L87.47,77.63L87.48,77.61L87.48,77.59L87.49,77.57L87.49,77.55L87.49,77.55L87.5,77.54L87.5,77.52L87.5,77.5L87.51,77.48L87.51,77.47L87.51,77.45L87.52,77.43L87.52,77.42L87.52,77.41L87.53,77.39L87.53,77.39L87.53,77.38L87.53,77.36L87.54,77.34L87.54,77.32L87.54,77.3L87.55,77.29L87.55,77.27L87.56,77.25L87.56,77.23L87.56,77.22L87.57,77.2L87.57,77.18L87.57,77.18L87.58,77.16L87.58,77.15L87.58,77.13L87.59,77.12L87.59,77.11L87.59,77.09L87.59,77.08L87.59,77.07L87.6,77.06L87.6,77.05L87.6,77.04L87.6,77.02L87.61,77.01L87.61,77L87.61,76.99L87.62,76.97L87.62,76.95L87.62,76.95L87.62,76.93L87.63,76.92L87.63,76.9L87.63,76.88L87.64,76.86L87.64,76.85L87.64,76.84L87.64,76.83L87.65,76.81L87.65,76.79C89.19,77.07 90.69,77.47 91.81,77.8"/>
	<path class="st3" d="M125.51,114.45C120.4,113.28 115.53,110.37 113.39,106.67C110.01,100.8 111.39,95.05 111.47,90.41C111.5,88.76 109.28,88.27 108.78,89.22C107.51,91.64 104.84,96.5 101.88,99.9C96.5,105.79 89.07,106.55 80.56,101.66C77.79,100.07 76.11,98.46 75.17,96.66C72.89,97.4 70.29,97.66 67.32,97.34C67.06,99.67 66.41,101.43 65.3,103.13C68.01,106.19 72.41,108.55 76.16,110.56C77.52,111.29 78.79,111.97 79.93,112.66L88.64,116.64L90.96,117.51C91.05,117.49 91.14,117.49 91.23,117.5L91.35,117.52C104.52,119.4 119.4,121.53 125.51,114.45"/>
	<path class="st3" d="M131.09,88.3C126.36,87.03 116.68,85.17 114.6,91.65C112.88,97.02 113.37,106.4 120.26,109.4C124.67,111.33 130.78,112.43 134.58,110.03C136.19,109.02 137.56,106.5 138.36,104.72C139.31,102.55 140.27,99.26 140.61,96.79C140.8,95.5 140.9,94.66 140.51,93.51C139.62,90.87 134.08,89.1 131.09,88.3"/>
	<path class="st4" d="M91.36,85.25C92.91,85.44 93.99,86.99 93.78,88.7C93.57,90.41 92.14,91.64 90.59,91.44C89.05,91.25 87.96,89.7 88.17,87.99C88.38,86.28 89.81,85.05 91.36,85.25"/>
	<path class="st4" d="M129.25,94.27C130.79,94.46 131.88,96.01 131.67,97.72C131.46,99.43 130.03,100.66 128.48,100.46C126.93,100.27 125.85,98.72 126.06,97.01C126.27,95.3 127.7,94.07 129.25,94.27"/>
	<path class="st5" d="M81.93,168.3C81.85,168.32 81.78,168.35 81.7,168.37C81.78,168.35 81.85,168.32 81.93,168.3"/>
	<path class="st5" d="M82.15,168.24C82.08,168.26 82.01,168.28 81.94,168.3C82.01,168.28 82.08,168.26 82.15,168.24"/>
	<path class="st5" d="M82.36,168.19C82.3,168.2 82.24,168.22 82.17,168.24C82.24,168.22 82.3,168.2 82.36,168.19"/>
	<path class="st5" d="M82.57,168.13C82.51,168.15 82.46,168.16 82.4,168.18C82.46,168.16 82.51,168.15 82.57,168.13"/>
	<path class="st5" d="M91.49,168.17L91.34,168.13C91.39,168.14 91.44,168.15 91.49,168.17"/>
	<path class="st5" d="M91.71,168.23C91.66,168.21 91.61,168.2 91.56,168.19C91.61,168.2 91.66,168.21 91.71,168.23"/>
	<path class="st5" d="M91.95,168.3C91.9,168.28 91.85,168.27 91.8,168.25C91.85,168.27 91.9,168.28 91.95,168.3"/>
	<path class="st5" d="M92.18,168.36C92.13,168.35 92.07,168.33 92.02,168.32C92.07,168.33 92.13,168.35 92.18,168.36"/>
	<path class="st5" d="M92.41,168.44C92.35,168.42 92.29,168.4 92.23,168.38C92.29,168.4 92.35,168.42 92.41,168.44"/>
	<path class="st5" d="M149.47,169.12L149.35,169.17C149.39,169.15 149.43,169.14 149.47,169.12"/>
	<path class="st3" d="M166.1,170.19C163.56,168.8 160.65,168.09 157.5,168.09C156.3,168.09 155.16,168.18 154.07,168.37L154.07,168.36C154.23,167.79 154.37,167.2 154.47,166.6C155.42,161.44 154.44,158.37 151.39,153.83C150.02,151.79 149.03,150.12 148,149.98C147.82,149.96 147.65,149.97 147.49,150.01L146.71,150.24L147.16,150.91C147.96,152.15 148.73,153.98 149.35,155.89C150.1,158.18 150.64,160.56 150.82,162.14C150.93,163.15 150.84,164.31 150.56,165.51C150.16,167.24 149.37,168.79 148.53,170.33C148.01,170.64 147.51,170.97 147.02,171.34C146.78,171.43 146.47,171.38 146.22,171.25C144.32,169.85 142.16,168.91 139.74,168.44C139.69,166.66 139.81,164.83 140.01,163.07C140.01,163.03 140.01,162.98 140.01,162.94C140.02,162.35 140.02,161.78 140,161.21C139.83,153.57 137.78,147.87 134.63,144.05C131.42,140.17 127.09,138.23 122.38,138.17C122.16,138.16 121.93,138.16 121.71,138.17C121.12,138.18 120.52,138.19 119.91,138.2C115.67,138.25 110.56,138.31 105.05,140.41C97.99,142 96.57,147.92 94.31,157.42C93.42,161.13 92.34,164.81 91.38,168.51C88.92,167.96 86.34,167.95 83.88,168.44C85.45,162.99 87.25,157.59 88.82,152.13L88.82,152.13C88.82,152.11 88.83,152.09 88.83,152.08L92.82,134.12L92.82,134.1L94.9,126.2L94.9,126.2L94.9,126.19C95.3,124.62 95.41,123.18 95.06,121.83C94.85,121 94.47,120.22 93.87,119.48C99.67,120.29 105.66,121.03 111.06,120.93C112.32,123.99 116.9,124.35 120.7,124.65C121.98,124.75 123.17,124.84 124.03,125.02C124.45,125.11 124.87,124.84 124.96,124.41C125.05,123.98 124.78,123.56 124.35,123.47C123.39,123.26 122.15,123.16 120.82,123.06C117.78,122.82 114.16,122.54 112.84,120.86C118.73,120.53 123.76,119.04 126.84,115.32C126.98,115.15 127.04,114.94 127.03,114.74C130.84,115.35 134.64,114.95 137.4,113.15C142.05,110.11 144.79,103.65 147.23,97.71C150.31,96.19 150.97,93.9 150.32,91.68C149.88,90.22 148.36,90.38 146.86,89.97C138.89,84.38 125.77,83.96 116.48,82.79C113.92,82.09 111.35,81.4 108.79,80.7C103.97,78.52 99.32,76.27 94.55,74.67L95.41,74.39C95.64,74.51 95.91,74.54 96.18,74.45C96.75,74.26 97.65,74.34 98.58,74.57C99.6,74.84 100.59,75.29 101.17,75.8C101.59,76.15 102.21,76.1 102.56,75.69C102.91,75.27 102.86,74.64 102.45,74.29C101.83,73.76 100.95,73.28 100.01,72.94C104.12,71.71 108.78,70.55 113.06,70.26L118.49,69.88C132.9,68.89 136.17,71.91 146.05,73.12C146.24,72.97 146.42,72.83 146.59,72.69C149.39,71.28 152.28,70.05 155.24,69.01C155.97,69.15 156.78,69.33 157.19,69.69C157.65,70.1 157.57,70.93 156.05,72.66C155.86,72.89 155.86,73.22 156.05,73.45L156.05,73.45C156.77,74.3 158.39,73.96 159.79,73.68C160.26,73.58 160.7,73.49 160.99,73.45C160.36,74.89 160.15,75.91 160.2,76.61C160.23,76.94 160.32,77.22 160.46,77.44C160.62,77.69 160.82,77.87 161.07,77.98C161.35,78.11 161.67,78.15 162,78.13C162.55,78.08 163.08,77.77 163.66,77.44C164.29,77.08 164.99,76.68 165.68,76.72C163.41,80.44 161.29,84.18 160.23,88.7C160.07,89.4 160.08,89.68 160.15,90.42C161.35,103.56 163.29,116.49 165.35,129.54L163.69,133.04C163.64,133.13 163.6,133.24 163.59,133.35C163.18,136.65 162.84,139.2 162.87,142.33C162.88,143.36 163.35,144.15 163.73,145.15L164.78,147.98L167.46,155.13C170.21,160.25 168.35,165.43 166.1,170.19"/>
	<path class="st5" d="M165.8,169.82C165.74,169.78 165.68,169.75 165.62,169.71C165.68,169.75 165.74,169.78 165.8,169.82"/>
	<path class="st5" d="M166,169.93C165.95,169.9 165.89,169.86 165.83,169.83C165.89,169.86 165.95,169.9 166,169.93"/>
	<path class="st5" d="M166.22,170.06C166.16,170.02 166.1,169.99 166.04,169.95C166.1,169.99 166.16,170.02 166.22,170.06"/>
	<path class="st5" d="M166.41,170.18C166.36,170.15 166.31,170.11 166.25,170.08C166.31,170.11 166.36,170.15 166.41,170.18"/>
	<path class="st5" d="M166.61,170.31L166.47,170.21Z"/>
	<path class="st5" d="M166.82,170.44C166.77,170.41 166.72,170.38 166.68,170.35C166.72,170.38 166.77,170.41 166.82,170.44"/>
	<path class="st5" d="M167.02,170.58C166.97,170.55 166.92,170.51 166.87,170.48C166.92,170.51 166.97,170.55 167.02,170.58"/>
	<path class="st5" d="M167.21,170.71C167.16,170.68 167.12,170.65 167.07,170.61C167.12,170.65 167.16,170.68 167.21,170.71"/>
	<path class="st3" d="M193.68,169.26C191.66,168.48 189.43,168.09 186.98,168.09C181.13,168.09 176.52,170.29 173.15,174.69C172.84,175.09 171.61,175.11 171.28,174.68C170.33,173.44 169.26,172.37 168.08,171.48C170.12,165.85 172.32,160.12 169.24,154.28L164.62,141.94L165.33,133.72C167.24,129.68 167.29,130.49 166.63,126.32C171.72,125.06 173.22,125.43 173.52,126.63C173.69,127.32 173.61,128.35 173.53,129.52C173.33,132.04 173.1,135.14 174.96,138.19C175.25,138.66 175.85,138.8 176.32,138.52C176.5,138.4 176.63,138.21 176.78,138.05C178.39,136.21 180.16,135.14 181.61,134.7C182.24,134.51 182.79,134.44 183.21,134.48C183.84,134.54 183.66,134.69 183.66,135.25C183.71,140.75 186.51,143 188.64,144.72C189.96,145.78 190.24,146.19 190.64,147.8C191.37,150.7 191.99,153.72 192.49,156.93C193.13,161.03 193.54,165.13 193.68,169.26"/>
	<path class="st4" d="M67.44,148.44C67.4,148.11 67.63,147.81 67.95,147.77C68.28,147.74 68.57,147.97 68.61,148.3C68.79,149.78 68.64,150.95 68.36,151.84C67.91,153.25 67.05,153.98 66.52,154.13C66.21,154.22 65.88,154.03 65.79,153.71C65.71,153.4 65.89,153.07 66.21,152.98C66.47,152.91 66.93,152.44 67.24,151.47C67.48,150.73 67.59,149.73 67.44,148.44"/>
	<path class="st1" d="M128.48,95.03C128.91,95.08 129.22,95.49 129.17,95.93C129.11,96.37 128.71,96.69 128.28,96.63C127.84,96.58 127.54,96.18 127.59,95.73C127.65,95.29 128.04,94.97 128.48,95.03"/>
	<path class="st1" d="M90.59,86.01C91.03,86.06 91.34,86.47 91.28,86.91C91.23,87.35 90.83,87.67 90.39,87.61C89.96,87.56 89.65,87.16 89.71,86.71C89.76,86.27 90.16,85.95 90.59,86.01"/>
	<path class="st4" d="M56.61,140.78C59.29,141.12 61.31,142.66 61.12,144.23C61.02,145.1 60.24,145.7 59.5,146.03L59.5,146.03C58.3,145.26 56.91,144.88 55.5,144.75C54.37,144.65 53.27,144.73 52.29,144.96C51.75,144.47 51.29,143.78 51.39,143C51.58,141.43 53.92,140.44 56.61,140.78M55.33,146.73C58,146.97 59.96,148.36 59.71,149.83C59.45,151.3 57.08,152.3 54.41,152.06C51.74,151.82 49.79,150.43 50.04,148.96C50.29,147.49 52.66,146.49 55.33,146.73M56.61,153.04C58.61,153.23 60.1,154.31 59.93,155.45C59.77,156.59 58,157.37 56,157.18C53.99,156.99 52.5,155.91 52.67,154.77C52.84,153.63 54.6,152.85 56.61,153.04M67.44,148.44C67.4,148.11 67.63,147.81 67.95,147.77C68.28,147.74 68.57,147.97 68.61,148.3C68.79,149.78 68.64,150.95 68.36,151.84C67.91,153.25 67.05,153.98 66.52,154.13C66.2,154.22 65.88,154.03 65.79,153.72C65.71,153.4 65.89,153.07 66.2,152.98C66.47,152.91 66.93,152.44 67.24,151.47C67.48,150.73 67.59,149.73 67.44,148.44M85.58,143.36C79.26,146.06 70.47,145.59 68.14,144.03C68.14,144.03 65.02,134.92 62.1,134.23C59.03,134.21 59.81,136.97 60.1,139.8C60.47,140 60.82,140.22 61.13,140.46C62.51,141.51 63.27,142.93 63.08,144.47C62.93,145.67 62.24,146.66 61.18,147.36C61.07,147.44 61.07,147.54 61.14,147.64C62.07,149.16 61.79,150.97 60.56,152.22C60.48,152.3 60.49,152.47 60.57,152.55C61.55,153.4 62.12,154.65 61.85,155.94C70.28,156.29 79.11,158.14 84.28,157.6C85.31,153.01 85.9,146.54 85.58,143.36M166.81,73.59C167.13,72.98 167.46,72.34 167.78,71.68C168.63,69.95 169.44,68.14 170.13,66.54L169.88,65.42C167.93,65.47 165.67,65.77 163.37,66.21C161.7,66.53 160.01,66.93 158.4,67.36C158.28,67.4 158.15,67.43 158.03,67.47C157.61,67.59 157.18,67.72 156.76,67.86C157.03,67.98 157.28,68.13 157.49,68.32C158.35,69.09 158.54,70.3 156.97,72.34C157.51,72.35 158.33,72.18 159.08,72.03C160.01,71.83 160.85,71.66 161.33,71.89C161.84,72.13 162.01,72.54 161.7,73.21C161.07,74.58 160.85,75.47 160.9,76.02C160.91,76.16 160.94,76.26 160.98,76.33C161.01,76.37 161.04,76.4 161.08,76.41C161.16,76.45 161.28,76.46 161.42,76.45C161.72,76.43 162.14,76.18 162.6,75.92C163.55,75.37 164.63,74.75 165.86,75.14L165.93,75.02C166.23,74.55 166.52,74.07 166.81,73.59M138.08,40.88C134.18,38.64 131.38,36.8 128.8,35.69C121.55,32.57 111.13,34.82 117.6,38.55C118.27,39.46 117.2,39.27 115.96,39.14C111.34,38.64 107.36,37.34 102.47,37.08C92.08,36.53 82.38,38.21 81.35,50.49C69.59,56.31 74.91,65.49 85.91,65.48C82.5,63.31 89.84,58.89 93.21,59.25C82.95,55.69 96.23,56.9 102.81,56.39C103.98,56.3 104.82,56.15 104.09,55.56C97.56,50.31 101.27,50.94 108.34,55.24L126.79,54.82C129.16,51.48 134.39,46.37 133.5,47.96C131.67,51.2 130.83,52.38 129.43,54.57C129,55.25 129.88,55.49 130.25,55.38C153.4,53.11 137.79,56.3 138.91,56.66C141.74,57.57 141.8,59.2 137.78,58.22C131.95,56.8 127.16,56.53 119.04,57.09L114.69,57.39C102.5,58.22 88.37,59.83 88.23,70.66C88.24,70.82 88.25,70.98 88.26,71.15C88.63,71.42 90.86,72.6 91.25,72.5C98.77,70.53 104.5,68.58 113.81,67.94C129.61,66.85 132.55,68.8 143.89,70.18L145.8,69.59C140.16,63.41 145.84,65.33 153.38,65.65C157.49,65.35 160.97,62.33 161.2,58.65C161.51,53.78 158.61,47.63 154.84,43.21C151.61,39.41 145.72,38.05 144.21,38.53C142.59,39.05 142.04,39.88 142.62,41.34C143.46,43.41 141.71,42.95 138.08,40.88M137.96,162.43C137.96,161.87 137.96,161.31 137.95,160.76C137.78,153.51 135.88,148.14 132.93,144.58C130.04,141.08 126.12,139.33 121.88,139.27C121.67,139.26 121.47,139.27 121.26,139.27C120.68,139.28 120.07,139.29 119.44,139.3C115.31,139.35 110.34,139.41 105.05,141.43C105.02,141.45 104.98,141.46 104.94,141.47L104.94,141.47C98.8,142.83 97.48,148.39 95.35,157.3C94.46,161.04 93.39,164.73 92.46,168.45C91.94,168.29 91.42,168.14 90.9,168.02C91.86,164.33 92.94,160.64 93.82,156.93C96.09,147.44 97.5,141.52 104.56,139.92C110.08,137.83 115.18,137.77 119.43,137.71C120.04,137.71 120.63,137.7 121.22,137.68C121.45,137.68 121.67,137.68 121.9,137.68C126.6,137.75 130.94,139.69 134.14,143.56C137.3,147.38 139.34,153.09 139.52,160.73C139.53,161.29 139.53,161.87 139.53,162.46C139.53,162.5 139.53,162.54 139.52,162.59C139.33,164.34 139.2,166.18 139.25,167.96C138.74,167.86 138.21,167.78 137.67,167.72C137.67,165.97 137.76,164.17 137.96,162.43M148.87,155.41C148.24,153.5 147.48,151.67 146.67,150.43L146.23,149.75L147,149.53C147.16,149.48 147.34,149.47 147.52,149.5C148.54,149.64 149.54,151.31 150.91,153.35C153.96,157.89 154.94,160.96 153.99,166.11C153.88,166.72 153.75,167.3 153.58,167.88C151.56,168.22 149.72,168.88 148.05,169.85C148.88,168.31 149.68,166.76 150.08,165.02C150.35,163.83 150.45,162.66 150.34,161.66C150.16,160.08 149.62,157.7 148.87,155.41M77.23,93.24C76.88,91.6 76.99,89.55 77.17,88.05C77.46,85.7 78.33,82.38 79.3,80.08C79.81,78.88 80.15,78.11 81.07,77.34C82.13,76.44 84.06,76.34 86.09,76.56L86.09,76.57L86.09,76.58L86.09,76.59L86.08,76.61L86.08,76.61L86.08,76.63L86.08,76.64L86.07,76.66L86.07,76.66L86.07,76.68L86.07,76.69L86.06,76.7L86.06,76.71L86.06,76.72L86.06,76.74L86.05,76.75L86.05,76.76L86.05,76.77L86.05,76.79L86.05,76.79L86.04,76.81L86.04,76.82L86.04,76.84L86.04,76.84L86.03,76.85L86.03,76.87L86.03,76.88L86.02,76.89L86.02,76.92L86.02,76.93L86.02,76.94L86.01,76.95L86.01,76.97L86.01,76.97L86,76.98L86,77L86,77.02L85.99,77.03L85.99,77.05L85.99,77.06L85.98,77.08L85.98,77.1L85.98,77.11L85.98,77.11L85.97,77.13L85.97,77.15L85.97,77.15L85.97,77.16L85.96,77.18L85.96,77.19L85.96,77.2L85.96,77.21L85.95,77.23L85.95,77.24L85.95,77.24L85.94,77.26L85.94,77.27L85.94,77.29L85.93,77.31L85.93,77.32L85.93,77.33L85.93,77.34L85.92,77.36L85.92,77.37L85.92,77.37L85.92,77.39L85.91,77.4L85.91,77.42L85.91,77.42L85.91,77.44L85.9,77.45L85.9,77.47L85.9,77.48L85.89,77.5L85.89,77.51L85.89,77.52L85.88,77.53L85.88,77.55L85.88,77.55L85.88,77.56L85.87,77.58L85.87,77.6L85.86,77.63C85.81,77.88 85.77,78.12 85.72,78.32C84.53,84.07 82.4,88.86 79.01,91.89L78.98,91.91L78.96,91.94L78.95,91.95L78.93,91.96L78.91,91.98L78.88,92L78.88,92.01L78.85,92.03L78.83,92.05L78.82,92.06L78.8,92.08L78.77,92.1L78.75,92.12L78.75,92.12L78.72,92.14L78.69,92.17L78.69,92.17L78.67,92.19L78.64,92.21L78.62,92.23L78.61,92.23L78.59,92.26L78.56,92.28L78.56,92.28L78.53,92.3L78.51,92.32L78.49,92.33L78.48,92.34L78.42,92.39L78.37,92.43L78.37,92.43L78.36,92.44L78.34,92.45L78.31,92.47L78.29,92.49L78.29,92.5L78.26,92.52L78.23,92.54L78.22,92.55L78.2,92.56L78.18,92.58L78.15,92.6L78.15,92.6L78.12,92.62L78.09,92.64L78.09,92.65L78.06,92.67L78.04,92.69L78.02,92.7L78.01,92.71L77.98,92.73L77.95,92.75L77.95,92.75L77.92,92.77L77.9,92.79L77.87,92.81L77.84,92.83L77.81,92.85L77.81,92.85L77.78,92.87L77.75,92.89L77.74,92.9L77.72,92.91L77.69,92.93L77.67,92.95L77.67,92.95L77.64,92.97L77.61,92.99L77.58,93.01L77.55,93.03L77.53,93.04L77.52,93.05L77.49,93.07L77.46,93.09L77.44,93.11L77.41,93.13L77.35,93.16L77.32,93.18L77.31,93.19L77.29,93.2L77.26,93.22L77.24,93.23ZM91.81,77.8C96.5,79.18 105.74,82.66 104.19,89.29C102.92,94.78 97.04,102.37 90.25,101.52C85.56,100.92 79.89,98.68 77.78,94.77L77.89,94.7L77.89,94.7L77.89,94.69L77.93,94.67L77.96,94.65L77.97,94.65L78.04,94.6L78.06,94.59L78.08,94.58L78.12,94.55L78.13,94.54L78.23,94.48L78.24,94.47L78.26,94.46L78.3,94.44L78.3,94.43L78.3,94.43L78.3,94.43L78.3,94.43L78.3,94.43L78.31,94.43L78.31,94.43L78.31,94.43L78.31,94.42L78.31,94.42L78.32,94.42L78.32,94.42L78.32,94.42L78.32,94.42L78.32,94.42L78.33,94.42L78.33,94.42L78.33,94.41L78.33,94.41L78.33,94.41L78.33,94.41L78.34,94.41L78.34,94.41L78.34,94.41L78.34,94.41L78.34,94.41L78.34,94.4L78.35,94.4L78.35,94.4L78.35,94.4L78.35,94.4L78.35,94.4L78.36,94.4L78.36,94.4L78.36,94.39L78.36,94.39L78.36,94.39L78.37,94.39L78.37,94.39L78.37,94.39L78.37,94.39L78.37,94.39L78.37,94.38L78.38,94.38L78.38,94.38L78.38,94.38L78.38,94.38L78.38,94.38L78.38,94.38L78.39,94.38L78.39,94.37L78.39,94.37L78.39,94.37L78.39,94.37L78.4,94.37L78.4,94.37L78.4,94.37L78.4,94.37L78.4,94.36L78.41,94.36L78.41,94.36L78.41,94.36L78.41,94.36L78.41,94.36L78.41,94.36L78.42,94.36L78.45,94.33L78.47,94.32L78.58,94.24L78.58,94.24L78.59,94.23L78.63,94.21L78.63,94.21L78.63,94.21L78.63,94.21L78.64,94.2L78.64,94.2L78.64,94.2L78.64,94.2L78.65,94.2L78.65,94.2L78.65,94.19L78.65,94.19L78.65,94.19L78.66,94.19L78.66,94.19L78.66,94.19L78.66,94.19L78.66,94.18L78.67,94.18L78.67,94.18L78.67,94.18L78.67,94.18L78.67,94.18L78.68,94.18L78.68,94.17L78.68,94.17L78.68,94.17L78.68,94.17L78.69,94.17L78.69,94.17L78.69,94.17L78.69,94.17L78.69,94.16L78.7,94.16L78.7,94.16L78.7,94.16L78.7,94.16L78.7,94.16L78.71,94.15L78.71,94.15L78.71,94.15L78.71,94.15L78.72,94.15L78.72,94.15L78.72,94.14L78.72,94.14L78.72,94.14L78.73,94.14L78.73,94.14L78.73,94.14L78.73,94.14L78.73,94.13L78.74,94.13L78.74,94.13L78.74,94.13L78.74,94.13L78.74,94.13L78.75,94.13L78.75,94.13L78.75,94.12L78.75,94.12L78.75,94.12L78.76,94.12L78.76,94.12L78.76,94.12L78.77,94.11L78.79,94.09L78.79,94.09L78.79,94.09L78.8,94.09L78.8,94.09L78.8,94.09L78.8,94.09L78.8,94.08L78.81,94.08L78.81,94.08L78.81,94.08L78.81,94.08L78.81,94.08L78.81,94.08L78.82,94.07L78.82,94.07L78.82,94.07L78.82,94.07L78.83,94.07L78.83,94.07L78.83,94.07L78.83,94.06L78.83,94.06L78.84,94.06L78.84,94.06L78.84,94.06L78.84,94.06L78.84,94.05L78.84,94.05L78.85,94.05L78.85,94.05L78.85,94.05L78.85,94.05L78.86,94.05L78.86,94.05L78.86,94.04L78.86,94.04L78.86,94.04L78.87,94.04L78.87,94.04L78.87,94.04L78.87,94.03L78.87,94.03L78.88,94.03L78.88,94.03L78.88,94.03L78.88,94.03L78.88,94.03L78.88,94.03L78.89,94.02L78.89,94.02L78.89,94.02L78.89,94.02L78.9,94.02L78.9,94.02L78.9,94.01L78.9,94.01L78.9,94.01L78.91,94.01L78.91,94.01L78.91,94.01L78.91,94.01L78.91,94L78.92,94L78.92,94L78.92,94L78.92,94L78.92,94L78.92,94L78.95,93.98L78.95,93.97L78.96,93.97L78.96,93.97L78.96,93.97L78.96,93.97L78.97,93.97L78.97,93.97L78.97,93.96L78.97,93.96L78.97,93.96L78.97,93.96L78.98,93.96L78.98,93.96L78.98,93.95L78.98,93.95L78.99,93.95L78.99,93.95L78.99,93.95L78.99,93.95L78.99,93.95L78.99,93.94L79,93.94L79,93.94L79,93.94L79,93.94L79.01,93.94L79.01,93.93L79.01,93.93L79.01,93.93L79.01,93.93L79.02,93.93L79.02,93.93L79.02,93.93L79.02,93.92L79.02,93.92L79.02,93.92L79.03,93.92L79.03,93.92L79.03,93.92L79.03,93.92L79.03,93.91L79.04,93.91L79.04,93.91L79.04,93.91L79.04,93.91L79.05,93.91L79.05,93.9L79.05,93.9L79.05,93.9L79.05,93.9L79.06,93.9L79.06,93.9L79.06,93.9L79.06,93.9L79.06,93.89L79.07,93.89L79.07,93.89L79.07,93.89L79.07,93.89L79.07,93.88L79.08,93.88L79.08,93.88L79.08,93.88L79.08,93.88L79.08,93.88L79.09,93.87L79.09,93.87L79.12,93.85L79.12,93.85L79.12,93.85L79.12,93.85L79.13,93.84L79.13,93.84L79.13,93.84L79.13,93.84L79.13,93.84L79.13,93.84L79.14,93.84L79.14,93.83L79.14,93.83L79.14,93.83L79.15,93.83L79.15,93.83L79.15,93.83L79.15,93.83L79.15,93.82L79.16,93.82L79.16,93.82L79.16,93.82L79.16,93.82L79.16,93.82L79.17,93.81L79.17,93.81L79.17,93.81L79.17,93.81L79.18,93.81L79.18,93.81L79.18,93.8L79.18,93.8L79.18,93.8L79.19,93.8L79.19,93.8L79.19,93.8L79.19,93.79L79.19,93.79L79.19,93.79L79.2,93.79L79.2,93.79L79.2,93.79L79.2,93.79L79.2,93.79L79.21,93.78L79.21,93.78L79.21,93.78L79.21,93.78L79.21,93.78L79.22,93.78L79.22,93.77L79.22,93.77L79.22,93.77L79.22,93.77L79.23,93.77L79.23,93.77L79.23,93.76L79.23,93.76L79.23,93.76L79.23,93.76L79.23,93.76L79.24,93.76L79.24,93.76L79.24,93.76L79.24,93.75L79.25,93.75L79.25,93.75L79.27,93.73L79.28,93.72L79.28,93.72L79.29,93.72L79.29,93.72L79.29,93.72L79.29,93.72L79.29,93.71L79.3,93.71L79.3,93.71L79.3,93.71L79.3,93.71L79.3,93.71L79.31,93.71L79.31,93.7L79.31,93.7L79.31,93.7L79.31,93.7L79.31,93.7L79.32,93.7L79.32,93.69L79.32,93.69L79.32,93.69L79.33,93.69L79.33,93.69L79.33,93.69L79.33,93.68L79.33,93.68L79.34,93.68L79.34,93.68L79.34,93.68L79.34,93.68L79.34,93.68L79.34,93.68L79.34,93.67L79.35,93.67L79.35,93.67L79.35,93.67L79.35,93.67L79.36,93.67L79.36,93.66L79.36,93.66L79.36,93.66L79.36,93.66L79.37,93.66L79.37,93.65L79.37,93.65L79.37,93.65L79.37,93.65L79.37,93.65L79.38,93.65L79.38,93.65L79.38,93.65L79.38,93.64L79.38,93.64L79.39,93.64L79.39,93.64L79.39,93.64L79.39,93.64L79.4,93.63L79.4,93.63L79.4,93.63L79.4,93.63L79.4,93.63L79.41,93.63L79.41,93.63L79.41,93.62L79.41,93.62L79.43,93.6L79.44,93.6L79.44,93.6L79.44,93.6L79.44,93.6L79.44,93.6L79.44,93.59L79.45,93.59L79.45,93.59L79.45,93.59L79.45,93.59L79.46,93.59L79.46,93.58L79.46,93.58L79.46,93.58L79.47,93.58L79.47,93.58L79.47,93.57L79.47,93.57L79.47,93.57L79.48,93.57L79.48,93.57L79.48,93.57L79.48,93.56L79.49,93.56L79.49,93.56L79.49,93.56L79.49,93.56L79.5,93.55L79.5,93.55L79.5,93.55L79.5,93.55L79.5,93.55L79.51,93.55L79.51,93.54L79.51,93.54L79.51,93.54L79.51,93.54L79.52,93.54L79.52,93.54L79.52,93.53L79.52,93.53L79.52,93.53L79.53,93.53L79.53,93.53L79.53,93.52L79.53,93.52L79.54,93.52L79.54,93.52L79.54,93.52L79.54,93.52L79.54,93.51L79.55,93.51L79.55,93.51L79.55,93.51L79.55,93.51L79.55,93.51L79.55,93.5L79.56,93.5L79.56,93.5L79.56,93.5L79.56,93.5L79.57,93.49L79.57,93.49L79.57,93.49L79.58,93.49L79.58,93.49L79.58,93.48L79.58,93.48L79.59,93.47L79.59,93.47L79.6,93.47L79.6,93.47L79.6,93.47L79.6,93.47L79.61,93.46L79.61,93.46L79.61,93.46L79.61,93.46L79.61,93.46L79.61,93.46L79.62,93.45L79.62,93.45L79.62,93.45L79.62,93.45L79.63,93.45L79.63,93.44L79.63,93.44L79.63,93.44L79.63,93.44L79.64,93.44L79.64,93.43L79.64,93.43L79.64,93.43L79.65,93.43L79.65,93.43L79.65,93.43L79.65,93.42L79.65,93.42L79.66,93.42L79.66,93.42L79.66,93.42L79.66,93.42L79.66,93.41L79.67,93.41L79.67,93.41L79.67,93.41L79.67,93.41L79.68,93.4L79.68,93.4L79.68,93.4L79.68,93.4L79.68,93.4L79.69,93.4L79.69,93.39L79.69,93.39L79.69,93.39L79.69,93.39L79.7,93.39L79.7,93.38L79.7,93.38L79.7,93.38L79.71,93.38L79.71,93.38L79.71,93.38L79.71,93.37L79.72,93.37L79.72,93.37L79.72,93.37L79.72,93.37L79.72,93.37L79.72,93.36L79.73,93.36L79.73,93.36L79.73,93.36L79.73,93.36L79.73,93.35L79.74,93.35L79.74,93.35L79.75,93.34L79.75,93.34L79.76,93.33L79.76,93.33L79.77,93.33L79.77,93.32L79.78,93.32L79.78,93.31L79.78,93.31L79.79,93.31L79.79,93.31L79.8,93.3L79.8,93.3L79.81,93.29L79.81,93.29L79.82,93.29L79.82,93.28L79.82,93.28L79.83,93.28L79.83,93.27L79.83,93.27L79.84,93.26L79.84,93.26L79.85,93.26L79.85,93.26L79.85,93.25L79.86,93.25L79.86,93.24L79.87,93.24L79.87,93.24L79.88,93.23L79.88,93.23L79.88,93.23L79.89,93.22L79.89,93.22L79.9,93.22L79.9,93.21L79.91,93.21L79.91,93.2L79.92,93.2L79.92,93.2L79.92,93.2L79.93,93.19L79.93,93.19L79.93,93.18L79.94,93.18L79.94,93.17L79.95,93.17L79.95,93.17L79.95,93.17L79.96,93.16L79.96,93.16L79.97,93.15L79.97,93.15L79.98,93.15L79.98,93.14L79.98,93.14L79.99,93.14L79.99,93.13L80,93.13L80,93.12L80.01,93.12L80.01,93.11L80.02,93.11L80.02,93.11L80.02,93.1L80.03,93.1L80.03,93.1L80.04,93.09L80.04,93.09L80.05,93.08L80.05,93.08C83.72,89.8 86,84.71 87.26,78.65C87.32,78.39 87.37,78.15 87.41,77.93L87.41,77.91L87.41,77.9L87.41,77.89L87.42,77.88L87.42,77.86L87.42,77.86L87.43,77.84L87.43,77.82L87.44,77.8L87.44,77.79L87.44,77.77L87.45,77.76L87.45,77.75L87.45,77.73L87.45,77.73L87.46,77.72L87.46,77.7L87.46,77.69L87.46,77.68L87.47,77.66L87.47,77.66L87.47,77.64L87.47,77.63L87.48,77.61L87.48,77.59L87.49,77.57L87.49,77.56L87.49,77.55L87.5,77.54L87.5,77.52L87.5,77.5L87.51,77.48L87.51,77.47L87.51,77.45L87.52,77.43L87.52,77.42L87.52,77.41L87.53,77.39L87.53,77.39L87.53,77.38L87.53,77.36L87.54,77.34L87.54,77.32L87.55,77.31L87.55,77.29L87.55,77.27L87.56,77.25L87.56,77.23L87.56,77.22L87.57,77.2L87.57,77.18L87.57,77.18L87.58,77.16L87.58,77.15L87.58,77.13L87.59,77.12L87.59,77.11L87.59,77.09L87.59,77.08L87.59,77.07L87.6,77.06L87.6,77.05L87.6,77.04L87.61,77.02L87.61,77.01L87.61,77L87.61,76.99L87.62,76.97L87.62,76.95L87.62,76.95L87.62,76.93L87.63,76.92L87.63,76.9L87.63,76.88L87.64,76.86L87.64,76.85L87.64,76.85L87.65,76.83L87.65,76.81L87.65,76.79C89.19,77.07 90.69,77.47 91.81,77.8M125.02,113.96C119.92,112.79 115.04,109.88 112.91,106.19C109.53,100.32 110.91,94.56 110.99,89.92C111.02,88.28 108.79,87.79 108.3,88.73C107.03,91.15 104.36,96.01 101.4,99.41C96.02,105.31 88.59,106.07 80.08,101.18C77.3,99.59 75.63,97.98 74.69,96.18C72.41,96.92 69.8,97.17 66.84,96.85C66.58,99.19 65.92,100.95 64.82,102.65C67.52,105.71 71.93,108.07 75.68,110.08C77.03,110.81 78.31,111.49 79.45,112.18L88.16,116.15L90.48,117.02C90.56,117.01 90.65,117 90.74,117.02L90.87,117.03C104.03,118.92 118.91,121.04 125.02,113.96M146.82,93.27C145.53,95.16 139.42,90.31 139.88,89.12C140.41,87.75 148.84,90.33 146.82,93.27M138.9,88.65C138.33,89.48 136.66,88.15 136.86,87.63C137.09,87.03 139.79,87.36 138.9,88.65M131.09,88.3C126.36,87.03 116.68,85.17 114.6,91.65C112.88,97.02 113.37,106.4 120.26,109.4C124.67,111.33 130.79,112.43 134.58,110.03C136.19,109.02 137.56,106.5 138.36,104.72C139.31,102.55 140.27,99.26 140.61,96.79C140.8,95.5 140.9,94.66 140.51,93.51C139.62,90.87 134.08,89.1 131.09,88.3M130.77,81.54C130.25,81.72 129.69,81.43 129.52,80.91C129.36,80.39 129.64,79.83 130.15,79.65C131.1,79.34 132.4,79.41 133.65,79.74C134.94,80.07 136.22,80.67 137.04,81.38C137.45,81.73 137.5,82.36 137.15,82.78C136.8,83.19 136.17,83.24 135.76,82.88C135.17,82.38 134.19,81.93 133.17,81.67C132.25,81.43 131.34,81.35 130.77,81.54M147.08,110.28C146.65,110.3 146.29,109.95 146.28,109.51C146.27,109.44 146.28,109.37 146.3,109.3C146.26,109.27 146.23,109.23 146.2,109.19C145.95,108.83 146.03,108.34 146.39,108.08C149.95,105.51 152.04,105.11 152.04,105.1C152.47,105.02 152.88,105.3 152.96,105.73C153.05,106.16 152.77,106.58 152.34,106.67C152.34,106.67 150.94,106.94 148.29,108.69C151.8,108.73 153.37,109.41 153.38,109.41C153.78,109.58 153.97,110.04 153.8,110.45C153.63,110.86 153.17,111.05 152.77,110.88C152.77,110.88 151.12,110.17 147.08,110.28M60.69,157.85C60.34,158.15 59.93,158.4 59.47,158.6C57.29,159.56 54.21,159.3 52.29,157.83C51.21,157 50.62,155.88 50.73,154.63C50.77,154.22 50.88,153.83 51.06,153.47C51.14,153.3 51.06,153.17 50.9,153.09C50.5,152.88 50.13,152.65 49.81,152.4C48.64,151.49 47.87,150.08 48.13,148.58C48.34,147.38 49.13,146.4 50.29,145.72C50.33,145.7 50.33,145.68 50.3,145.64C49.65,144.78 49.33,143.78 49.46,142.73C49.65,141.19 50.74,140 52.33,139.32C53.58,138.78 55.19,138.56 56.87,138.77C57.25,138.82 57.62,138.89 57.97,138.97C58.02,138.98 58.05,138.95 58.04,138.9C57.95,138.12 57.86,137.37 57.86,136.57C57.88,134.34 58.51,132.69 60.91,132.3C61.79,132.16 62.51,132.13 63.3,132.54C66.33,134.08 68.93,140.41 69.75,142.6C71.52,143.33 75.57,143.59 79.74,142.92C83.12,142.38 86.46,141.2 88.48,139.13L89.8,137.78L90.8,133.29C90.8,133.26 90.81,133.24 90.81,133.22L92.89,125.31L92.89,125.31C93.23,123.99 93.33,122.8 93.06,121.74C92.8,120.74 92.19,119.81 91.08,118.95L87.6,117.64L87.6,117.64C87.58,117.64 87.57,117.63 87.55,117.62L78.77,113.61L78.77,113.61C78.74,113.6 78.71,113.59 78.69,113.57C77.64,112.93 76.33,112.23 74.94,111.49C68.16,107.85 59.4,103.15 60.85,94.94L60.85,94.94L60.86,94.91C60.95,94.48 61.36,94.21 61.79,94.3L64.37,94.85C64.49,94.87 64.63,94.9 64.8,94.93C67.27,95.42 69.49,95.51 71.47,95.26C68.79,93.6 67.38,93.37 67.38,93.37C66.95,93.29 66.66,92.89 66.73,92.45C66.8,92.02 67.21,91.73 67.63,91.8C67.64,91.8 69.46,92.1 72.65,94.13C70.69,91.04 69.34,90.13 69.33,90.13C68.98,89.88 68.88,89.38 69.13,89.02C69.37,88.66 69.86,88.57 70.22,88.81C70.23,88.82 71.72,89.82 73.74,92.91C73.38,89.56 74.43,85.45 75.31,79.84C73.48,77.22 73.5,71.94 77.35,71.01C79.09,71.2 80.74,71.9 82.44,71.95C83.39,71.98 84.33,72.05 85.26,72.15C84.81,70.76 84.53,69.29 84.34,68.4C70.02,68.41 65.3,53.92 78.5,48.05C79.17,31.31 98.09,31.32 110.71,34.95C110.18,33.65 110.95,32.06 113.51,31.33C116.47,30.48 120.4,30.76 123.31,31.1C129.57,31.85 135.76,36.06 139.07,38.07C140.44,34.17 146.84,34.37 152.3,37.29C156.58,39.58 160.75,43.59 162.7,47.39C165.58,52.97 168.17,59.74 163.2,64.52C165.7,64 168.22,63.61 170.76,63.37C171.15,63.32 171.52,63.58 171.61,63.97L172.19,66.35C172.24,66.52 172.23,66.71 172.16,66.88C170.77,70.15 169.01,73.02 167.27,75.86C164.92,79.69 162.61,83.45 161.44,87.93C161.19,88.88 161.2,89.48 161.29,90.46L165.19,121.02C168.38,117.86 173.73,115.02 179.41,113.37C185.02,111.73 191,111.26 195.56,112.79C196.14,112.95 196.45,113.6 196.2,114.16C193.86,119.4 192.51,124.46 191.86,129.56C191.23,134.39 191.23,139.28 191.57,144.37C191.61,144.97 191.7,145.45 191.85,146.02C192.69,149.22 193.39,152.57 193.94,156.14C194.65,160.68 194.99,165.26 195.4,169.84C194.7,169.43 193.96,169.08 193.2,168.78C193.06,164.64 192.64,160.55 192,156.44C191.5,153.24 190.89,150.22 190.16,147.32C189.75,145.71 189.48,145.3 188.15,144.23C186.02,142.52 183.23,140.26 183.18,134.77C183.17,134.21 183.36,134.06 182.72,134C182.3,133.95 181.75,134.02 181.13,134.22C179.68,134.66 177.91,135.73 176.29,137.56C176.15,137.73 176.02,137.92 175.83,138.03C175.37,138.32 174.76,138.18 174.48,137.71C172.61,134.66 172.85,131.56 173.04,129.03C173.13,127.87 173.21,126.84 173.04,126.15C172.74,124.95 171.23,124.58 166.15,125.84C166.81,130.01 166.76,129.2 164.85,133.23L164.14,141.45L168.76,153.79C171.84,159.63 169.64,165.37 167.6,171C166.96,170.52 166.3,170.09 165.62,169.71C167.87,164.95 169.73,159.77 166.97,154.64L164.3,147.49L163.24,144.67C162.87,143.66 162.4,142.88 162.39,141.84C162.36,138.72 162.7,136.17 163.11,132.86C163.12,132.75 163.16,132.65 163.21,132.56L164.87,129.06C162.8,116.01 160.87,103.08 159.67,89.94C159.6,89.2 159.58,88.92 159.75,88.22C160.8,83.7 162.92,79.96 165.19,76.23C164.5,76.2 163.81,76.6 163.18,76.96C162.6,77.29 162.07,77.59 161.52,77.64C161.18,77.67 160.86,77.63 160.58,77.5C160.34,77.38 160.13,77.2 159.98,76.96C159.84,76.73 159.75,76.45 159.72,76.12C159.66,75.43 159.87,74.41 160.51,72.97C160.22,73.01 159.78,73.09 159.31,73.19C157.91,73.48 156.29,73.81 155.56,72.96C155.37,72.74 155.37,72.4 155.57,72.18C157.08,70.45 157.16,69.62 156.71,69.21C156.3,68.84 155.49,68.66 154.76,68.53C151.8,69.56 148.91,70.8 146.11,72.21C145.93,72.35 145.75,72.49 145.57,72.63C135.68,71.43 132.42,68.41 118.01,69.4L112.57,69.77C108.29,70.06 103.64,71.23 99.52,72.46C100.47,72.8 101.35,73.27 101.97,73.8C102.38,74.16 102.43,74.79 102.07,75.2C101.72,75.62 101.1,75.67 100.69,75.31C100.1,74.8 99.11,74.35 98.09,74.09C97.17,73.85 96.27,73.78 95.69,73.97C95.43,74.06 95.15,74.03 94.92,73.9L94.06,74.18C98.84,75.78 103.49,78.03 108.3,80.22C110.87,80.91 113.43,81.61 116,82.3C125.28,83.47 138.41,83.9 146.38,89.48C147.87,89.9 149.4,89.73 149.83,91.2C150.49,93.42 149.83,95.71 146.75,97.22C144.31,103.17 141.56,109.62 136.91,112.66C134.15,114.46 130.35,114.87 126.54,114.26C126.56,114.46 126.5,114.67 126.36,114.83C123.27,118.55 118.24,120.04 112.36,120.38C113.68,122.06 117.29,122.34 120.33,122.58C121.67,122.68 122.9,122.78 123.87,122.98C124.29,123.08 124.56,123.5 124.47,123.93C124.38,124.36 123.97,124.63 123.54,124.54C122.68,124.35 121.5,124.26 120.22,124.16C116.42,123.87 111.83,123.51 110.58,120.44C105.18,120.55 99.19,119.81 93.39,119C93.98,119.73 94.36,120.51 94.58,121.34C94.93,122.69 94.81,124.14 94.41,125.71L94.41,125.72L94.41,125.72L92.34,133.62L92.33,133.63L88.35,151.59C88.34,151.61 88.34,151.63 88.34,151.64C86.77,157.11 84.96,162.51 83.39,167.95C82.82,168.06 82.26,168.2 81.7,168.37C81.58,168.41 81.46,168.44 81.34,168.48L84.23,159.53C80.41,159.92 77.02,159.38 72.32,158.84C68.56,158.41 64.51,157.95 60.69,157.85M90.59,86.01C91.02,86.06 91.33,86.47 91.28,86.91C91.22,87.35 90.83,87.67 90.39,87.61C89.96,87.56 89.65,87.15 89.7,86.71C89.76,86.27 90.16,85.95 90.59,86.01M91.36,85.25C92.91,85.44 93.99,86.99 93.78,88.7C93.57,90.41 92.14,91.64 90.59,91.44C89.05,91.25 87.96,89.7 88.17,87.99C88.38,86.28 89.81,85.05 91.36,85.25M128.47,95.03C128.91,95.08 129.22,95.49 129.16,95.93C129.11,96.37 128.71,96.69 128.28,96.63C127.84,96.58 127.53,96.17 127.59,95.73C127.64,95.29 128.04,94.97 128.47,95.03M129.25,94.27C130.79,94.46 131.88,96.01 131.67,97.72C131.46,99.43 130.03,100.66 128.48,100.46C126.93,100.27 125.85,98.72 126.06,97.01C126.27,95.3 127.7,94.07 129.25,94.27M189.49,142.47C189.25,138 189.35,133.64 189.91,129.3C190.53,124.53 191.72,119.79 193.73,114.93C193.96,114.37 194.06,114.4 193.46,114.27C189.51,113.39 184.61,113.91 179.94,115.27C174.33,116.91 169.08,119.74 166.19,122.83C165.99,123.19 166.08,123.79 167.17,123.57C172.6,122.45 174.39,123.45 174.94,125.66C175.19,126.67 175.1,127.84 175,129.18C174.88,130.75 174.74,132.58 175.2,134.39C175.29,134.76 175.48,135.47 176.39,134.71C177.82,133.49 179.28,132.71 180.56,132.32C181.44,132.05 182.24,131.96 182.91,132.02C183.74,132.1 184.4,132.43 184.79,132.98C185.03,133.32 185.16,133.73 185.14,134.2C185.02,139.05 187.38,141.07 189.24,142.57C189.51,142.79 189.49,142.59 189.49,142.47"/>
	<path class="st6" d="M67.87,24.76C59.5,29.57 51.82,35.47 45.04,42.26C25.29,62 13.08,89.28 13.08,119.41C13.08,136.94 17.22,153.51 24.57,168.19L17.13,168.19C10.23,153.36 6.38,136.83 6.38,119.41C6.38,87.43 19.34,58.48 40.3,37.52C48.39,29.43 57.66,22.54 67.84,17.12L67.83,23.82C67.83,24.15 67.85,24.47 67.87,24.76M175.48,16.57C186.07,22.07 195.71,29.16 204.07,37.52C225.03,58.48 237.99,87.43 237.99,119.41C237.99,136.76 234.17,153.23 227.33,168.01C224.91,167.49 222.44,167.41 220.01,167.78C227.23,153.2 231.3,136.78 231.3,119.41C231.3,89.28 219.08,62 199.33,42.26C191.64,34.56 182.79,28.01 173.08,22.88Z"/>
	<path class="st6" d="M125.29,8.51L131.09,3.94C131.18,2.89 131.35,2.15 131.61,1.7C132,1.06 132.66,0.77 133.58,0.85C134.51,0.93 135.1,1.32 135.38,2.02C135.56,2.51 135.61,3.27 135.52,4.32L134.75,13.41C134.66,14.46 134.49,15.21 134.23,15.65C133.83,16.31 133.18,16.61 132.25,16.53C131.33,16.45 130.73,16.05 130.46,15.33C130.28,14.84 130.23,14.08 130.32,13.03L130.69,8.61L124.94,12.57C124.86,13.59 124.68,14.34 124.42,14.8C124.03,15.47 123.38,15.76 122.48,15.68C120.96,15.55 120.3,14.38 120.48,12.18L121.26,3.09C121.34,2.08 121.52,1.34 121.81,0.88C122.22,0.22 122.88,-0.06 123.8,0.01C124.71,0.09 125.3,0.48 125.57,1.18C125.76,1.66 125.8,2.43 125.72,3.47ZM104.67,8.96C104.5,6.59 105.07,4.6 106.37,2.99C107.67,1.39 109.49,0.51 111.82,0.34C113.04,0.26 114.11,0.37 115.04,0.68C116.3,1.11 116.97,1.86 117.04,2.9C117.08,3.44 116.93,3.91 116.61,4.31C116.28,4.71 115.85,4.93 115.31,4.97C114.96,4.99 114.5,4.91 113.92,4.71C113.34,4.52 112.73,4.45 112.1,4.49C111.09,4.56 110.33,5.01 109.83,5.83C109.38,6.58 109.19,7.48 109.26,8.55C109.34,9.67 109.66,10.55 110.23,11.18C110.87,11.89 111.73,12.2 112.8,12.13C113.43,12.08 114,11.93 114.52,11.67C115.04,11.41 115.48,11.26 115.83,11.24C116.35,11.2 116.78,11.36 117.13,11.72C117.48,12.08 117.68,12.53 117.71,13.08C117.78,13.99 117.2,14.81 115.99,15.53C115.11,16.05 114,16.35 112.65,16.45C110.4,16.61 108.53,15.96 107.06,14.5C105.62,13.1 104.83,11.26 104.67,8.96M92.04,12.62L96.06,6.4C95.81,5.38 95.74,4.62 95.84,4.11C96,3.37 96.53,2.89 97.43,2.67C98.33,2.44 99.02,2.61 99.51,3.19C99.84,3.59 100.13,4.29 100.38,5.31L102.56,14.17C102.81,15.19 102.89,15.95 102.78,16.46C102.63,17.21 102.1,17.7 101.2,17.93C100.3,18.16 99.6,17.97 99.12,17.38C98.79,16.98 98.5,16.27 98.25,15.26L97.18,10.95L93.01,16.57C93.26,17.57 93.33,18.34 93.24,18.86C93.08,19.62 92.56,20.11 91.68,20.33C90.2,20.7 89.2,19.81 88.67,17.67L86.49,8.81C86.24,7.83 86.18,7.07 86.3,6.54C86.47,5.78 87.01,5.29 87.91,5.07C88.79,4.84 89.48,5.02 89.96,5.59C90.29,5.99 90.58,6.7 90.83,7.72ZM72.82,25.09C73.05,25.68 73.45,26.1 74.01,26.36C74.57,26.63 75.14,26.64 75.72,26.41C76.75,26 77.21,25.01 77.1,23.42L76.51,14.98L81.88,21.87C82.7,22.94 83.62,23.28 84.62,22.88C85.26,22.63 85.67,22.24 85.86,21.7C86.05,21.16 86.02,20.57 85.77,19.93C85.64,19.59 85.34,19.16 84.87,18.65L77.6,10.62C77.04,10 76.56,9.61 76.16,9.43C75.62,9.19 75.01,9.21 74.32,9.48C73.61,9.76 73.14,10.2 72.9,10.79C72.71,11.19 72.62,11.85 72.62,12.75L72.6,23.81C72.61,24.29 72.68,24.71 72.82,25.09M160.11,14.51C159.76,15.43 159.68,16.3 159.87,17.12C160.09,18.05 160.64,18.68 161.52,19.03C162.41,19.37 163.23,19.27 163.99,18.72C164.65,18.23 165.16,17.53 165.51,16.6C165.86,15.67 165.95,14.82 165.78,14.03C165.56,13.12 165.02,12.5 164.14,12.15C163.27,11.82 162.45,11.91 161.68,12.43C160.98,12.91 160.46,13.6 160.11,14.51M163.42,22.59C162.15,23.32 160.77,23.39 159.28,22.82C157.39,22.09 156.14,20.7 155.51,18.65C154.93,16.76 155.02,14.84 155.76,12.88C156.51,10.9 157.75,9.41 159.49,8.4C161.33,7.31 163.21,7.13 165.13,7.88C166.54,8.42 167.47,9.37 167.93,10.71C168.75,10.01 169.59,9.82 170.44,10.15C171.82,10.68 172.12,11.97 171.35,14.02L168.11,22.54C167.33,24.6 166.24,25.37 164.86,24.83C163.94,24.48 163.46,23.73 163.42,22.59M142.07,14.16L146.81,15.26L148.78,6.64C149.27,4.49 150.24,3.58 151.68,3.92C153.13,4.26 153.6,5.5 153.11,7.65L151.14,16.27C152.41,16.57 152.89,17.35 152.61,18.61L151.98,21.37C151.65,22.81 150.81,23.37 149.45,23.06C148.69,22.88 148.33,22.33 148.38,21.39C148.38,21.14 148.52,20.41 148.79,19.19L139.69,17.06C138.83,16.86 138.23,16.37 137.89,15.58C137.58,14.85 137.53,14.04 137.74,13.15L139.71,4.53C140.2,2.37 141.17,1.47 142.61,1.8C144.05,2.14 144.53,3.38 144.04,5.54Z"/>
</svg>