<svg xmlns="http://www.w3.org/2000/svg" width="40.61" height="51" viewBox="0 0 40.61 51">
	<style type="text/css">
		.st2{fill:#ff9b30;}
		.st1{stroke:#1d1d1b;fill:none;stroke-width:0.75;}
		.st0{fill:#ffffff;}
	</style>
	<path class="st0" d="M34.66,20.3C34.66,12.37 28.23,5.94 20.3,5.94C12.37,5.94 5.94,12.37 5.94,20.3C5.94,28.23 12.37,34.66 20.3,34.66C28.23,34.66 34.66,28.23 34.66,20.3"/>
	<path class="st1" d="M34.66,20.3C34.66,12.37 28.23,5.94 20.3,5.94C12.37,5.94 5.94,12.37 5.94,20.3C5.94,28.23 12.37,34.66 20.3,34.66C28.23,34.66 34.66,28.23 34.66,20.3Z"/>
	<path class="st2" d="M20.3,29.98C14.95,29.98 10.62,25.64 10.62,20.3C10.62,14.95 14.95,10.62 20.3,10.62C25.65,10.62 29.98,14.96 29.98,20.3C29.98,25.64 25.65,29.98 20.3,29.98M20.3,0C9.09,0 0,9.09 0,20.3C0,37.18 20.3,51 20.3,51C20.3,51 40.61,36.17 40.61,20.3C40.61,9.09 31.52,0 20.3,0"/>
</svg>