<svg id="Слой_1" data-name="Слой 1" xmlns="http://www.w3.org/2000/svg" width="105" height="55.22" viewBox="0 0 105 55.22"><defs><style>.cls-1{fill:#fff1ae;}</style></defs><path class="cls-1" d="M96.25,7c-2.54,0-3.83-1.58-5-3s-2-2.41-3.8-2.41S84.75,2.73,83.7,4s-2.42,3-5,3-3.82-1.58-4.95-3-2-2.41-3.8-2.41S67.25,2.73,66.2,4s-2.42,3-5,3-3.82-1.58-5-3-2-2.41-3.8-2.41S49.75,2.73,48.7,4s-2.42,3-5,3-3.82-1.58-5-3-2-2.41-3.8-2.41S32.25,2.73,31.2,4s-2.42,3-4.95,3-3.83-1.58-5-3-2-2.41-3.79-2.41S14.75,2.73,13.7,4,11.29,7,8.75,7s-3.82-1.58-5-3S1.84,1.62,0,1.62V0C2.54,0,3.82,1.58,5,3s2,2.42,3.8,2.42S11.49,4.27,12.54,3s2.42-3,5-3,3.82,1.58,4.95,3,2,2.42,3.8,2.42S29,4.27,30,3s2.42-3,5-3,3.83,1.58,5,3,2,2.42,3.79,2.42S46.49,4.27,47.54,3s2.41-3,5-3,3.83,1.58,5,3,2,2.42,3.79,2.42S64,4.27,65,3,67.45,0,70,0s3.82,1.58,5,3,2,2.42,3.79,2.42S81.49,4.27,82.54,3,85,0,87.49,0s3.83,1.58,5,3,2,2.42,3.8,2.42S99,4.27,100,3C101.92.66,102.89.43,103.2.31A4.92,4.92,0,0,1,105,0V1.62c-1.84,0-2.74,1.11-3.8,2.41S98.79,7,96.25,7Z"/><path class="cls-1" d="M96.25,19c-2.54,0-3.83-1.58-5-3s-2-2.41-3.8-2.41S84.75,14.75,83.7,16s-2.42,3-5,3-3.82-1.58-4.95-3-2-2.41-3.8-2.41S67.25,14.75,66.2,16s-2.42,3-5,3-3.82-1.58-5-3-2-2.41-3.8-2.41S49.75,14.75,48.7,16s-2.42,3-5,3-3.82-1.58-5-3-2-2.41-3.8-2.41S32.25,14.75,31.2,16s-2.42,3-4.95,3-3.83-1.58-5-3-2-2.41-3.79-2.41S14.75,14.75,13.7,16s-2.41,3-4.95,3-3.82-1.58-5-3S1.84,13.63,0,13.63V12c2.54,0,3.82,1.58,5,3s2,2.41,3.8,2.41,2.74-1.11,3.79-2.41,2.42-3,5-3,3.82,1.58,4.95,3,2,2.41,3.8,2.41S29,16.29,30,15s2.42-3,5-3,3.83,1.58,5,3,2,2.41,3.79,2.41,2.75-1.11,3.8-2.41,2.41-3,5-3,3.83,1.58,5,3,2,2.41,3.79,2.41S64,16.29,65,15s2.41-3,4.95-3,3.82,1.58,5,3,2,2.41,3.79,2.41,2.75-1.12,3.8-2.41,2.42-3,4.95-3,3.83,1.58,5,3,2,2.41,3.8,2.41S99,16.28,100,15c1.88-2.31,2.85-2.55,3.16-2.67A4.87,4.87,0,0,1,105,12v1.61c-1.84,0-2.74,1.12-3.8,2.41S98.79,19,96.25,19Z"/><path class="cls-1" d="M96.25,31c-2.54,0-3.83-1.58-5-3s-2-2.41-3.8-2.41-2.74,1.12-3.79,2.41-2.42,3-5,3-3.82-1.58-4.95-3-2-2.41-3.8-2.41-2.74,1.12-3.79,2.41-2.42,3-5,3-3.82-1.58-5-3-2-2.41-3.8-2.41-2.74,1.12-3.79,2.41-2.42,3-5,3-3.82-1.58-5-3-2-2.41-3.8-2.41-2.74,1.12-3.79,2.41-2.42,3-4.95,3-3.83-1.58-5-3-2-2.41-3.79-2.41-2.75,1.12-3.8,2.41-2.41,3-4.95,3-3.82-1.58-5-3S1.84,25.65,0,25.65V24c2.54,0,3.82,1.58,5,3s2,2.41,3.8,2.41S11.49,28.3,12.54,27s2.42-3,5-3,3.82,1.58,4.95,3,2,2.41,3.8,2.41S29,28.3,30,27s2.42-3,5-3,3.83,1.58,5,3,2,2.41,3.79,2.41,2.75-1.12,3.8-2.41,2.41-3,5-3,3.83,1.58,5,3,2,2.41,3.79,2.41S64,28.3,65,27s2.41-3,4.95-3,3.82,1.58,5,3,2,2.41,3.79,2.41,2.75-1.12,3.8-2.41,2.42-3,4.95-3,3.83,1.58,5,3,2,2.41,3.8,2.41S99,28.3,100,27c1.88-2.31,2.85-2.55,3.16-2.67A5.14,5.14,0,0,1,105,24v1.62c-1.84,0-2.74,1.12-3.8,2.41S98.79,31,96.25,31Z"/><path class="cls-1" d="M96.25,43.05c-2.54,0-3.83-1.58-5-3s-2-2.41-3.8-2.41-2.74,1.11-3.79,2.41-2.42,3-5,3-3.82-1.58-4.95-3-2-2.41-3.8-2.41-2.74,1.11-3.79,2.41-2.42,3-5,3-3.82-1.58-5-3-2-2.41-3.8-2.41-2.74,1.11-3.79,2.41-2.42,3-5,3-3.82-1.58-5-3-2-2.41-3.8-2.41-2.74,1.11-3.79,2.41-2.42,3-4.95,3-3.83-1.58-5-3-2-2.41-3.79-2.41-2.75,1.11-3.8,2.41-2.41,3-4.95,3-3.82-1.58-5-3S1.84,37.67,0,37.67V36.05c2.54,0,3.82,1.58,5,3s2,2.41,3.8,2.41,2.74-1.12,3.79-2.41,2.42-3,5-3,3.82,1.58,4.95,3,2,2.41,3.8,2.41S29,40.32,30,39s2.42-3,5-3,3.83,1.58,5,3,2,2.41,3.79,2.41,2.75-1.12,3.8-2.41,2.41-3,5-3,3.83,1.58,5,3,2,2.41,3.79,2.41S64,40.32,65,39s2.41-3,4.95-3,3.82,1.58,5,3,2,2.41,3.79,2.41,2.75-1.12,3.8-2.42,2.42-3,4.95-3,3.83,1.58,5,3,2,2.42,3.8,2.42S99,40.32,100,39c1.88-2.3,2.85-2.54,3.16-2.66a5.14,5.14,0,0,1,1.8-.31v1.62c-1.84,0-2.74,1.11-3.8,2.41S98.79,43.05,96.25,43.05Z"/><path class="cls-1" d="M96.25,55.22c-2.54,0-3.83-1.59-5-3s-2-2.41-3.8-2.41S84.75,51,83.7,52.24s-2.42,3-5,3-3.82-1.59-4.95-3-2-2.41-3.8-2.41S67.25,51,66.2,52.24s-2.42,3-5,3-3.82-1.59-5-3-2-2.41-3.8-2.41S49.75,51,48.7,52.24s-2.42,3-5,3-3.82-1.59-5-3-2-2.41-3.8-2.41S32.25,51,31.2,52.24s-2.42,3-4.95,3-3.83-1.59-5-3-2-2.41-3.79-2.41S14.75,51,13.7,52.24s-2.41,3-4.95,3-3.82-1.59-5-3S1.84,49.83,0,49.83V48.22c2.54,0,3.82,1.58,5,3s2,2.41,3.8,2.41,2.74-1.12,3.79-2.41,2.42-3,5-3,3.82,1.58,4.95,3,2,2.41,3.8,2.41S29,52.48,30,51.19s2.42-3,5-3,3.83,1.58,5,3,2,2.41,3.79,2.41,2.75-1.12,3.8-2.41,2.41-3,5-3,3.83,1.58,5,3,2,2.41,3.79,2.41S64,52.48,65,51.19s2.41-3,4.95-3,3.82,1.58,5,3,2,2.41,3.79,2.41,2.75-1.12,3.8-2.41,2.42-3,4.95-3,3.83,1.58,5,3,2,2.41,3.8,2.41S99,52.48,100,51.19c1.88-2.31,2.85-2.55,3.16-2.67a4.87,4.87,0,0,1,1.8-.3v1.61c-1.84,0-2.74,1.12-3.8,2.41S98.79,55.22,96.25,55.22Z"/></svg>